{
copyright = "Copyright (c) 2015, Cadson Demak (info@cadsondemak.com)";
customParameters = (
{
name = vendorID;
value = CDK;
},
{
name = description;
value = "Copyright (c) 2015, Cadson Demak (info@cadsondemak.com)";
},
{
name = license;

glyphs = (
{
glyphname = A;
lastChange = "2015-08-01 07:38:51 +0000";
layers = (
{
layerId = "933D8F18-C226-4057-AED3-19590AE810D9";
name = Bold;
paths = (
{
closed = 1;
nodes = (
"308 0 LINE",
"308 116 LINE",
"270 116 LINE",
"292 189 LINE",
"422 189 LINE",
"443 116 LINE",
"405 116 LINE",
"405 0 LINE",
"697 0 LINE",
"697 116 LINE",
"673 116 LINE SMOOTH",
"637 116 OFFCURVE",
"627 119 OFFCURVE",
"616 150 CURVE SMOOTH",
"448 647 LINE",
"267 647 LINE",
"96 150 LINE SMOOTH",
"85 119 OFFCURVE",
"75 116 OFFCURVE",
"39 116 CURVE SMOOTH",
"15 116 LINE",
"15 0 LINE"
);
},
{
closed = 1;
nodes = (
"359 413 LINE",
"396 280 LINE",
"319 280 LINE"
);
}
);
width = 712;
}
);
leftKerningGroup = A;
note = A;
rightKerningGroup = A;
unicode = 0041;
},
{
glyphname = Aacute;
lastChange = "2015-08-01 07:38:50 +0000";
layers = (
{
layerId = "933D8F18-C226-4057-AED3-19590AE810D9";
name = Bold;
paths = (
{
closed = 1;
nodes = (
"308 0 LINE",
"308 116 LINE",
"270 116 LINE",
"292 189 LINE",
"422 189 LINE",
"443 116 LINE",
"405 116 LINE",
"405 0 LINE",
"697 0 LINE",
"697 116 LINE",
"673 116 LINE SMOOTH",
"637 116 OFFCURVE",
"627 119 OFFCURVE",
"616 150 CURVE SMOOTH",
"448 647 LINE",
"267 647 LINE",
"96 150 LINE SMOOTH",
"85 119 OFFCURVE",
"75 116 OFFCURVE",
"39 116 CURVE SMOOTH",
"15 116 LINE",
"15 0 LINE"
);
},
{
closed = 1;
nodes = (
"359 413 LINE",
"396 280 LINE",
"319 280 LINE"
);
},
{
closed = 1;
nodes = (
"426 697 LINE",
"538 879 LINE",
"342 879 LINE",
"271 697 LINE"
);
}
);
width = 712;
}
);
leftKerningGroup = A;
note = Aacute;
rightKerningGroup = A;
unicode = 00C1;
},
{
glyphname = Abreve;
lastChange = "2015-08-01 07:38:50 +0000";
layers = (
{
layerId = "933D8F18-C226-4057-AED3-19590AE810D9";
name = Bold;
paths = (
{
closed = 1;
nodes = (
"308 0 LINE",
"308 116 LINE",
"270 116 LINE",
"292 189 LINE",
"422 189 LINE",
"443 116 LINE",
"405 116 LINE",
"405 0 LINE",
"697 0 LINE",
"697 116 LINE",
"673 116 LINE SMOOTH",
"637 116 OFFCURVE",
"627 119 OFFCURVE",
"616 150 CURVE SMOOTH",
"448 647 LINE",
"267 647 LINE",
"96 150 LINE SMOOTH",
"85 119 OFFCURVE",
"75 116 OFFCURVE",
"39 116 CURVE SMOOTH",
"15 116 LINE",
"15 0 LINE"
);
},
{
closed = 1;
nodes = (
"359 413 LINE",
"396 280 LINE",
"319 280 LINE"
);
},
{
closed = 1;
nodes = (
"483 697 OFFCURVE",
"548 763 OFFCURVE",
"548 860 CURVE",
"395 860 LINE",
"395 826 OFFCURVE",
"391 804 OFFCURVE",
"360 804 CURVE SMOOTH",
"333 804 OFFCURVE",
"325 826 OFFCURVE",
"325 860 CURVE",
"172 860 LINE",
"172 763 OFFCURVE",
"237 697 OFFCURVE",
"360 697 CURVE SMOOTH"
);
}
);
width = 712;
}
);
leftKerningGroup = A;
note = Abreve;
rightKerningGroup = A;
unicode = 0102;
},
{
glyphname = Abreveacute;
lastChange = "2015-08-01 07:38:50 +0000";
layers = (
{
layerId = "933D8F18-C226-4057-AED3-19590AE810D9";
name = Bold;
paths = (
{
closed = 1;
nodes = (
"308 0 LINE",
"308 116 LINE",
"270 116 LINE",
"292 189 LINE",
"422 189 LINE",
"443 116 LINE",
"405 116 LINE",
"405 0 LINE",
"697 0 LINE",
"697 116 LINE",
"673 116 LINE SMOOTH",
"637 116 OFFCURVE",
"627 119 OFFCURVE",
"616 150 CURVE SMOOTH",
"448 647 LINE",
"267 647 LINE",
"96 150 LINE SMOOTH",
"85 119 OFFCURVE",
"75 116 OFFCURVE",
"39 116 CURVE SMOOTH",
"15 116 LINE",
"15 0 LINE"
);
},
{
closed = 1;
nodes = (
"359 413 LINE",
"396 280 LINE",
"319 280 LINE"
);
},
{
closed = 1;
nodes = (
"467 697 OFFCURVE",
"558 760 OFFCURVE",
"558 875 CURVE",
"434 875 LINE",
"434 827 OFFCURVE",
"420 796 OFFCURVE",
"359 796 CURVE SMOOTH",
"303 796 OFFCURVE",
"284 827 OFFCURVE",
"284 875 CURVE",
"160 875 LINE",
"160 760 OFFCURVE",
"251 697 OFFCURVE",
"359 697 CURVE SMOOTH"
);
},
{
closed = 1;
nodes = (
"414 869 LINE",
"509 1008 LINE",
"354 1008 LINE",
"300 869 LINE"
);
}
);
width = 712;
}
);
leftKerningGroup = A;
note = Abreveacute;
rightKerningGroup = A;
unicode = 1EAE;
},
{
glyphname = Abrevedotbelow;
lastChange = "2015-08-01 07:38:50 +0000";
layers = (
{
layerId = "933D8F18-C226-4057-AED3-19590AE810D9";
name = Bold;
paths = (
{
closed = 1;
nodes = (
"308 0 LINE",
"308 116 LINE",
"270 116 LINE",
"292 189 LINE",
"422 189 LINE",
"443 116 LINE",
"405 116 LINE",
"405 0 LINE",
"697 0 LINE",
"697 116 LINE",
"673 116 LINE SMOOTH",
"637 116 OFFCURVE",
"627 119 OFFCURVE",
"616 150 CURVE SMOOTH",
"448 647 LINE",
"267 647 LINE",
"96 150 LINE SMOOTH",
"85 119 OFFCURVE",
"75 116 OFFCURVE",
"39 116 CURVE SMOOTH",
"15 116 LINE",
"15 0 LINE"
);
},
{
closed = 1;
nodes = (
"424 -197 LINE",
"424 -60 LINE",
"295 -60 LINE",
"295 -197 LINE"
);
},
{
closed = 1;
nodes = (
"359 413 LINE",
"396 280 LINE",
"319 280 LINE"
);
},
{
closed = 1;
nodes = (
"485 697 OFFCURVE",
"550 763 OFFCURVE",
"550 860 CURVE",
"397 860 LINE",
"397 826 OFFCURVE",
"393 804 OFFCURVE",
"362 804 CURVE SMOOTH",
"335 804 OFFCURVE",
"327 826 OFFCURVE",
"327 860 CURVE",
"174 860 LINE",
"174 763 OFFCURVE",
"239 697 OFFCURVE",
"362 697 CURVE SMOOTH"
);
}
);
width = 712;
}
);
leftKerningGroup = A;
note = Abrevedotbelow;
rightKerningGroup = A;
unicode = 1EB6;
},
{
glyphname = Abrevegrave;
lastChange = "2015-08-01 07:38:51 +0000";
layers = (
{
layerId = "933D8F18-C226-4057-AED3-19590AE810D9";
name = Bold;
paths = (
{
closed = 1;
nodes = (
"308 0 LINE",
"308 116 LINE",
"270 116 LINE",
"292 189 LINE",
"422 189 LINE",
"443 116 LINE",
"405 116 LINE",
"405 0 LINE",
"697 0 LINE",
"697 116 LINE",
"673 116 LINE SMOOTH",
"637 116 OFFCURVE",
"627 119 OFFCURVE",
"616 150 CURVE SMOOTH",
"448 647 LINE",
"267 647 LINE",
"96 150 LINE SMOOTH",
"85 119 OFFCURVE",
"75 116 OFFCURVE",
"39 116 CURVE SMOOTH",
"15 116 LINE",
"15 0 LINE"
);
},
{
closed = 1;
nodes = (
"359 413 LINE",
"396 280 LINE",
"319 280 LINE"
);
},
{
closed = 1;
nodes = (
"467 697 OFFCURVE",
"558 760 OFFCURVE",
"558 875 CURVE",
"434 875 LINE",
"434 827 OFFCURVE",
"415 796 OFFCURVE",
"359 796 CURVE SMOOTH",
"298 796 OFFCURVE",
"284 827 OFFCURVE",
"284 875 CURVE",
"160 875 LINE",
"160 760 OFFCURVE",
"251 697 OFFCURVE",
"359 697 CURVE SMOOTH"
);
},
{
closed = 1;
nodes = (
"418 869 LINE",
"364 1008 LINE",
"209 1008 LINE",
"304 869 LINE"
);
}
);
width = 712;
}
);
leftKerningGroup = A;
note = Abrevegrave;
rightKerningGroup = A;
unicode = 1EB0;
},
{
glyphname = Abrevehookabove;
lastChange = "2015-08-01 07:38:50 +0000";
layers = (
{
layerId = "933D8F18-C226-4057-AED3-19590AE810D9";
name = Bold;
paths = (
{
closed = 1;
nodes = (
"308 0 LINE",
"308 116 LINE",
"270 116 LINE",
"292 189 LINE",
"422 189 LINE",
"443 116 LINE",
"405 116 LINE",
"405 0 LINE",
"697 0 LINE",
"697 116 LINE",
"673 116 LINE SMOOTH",
"637 116 OFFCURVE",
"627 119 OFFCURVE",
"616 150 CURVE SMOOTH",
"448 647 LINE",
"267 647 LINE",
"96 150 LINE SMOOTH",
"85 119 OFFCURVE",
"75 116 OFFCURVE",
"39 116 CURVE SMOOTH",
"15 116 LINE",
"15 0 LINE"
);
},
{
closed = 1;
nodes = (
"359 413 LINE",
"396 280 LINE",
"319 280 LINE"
);
},
{
closed = 1;
nodes = (
"467 697 OFFCURVE",
"558 760 OFFCURVE",
"558 875 CURVE",
"434 875 LINE",
"434 827 OFFCURVE",
"420 796 OFFCURVE",
"359 796 CURVE SMOOTH",
"303 796 OFFCURVE",
"284 827 OFFCURVE",
"284 875 CURVE",
"160 875 LINE",
"160 760 OFFCURVE",
"251 697 OFFCURVE",
"359 697 CURVE SMOOTH"
);
},
{
closed = 1;
nodes = (
"415 860 LINE",
"415 883 LINE",
"443 894 OFFCURVE",
"456 914 OFFCURVE",
"456 943 CURVE SMOOTH",
"456 989 OFFCURVE",
"420 1009 OFFCURVE",
"354 1009 CURVE SMOOTH",
"322 1009 OFFCURVE",
"298 1005 OFFCURVE",
"282 999 CURVE",
"282 935 LINE",
"291 939 OFFCURVE",
"302 942 OFFCURVE",
"313 942 CURVE SMOOTH",
"330 942 OFFCURVE",
"339 934 OFFCURVE",
"339 922 CURVE SMOOTH",
"339 909 OFFCURVE",
"330 898 OFFCURVE",
"303 898 CURVE",
"303 860 LINE"
);
}
);
width = 712;
}
);
leftKerningGroup = A;
note = Abrevehookabove;
rightKerningGroup = A;
unicode = 1EB2;
},
{
glyphname = Abrevetilde;
lastChange = "2015-08-01 07:38:50 +0000";
layers = (
{
layerId = "933D8F18-C226-4057-AED3-19590AE810D9";
name = Bold;
paths = (
{
closed = 1;
nodes = (
"308 0 LINE",
"308 116 LINE",
"270 116 LINE",
"292 189 LINE",
"422 189 LINE",
"443 116 LINE",
"405 116 LINE",
"405 0 LINE",
"697 0 LINE",
"697 116 LINE",
"673 116 LINE SMOOTH",
"637 116 OFFCURVE",
"627 119 OFFCURVE",
"616 150 CURVE SMOOTH",
"448 647 LINE",
"267 647 LINE",
"96 150 LINE SMOOTH",
"85 119 OFFCURVE",
"75 116 OFFCURVE",
"39 116 CURVE SMOOTH",
"15 116 LINE",
"15 0 LINE"
);
},
{
closed = 1;
nodes = (
"359 413 LINE",
"396 280 LINE",
"319 280 LINE"
);
},
{
closed = 1;
nodes = (
"469 697 OFFCURVE",
"560 760 OFFCURVE",
"560 875 CURVE",
"436 875 LINE",
"436 827 OFFCURVE",
"422 796 OFFCURVE",
"361 796 CURVE SMOOTH",
"305 796 OFFCURVE",
"286 827 OFFCURVE",
"286 875 CURVE",
"162 875 LINE",
"162 760 OFFCURVE",
"253 697 OFFCURVE",
"361 697 CURVE SMOOTH"
);
},
{
closed = 1;
nodes = (
"499 894 OFFCURVE",
"518 933 OFFCURVE",
"518 998 CURVE",
"441 998 LINE",
"441 979 OFFCURVE",
"432 971 OFFCURVE",
"410 971 CURVE SMOOTH",
"380 971 OFFCURVE",
"352 1003 OFFCURVE",
"297 1003 CURVE SMOOTH",
"230 1003 OFFCURVE",
"204 966 OFFCURVE",
"204 899 CURVE",
"281 899 LINE",
"281 919 OFFCURVE",
"292 926 OFFCURVE",
"312 926 CURVE SMOOTH",
"341 926 OFFCURVE",
"387 894 OFFCURVE",
"432 894 CURVE SMOOTH"
);
}
);
width = 712;
}
);
leftKerningGroup = A;
note = Abrevetilde;
rightKerningGroup = A;
unicode = 1EB4;
},
{
glyphname = Acaron;
lastChange = "2015-08-01 07:38:52 +0000";
layers = (
{
layerId = "933D8F18-C226-4057-AED3-19590AE810D9";
name = Bold;
paths = (
{
closed = 1;
nodes = (
"308 0 LINE",
"308 116 LINE",
"270 116 LINE",
"292 189 LINE",
"422 189 LINE",
"443 116 LINE",
"405 116 LINE",
"405 0 LINE",
"697 0 LINE",
"697 116 LINE",
"673 116 LINE SMOOTH",
"637 116 OFFCURVE",
"627 119 OFFCURVE",
"616 150 CURVE SMOOTH",
"448 647 LINE",
"267 647 LINE",
"96 150 LINE SMOOTH",
"85 119 OFFCURVE",
"75 116 OFFCURVE",
"39 116 CURVE SMOOTH",
"15 116 LINE",
"15 0 LINE"
);
},
{
closed = 1;
nodes = (
"359 413 LINE",
"396 280 LINE",
"319 280 LINE"
);
},
{
closed = 1;
nodes = (
"436 696 LINE",
"576 900 LINE",
"413 900 LINE",
"358 792 LINE",
"301 900 LINE",
"141 900 LINE",
"282 696 LINE"
);
}
);
width = 712;
}
);
leftKerningGroup = A;
note = Acaron;
rightKerningGroup = A;
unicode = 01CD;
},
{
glyphname = Acircumflex;
lastChange = "2015-08-01 07:38:51 +0000";
layers = (
{
layerId = "933D8F18-C226-4057-AED3-19590AE810D9";
name = Bold;
paths = (
{
closed = 1;
nodes = (
"308 0 LINE",
"308 116 LINE",
"270 116 LINE",
"292 189 LINE",
"422 189 LINE",
"443 116 LINE",
"405 116 LINE",
"405 0 LINE",
"697 0 LINE",
"697 116 LINE",
"673 116 LINE SMOOTH",
"637 116 OFFCURVE",
"627 119 OFFCURVE",
"616 150 CURVE SMOOTH",
"448 647 LINE",
"267 647 LINE",
"96 150 LINE SMOOTH",
"85 119 OFFCURVE",
"75 116 OFFCURVE",
"39 116 CURVE SMOOTH",
"15 116 LINE",
"15 0 LINE"
);
},
{
closed = 1;
nodes = (
"359 413 LINE",
"396 280 LINE",
"319 280 LINE"
);
},
{
closed = 1;
nodes = (
"303 697 LINE",
"360 804 LINE",
"415 697 LINE",
"578 697 LINE",
"438 900 LINE",
"284 900 LINE",
"143 697 LINE"
);
}
);
width = 712;
}
);
leftKerningGroup = A;
note = Acircumflex;
rightKerningGroup = A;
unicode = 00C2;
},
{
glyphname = Acircumflexacute;
lastChange = "2015-08-01 07:38:51 +0000";
layers = (
{
layerId = "933D8F18-C226-4057-AED3-19590AE810D9";
name = Bold;
paths = (
{
closed = 1;
nodes = (
"308 0 LINE",
"308 116 LINE",
"270 116 LINE",
"292 189 LINE",
"422 189 LINE",
"443 116 LINE",
"405 116 LINE",
"405 0 LINE",
"697 0 LINE",
"697 116 LINE",
"673 116 LINE SMOOTH",
"637 116 OFFCURVE",
"627 119 OFFCURVE",
"616 150 CURVE SMOOTH",
"448 647 LINE",
"267 647 LINE",
"96 150 LINE SMOOTH",
"85 119 OFFCURVE",
"75 116 OFFCURVE",
"39 116 CURVE SMOOTH",
"15 116 LINE",
"15 0 LINE"
);
},
{
closed = 1;
nodes = (
"359 413 LINE",
"396 280 LINE",
"319 280 LINE"
);
},
{
closed = 1;
nodes = (
"321 703 LINE",
"366 767 LINE",
"406 703 LINE",
"556 703 LINE",
"439 849 LINE",
"292 849 LINE",
"174 703 LINE"
);
},
{
closed = 1;
nodes = (
"602 818 LINE",
"706 964 LINE",
"541 964 LINE",
"478 818 LINE"
);
}
);
width = 712;
}
);
leftKerningGroup = A;
note = Acircumflexacute;
rightKerningGroup = A;
unicode = 1EA4;
},
{
glyphname = Acircumflexdotbelow;
lastChange = "2015-11-24 06:03:57 +0000";
layers = (
{
layerId = "933D8F18-C226-4057-AED3-19590AE810D9";
name = Bold;
paths = (
{
closed = 1;
nodes = (
"308 0 LINE",
"308 116 LINE",
"270 116 LINE",
"292 189 LINE",
"422 189 LINE",
"443 116 LINE",
"405 116 LINE",
"405 0 LINE",
"697 0 LINE",
"697 116 LINE",
"673 116 LINE SMOOTH",
"637 116 OFFCURVE",
"627 119 OFFCURVE",
"616 150 CURVE SMOOTH",
"448 647 LINE",
"267 647 LINE",
"96 150 LINE SMOOTH",
"85 119 OFFCURVE",
"75 116 OFFCURVE",
"39 116 CURVE SMOOTH",
"15 116 LINE",
"15 0 LINE"
);
},
{
closed = 1;
nodes = (
"359 413 LINE",
"396 280 LINE",
"319 280 LINE"
);
},
{
closed = 1;
nodes = (
"302 697 LINE",
"359 804 LINE",
"414 697 LINE",
"577 697 LINE",
"437 900 LINE",
"283 900 LINE",
"142 697 LINE"
);
},
{
closed = 1;
nodes = (
"424 -197 LINE",
"424 -60 LINE",
"295 -60 LINE",
"295 -197 LINE"
);
}
);
width = 712;
}
);
leftKerningGroup = A;
note = Acircumflexdotbelow;
rightKerningGroup = A;
unicode = 1EAC;
},
{
glyphname = Acircumflexgrave;
lastChange = "2015-11-24 06:03:49 +0000";
layers = (
{
layerId = "933D8F18-C226-4057-AED3-19590AE810D9";
name = Bold;
paths = (
{
closed = 1;
nodes = (
"308 0 LINE",
"308 116 LINE",
"270 116 LINE",
"292 189 LINE",
"422 189 LINE",
"443 116 LINE",
"405 116 LINE",
"405 0 LINE",
"697 0 LINE",
"697 116 LINE",
"673 116 LINE SMOOTH",
"637 116 OFFCURVE",
"627 119 OFFCURVE",
"616 150 CURVE SMOOTH",
"448 647 LINE",
"267 647 LINE",
"96 150 LINE SMOOTH",
"85 119 OFFCURVE",
"75 116 OFFCURVE",
"39 116 CURVE SMOOTH",
"15 116 LINE",
"15 0 LINE"
);
},
{
closed = 1;
nodes = (
"359 413 LINE",
"396 280 LINE",
"319 280 LINE"
);
},
{
closed = 1;
nodes = (
"310 703 LINE",
"350 767 LINE",
"395 703 LINE",
"542 703 LINE",
"424 849 LINE",
"277 849 LINE",
"160 703 LINE"
);
},
{
closed = 1;
nodes = (
"214 818 LINE",
"151 964 LINE",
"-14 964 LINE",
"90 818 LINE"
);
}
);
width = 712;
}
);
leftKerningGroup = A;
note = Acircumflexgrave;
rightKerningGroup = A;
unicode = 1EA6;
},
{
glyphname = Acircumflexhookabove;
lastChange = "2015-08-01 07:38:51 +0000";
layers = (
{
layerId = "933D8F18-C226-4057-AED3-19590AE810D9";
name = Bold;
paths = (
{
closed = 1;
nodes = (
"308 0 LINE",
"308 116 LINE",
"270 116 LINE",
"292 189 LINE",
"422 189 LINE",
"443 116 LINE",
"405 116 LINE",
"405 0 LINE",
"697 0 LINE",
"697 116 LINE",
"673 116 LINE SMOOTH",
"637 116 OFFCURVE",
"627 119 OFFCURVE",
"616 150 CURVE SMOOTH",
"448 647 LINE",
"267 647 LINE",
"96 150 LINE SMOOTH",
"85 119 OFFCURVE",
"75 116 OFFCURVE",
"39 116 CURVE SMOOTH",
"15 116 LINE",
"15 0 LINE"
);
},
{
closed = 1;
nodes = (
"359 413 LINE",
"396 280 LINE",
"319 280 LINE"
);
},
{
closed = 1;
nodes = (
"321 697 LINE",
"361 761 LINE",
"406 697 LINE",
"553 697 LINE",
"435 843 LINE",
"288 843 LINE",
"171 697 LINE"
);
},
{
closed = 1;
nodes = (
"562 841 LINE",
"562 864 LINE",
"590 875 OFFCURVE",
"603 895 OFFCURVE",
"603 924 CURVE SMOOTH",
"603 970 OFFCURVE",
"567 990 OFFCURVE",
"501 990 CURVE SMOOTH",
"469 990 OFFCURVE",
"445 986 OFFCURVE",
"429 980 CURVE",
"429 916 LINE",
"438 920 OFFCURVE",
"449 923 OFFCURVE",
"460 923 CURVE SMOOTH",
"477 923 OFFCURVE",
"486 915 OFFCURVE",
"486 903 CURVE SMOOTH",
"486 890 OFFCURVE",
"477 879 OFFCURVE",
"450 879 CURVE",
"450 841 LINE"
);
}
);
width = 712;
}
);
leftKerningGroup = A;
note = Acircumflexhookabove;
rightKerningGroup = A;
unicode = 1EA8;
},
{
glyphname = Acircumflextilde;
lastChange = "2015-08-01 07:38:50 +0000";
layers = (
{
layerId = "933D8F18-C226-4057-AED3-19590AE810D9";
name = Bold;
paths = (
{
closed = 1;
nodes = (
"308 0 LINE",
"308 116 LINE",
"270 116 LINE",
"292 189 LINE",
"422 189 LINE",
"443 116 LINE",
"405 116 LINE",
"405 0 LINE",
"697 0 LINE",
"697 116 LINE",
"673 116 LINE SMOOTH",
"637 116 OFFCURVE",
"627 119 OFFCURVE",
"616 150 CURVE SMOOTH",
"448 647 LINE",
"267 647 LINE",
"96 150 LINE SMOOTH",
"85 119 OFFCURVE",
"75 116 OFFCURVE",
"39 116 CURVE SMOOTH",
"15 116 LINE",
"15 0 LINE"
);
},
{
closed = 1;
nodes = (
"359 413 LINE",
"396 280 LINE",
"319 280 LINE"
);
},
{
closed = 1;
nodes = (
"318 697 LINE",
"358 761 LINE",
"403 697 LINE",
"550 697 LINE",
"432 843 LINE",
"285 843 LINE",
"168 697 LINE"
);
},
{
closed = 1;
nodes = (
"497 855 OFFCURVE",
"516 894 OFFCURVE",
"516 959 CURVE",
"439 959 LINE",
"439 940 OFFCURVE",
"430 932 OFFCURVE",
"408 932 CURVE SMOOTH",
"378 932 OFFCURVE",
"350 964 OFFCURVE",
"295 964 CURVE SMOOTH",
"228 964 OFFCURVE",
"202 927 OFFCURVE",
"202 860 CURVE",
"279 860 LINE",
"279 880 OFFCURVE",
"290 887 OFFCURVE",
"310 887 CURVE SMOOTH",
"339 887 OFFCURVE",
"385 855 OFFCURVE",
"430 855 CURVE SMOOTH"
);
}
);
width = 712;
}
);
leftKerningGroup = A;
note = Acircumflextilde;
rightKerningGroup = A;
unicode = 1EAA;
},
{
glyphname = Adieresis;
lastChange = "2015-08-01 07:38:50 +0000";
layers = (
{
layerId = "933D8F18-C226-4057-AED3-19590AE810D9";
name = Bold;
paths = (
{
closed = 1;
nodes = (
"308 0 LINE",
"308 116 LINE",
"270 116 LINE",
"292 189 LINE",
"422 189 LINE",
"443 116 LINE",
"405 116 LINE",
"405 0 LINE",
"697 0 LINE",
"697 116 LINE",
"673 116 LINE SMOOTH",
"637 116 OFFCURVE",
"627 119 OFFCURVE",
"616 150 CURVE SMOOTH",
"448 647 LINE",
"267 647 LINE",
"96 150 LINE SMOOTH",
"85 119 OFFCURVE",
"75 116 OFFCURVE",
"39 116 CURVE SMOOTH",
"15 116 LINE",
"15 0 LINE"
);
},
{
closed = 1;
nodes = (
"359 413 LINE",
"396 280 LINE",
"319 280 LINE"
);
},
{
closed = 1;
nodes = (
"298 717 LINE",
"298 854 LINE",
"170 854 LINE",
"170 717 LINE"
);
},
{
closed = 1;
nodes = (
"549 717 LINE",
"549 854 LINE",
"420 854 LINE",
"420 717 LINE"
);
}
);
width = 712;
}
);
leftKerningGroup = A;
note = Adieresis;
rightKerningGroup = A;
unicode = 00C4;
},
{
glyphname = Adotbelow;
lastChange = "2015-11-24 06:04:06 +0000";
layers = (
{
layerId = "933D8F18-C226-4057-AED3-19590AE810D9";
name = Bold;
paths = (
{
closed = 1;
nodes = (
"308 0 LINE",
"308 116 LINE",
"270 116 LINE",
"292 189 LINE",
"422 189 LINE",
"443 116 LINE",
"405 116 LINE",
"405 0 LINE",
"697 0 LINE",
"697 116 LINE",
"673 116 LINE SMOOTH",
"637 116 OFFCURVE",
"627 119 OFFCURVE",
"616 150 CURVE SMOOTH",
"448 647 LINE",
"267 647 LINE",
"96 150 LINE SMOOTH",
"85 119 OFFCURVE",
"75 116 OFFCURVE",
"39 116 CURVE SMOOTH",
"15 116 LINE",
"15 0 LINE"
);
},
{
closed = 1;
nodes = (
"359 413 LINE",
"396 280 LINE",
"319 280 LINE"
);
},
{
closed = 1;
nodes = (
"425 -197 LINE",
"425 -60 LINE",
"296 -60 LINE",
"296 -197 LINE"
);
}
);
width = 712;
}
);
leftKerningGroup = A;
note = Adotbelow;
rightKerningGroup = A;
unicode = 1EA0;
},
{
glyphname = Agrave;
lastChange = "2015-08-01 07:38:51 +0000";
layers = (
{
layerId = "933D8F18-C226-4057-AED3-19590AE810D9";
name = Bold;
paths = (
{
closed = 1;
nodes = (
"308 0 LINE",
"308 116 LINE",
"270 116 LINE",
"292 189 LINE",
"422 189 LINE",
"443 116 LINE",
"405 116 LINE",
"405 0 LINE",
"697 0 LINE",
"697 116 LINE",
"673 116 LINE SMOOTH",
"637 116 OFFCURVE",
"627 119 OFFCURVE",
"616 150 CURVE SMOOTH",
"448 647 LINE",
"267 647 LINE",
"96 150 LINE SMOOTH",
"85 119 OFFCURVE",
"75 116 OFFCURVE",
"39 116 CURVE SMOOTH",
"15 116 LINE",
"15 0 LINE"
);
},
{
closed = 1;
nodes = (
"359 413 LINE",
"396 280 LINE",
"319 280 LINE"
);
},
{
closed = 1;
nodes = (
"436 697 LINE",
"364 879 LINE",
"168 879 LINE",
"280 697 LINE"
);
}
);
width = 712;
}
);
leftKerningGroup = A;
note = Agrave;
rightKerningGroup = A;
unicode = 00C0;
},
{
glyphname = Ahookabove;
lastChange = "2015-08-01 07:38:51 +0000";
layers = (
{
layerId = "933D8F18-C226-4057-AED3-19590AE810D9";
name = Bold;
paths = (
{
closed = 1;
nodes = (
"308 0 LINE",
"308 116 LINE",
"270 116 LINE",
"292 189 LINE",
"422 189 LINE",
"443 116 LINE",
"405 116 LINE",
"405 0 LINE",
"697 0 LINE",
"697 116 LINE",
"673 116 LINE SMOOTH",
"637 116 OFFCURVE",
"627 119 OFFCURVE",
"616 150 CURVE SMOOTH",
"448 647 LINE",
"267 647 LINE",
"96 150 LINE SMOOTH",
"85 119 OFFCURVE",
"75 116 OFFCURVE",
"39 116 CURVE SMOOTH",
"15 116 LINE",
"15 0 LINE"
);
},
{
closed = 1;
nodes = (
"359 413 LINE",
"396 280 LINE",
"319 280 LINE"
);
},
{
closed = 1;
nodes = (
"423 692 LINE",
"423 735 LINE",
"461 751 OFFCURVE",
"478 777 OFFCURVE",
"478 817 CURVE SMOOTH",
"478 878 OFFCURVE",
"429 905 OFFCURVE",
"341 905 CURVE SMOOTH",
"299 905 OFFCURVE",
"266 899 OFFCURVE",
"244 892 CURVE",
"244 806 LINE",
"257 812 OFFCURVE",
"272 815 OFFCURVE",
"287 815 CURVE SMOOTH",
"309 815 OFFCURVE",
"320 804 OFFCURVE",
"320 788 CURVE SMOOTH",
"320 771 OFFCURVE",
"309 756 OFFCURVE",
"273 756 CURVE",
"273 692 LINE"
);
}
);
width = 712;
}
);
leftKerningGroup = A;
note = Ahookabove;
rightKerningGroup = A;
unicode = 1EA2;
},
{
glyphname = Amacron;
lastChange = "2015-08-01 07:38:51 +0000";
layers = (
{
layerId = "933D8F18-C226-4057-AED3-19590AE810D9";
name = Bold;
paths = (
{
closed = 1;
nodes = (
"308 0 LINE",
"308 116 LINE",
"270 116 LINE",
"292 189 LINE",
"422 189 LINE",
"443 116 LINE",
"405 116 LINE",
"405 0 LINE",
"697 0 LINE",
"697 116 LINE",
"673 116 LINE SMOOTH",
"637 116 OFFCURVE",
"627 119 OFFCURVE",
"616 150 CURVE SMOOTH",
"448 647 LINE",
"267 647 LINE",
"96 150 LINE SMOOTH",
"85 119 OFFCURVE",
"75 116 OFFCURVE",
"39 116 CURVE SMOOTH",
"15 116 LINE",
"15 0 LINE"
);
},
{
closed = 1;
nodes = (
"359 413 LINE",
"396 280 LINE",
"319 280 LINE"
);
},
{
closed = 1;
nodes = (
"519 717 LINE",
"519 822 LINE",
"202 822 LINE",
"202 717 LINE"
);
}
);
width = 712;
}
);
leftKerningGroup = A;
note = Amacron;
rightKerningGroup = A;
unicode = 0100;
},
{
glyphname = Aogonek;
lastChange = "2015-11-24 06:04:13 +0000";
layers = (
{
layerId = "933D8F18-C226-4057-AED3-19590AE810D9";
name = Bold;
paths = (
{
closed = 1;
nodes = (
"308 0 LINE",
"308 116 LINE",
"270 116 LINE",
"292 189 LINE",
"422 189 LINE",
"443 116 LINE",
"405 116 LINE",
"405 0 LINE",
"697 0 LINE",
"697 116 LINE",
"673 116 LINE SMOOTH",
"637 116 OFFCURVE",
"627 119 OFFCURVE",
"616 150 CURVE SMOOTH",
"448 647 LINE",
"267 647 LINE",
"96 150 LINE SMOOTH",
"85 119 OFFCURVE",
"75 116 OFFCURVE",
"39 116 CURVE SMOOTH",
"15 116 LINE",
"15 0 LINE"
);
},
{
closed = 1;
nodes = (
"359 413 LINE",
"396 280 LINE",
"319 280 LINE"
);
},
{
closed = 1;
nodes = (
"563 -221 OFFCURVE",
"593 -214 OFFCURVE",
"624 -190 CURVE",
"624 -92 LINE",
"615 -97 OFFCURVE",
"603 -100 OFFCURVE",
"592 -100 CURVE SMOOTH",
"573 -100 OFFCURVE",
"564 -86 OFFCURVE",
"564 -68 CURVE SMOOTH",
"564 -41 OFFCURVE",
"579 -23 OFFCURVE",
"612 0 CURVE",
"461 0 LINE",
"428 -23 OFFCURVE",
"406 -72 OFFCURVE",
"406 -118 CURVE SMOOTH",
"406 -192 OFFCURVE",
"460 -221 OFFCURVE",
"518 -221 CURVE SMOOTH"
);
}
);
width = 712;
}
);
leftKerningGroup = A;
note = Aogonek;
rightKerningGroup = A;
unicode = 0104;
},
{
glyphname = Aring;
lastChange = "2015-08-01 07:38:50 +0000";
layers = (
{
layerId = "933D8F18-C226-4057-AED3-19590AE810D9";
name = Bold;
paths = (
{
closed = 1;
nodes = (
"308 0 LINE",
"308 116 LINE",
"270 116 LINE",
"292 189 LINE",
"422 189 LINE",
"443 116 LINE",
"405 116 LINE",
"405 0 LINE",
"697 0 LINE",
"697 116 LINE",
"673 116 LINE SMOOTH",
"637 116 OFFCURVE",
"627 119 OFFCURVE",
"616 150 CURVE SMOOTH",
"448 647 LINE",
"267 647 LINE",
"96 150 LINE SMOOTH",
"85 119 OFFCURVE",
"75 116 OFFCURVE",
"39 116 CURVE SMOOTH",
"15 116 LINE",
"15 0 LINE"
);
},
{
closed = 1;
nodes = (
"359 413 LINE",
"396 280 LINE",
"319 280 LINE"
);
},
{
closed = 1;
nodes = (
"427 596 OFFCURVE",
"481 650 OFFCURVE",
"481 718 CURVE SMOOTH",
"481 786 OFFCURVE",
"427 840 OFFCURVE",
"359 840 CURVE SMOOTH",
"291 840 OFFCURVE",
"237 786 OFFCURVE",
"237 718 CURVE SMOOTH",
"237 650 OFFCURVE",
"291 596 OFFCURVE",
"359 596 CURVE SMOOTH"
);
},
{
closed = 1;
nodes = (
"339 682 OFFCURVE",
"323 698 OFFCURVE",
"323 718 CURVE SMOOTH",
"323 738 OFFCURVE",
"339 754 OFFCURVE",
"359 754 CURVE SMOOTH",
"379 754 OFFCURVE",
"395 738 OFFCURVE",
"395 718 CURVE SMOOTH",
"395 698 OFFCURVE",
"379 682 OFFCURVE",
"359 682 CURVE SMOOTH"
);
}
);
width = 712;
}
);
leftKerningGroup = A;
note = Aring;
rightKerningGroup = A;
unicode = 00C5;
},
{
glyphname = Aringacute;
lastChange = "2015-11-24 06:04:29 +0000";
layers = (
{
layerId = "933D8F18-C226-4057-AED3-19590AE810D9";
name = Bold;
paths = (
{
closed = 1;
nodes = (
"308 0 LINE",
"308 116 LINE",
"270 116 LINE",
"292 189 LINE",
"422 189 LINE",
"443 116 LINE",
"405 116 LINE",
"405 0 LINE",
"697 0 LINE",
"697 116 LINE",
"673 116 LINE SMOOTH",
"637 116 OFFCURVE",
"627 119 OFFCURVE",
"616 150 CURVE SMOOTH",
"448 647 LINE",
"267 647 LINE",
"96 150 LINE SMOOTH",
"85 119 OFFCURVE",
"75 116 OFFCURVE",
"39 116 CURVE SMOOTH",
"15 116 LINE",
"15 0 LINE"
);
},
{
closed = 1;
nodes = (
"359 413 LINE",
"396 280 LINE",
"319 280 LINE"
);
},
{
closed = 1;
nodes = (
"427 596 OFFCURVE",
"481 650 OFFCURVE",
"481 718 CURVE SMOOTH",
"481 786 OFFCURVE",
"427 840 OFFCURVE",
"359 840 CURVE SMOOTH",
"291 840 OFFCURVE",
"237 786 OFFCURVE",
"237 718 CURVE SMOOTH",
"237 650 OFFCURVE",
"291 596 OFFCURVE",
"359 596 CURVE SMOOTH"
);
},
{
closed = 1;
nodes = (
"339 682 OFFCURVE",
"323 698 OFFCURVE",
"323 718 CURVE SMOOTH",
"323 738 OFFCURVE",
"339 754 OFFCURVE",
"359 754 CURVE SMOOTH",
"379 754 OFFCURVE",
"395 738 OFFCURVE",
"395 718 CURVE SMOOTH",
"395 698 OFFCURVE",
"379 682 OFFCURVE",
"359 682 CURVE SMOOTH"
);
},
{
closed = 1;
nodes = (
"422 872 LINE",
"534 1054 LINE",
"338 1054 LINE",
"267 872 LINE"
);
}
);
width = 712;
}
);
leftKerningGroup = A;
note = Aringacute;
rightKerningGroup = A;
unicode = 01FA;
},
{
glyphname = Atilde;
lastChange = "2015-08-01 07:38:50 +0000";
layers = (
{
layerId = "933D8F18-C226-4057-AED3-19590AE810D9";
name = Bold;
paths = (
{
closed = 1;
nodes = (
"308 0 LINE",
"308 116 LINE",
"270 116 LINE",
"292 189 LINE",
"422 189 LINE",
"443 116 LINE",
"405 116 LINE",
"405 0 LINE",
"697 0 LINE",
"697 116 LINE",
"673 116 LINE SMOOTH",
"637 116 OFFCURVE",
"627 119 OFFCURVE",
"616 150 CURVE SMOOTH",
"448 647 LINE",
"267 647 LINE",
"96 150 LINE SMOOTH",
"85 119 OFFCURVE",
"75 116 OFFCURVE",
"39 116 CURVE SMOOTH",
"15 116 LINE",
"15 0 LINE"
);
},
{
closed = 1;
nodes = (
"359 413 LINE",
"396 280 LINE",
"319 280 LINE"
);
},
{
closed = 1;
nodes = (
"260 697 LINE",
"260 726 OFFCURVE",
"276 743 OFFCURVE",
"304 743 CURVE SMOOTH",
"346 743 OFFCURVE",
"377 697 OFFCURVE",
"455 697 CURVE SMOOTH",
"551 697 OFFCURVE",
"585 755 OFFCURVE",
"585 882 CURVE",
"460 882 LINE",
"460 854 OFFCURVE",
"447 836 OFFCURVE",
"417 836 CURVE SMOOTH",
"373 836 OFFCURVE",
"344 882 OFFCURVE",
"269 882 CURVE SMOOTH",
"173 882 OFFCURVE",
"135 821 OFFCURVE",
"135 697 CURVE"
);
}
);
width = 712;
}
);
leftKerningGroup = A;
note = Atilde;
rightKerningGroup = A;
unicode = 00C3;
},
{
glyphname = AE;
lastChange = "2015-08-01 07:39:11 +0000";
layers = (
{
layerId = "933D8F18-C226-4057-AED3-19590AE810D9";
name = Bold;
paths = (
{
closed = 1;
nodes = (
"308 0 LINE",
"308 116 LINE",
"270 116 LINE",
"292 189 LINE",
"359 189 LINE",
"359 0 LINE",
"805 0 LINE",
"805 168 LINE",
"637 168 LINE",
"637 156 LINE SMOOTH",
"637 129 OFFCURVE",
"624 116 OFFCURVE",
"596 116 CURVE SMOOTH",
"534 116 LINE",
"534 265 LINE",
"649 265 LINE",
"649 381 LINE",
"534 381 LINE",
"534 531 LINE",
"596 531 LINE SMOOTH",
"624 531 OFFCURVE",
"637 518 OFFCURVE",
"637 492 CURVE SMOOTH",
"637 479 LINE",
"805 479 LINE",
"805 647 LINE",
"267 647 LINE",
"96 150 LINE SMOOTH",
"85 119 OFFCURVE",
"75 116 OFFCURVE",
"39 116 CURVE SMOOTH",
"15 116 LINE",
"15 0 LINE"
);
},
{
closed = 1;
nodes = (
"359 434 LINE",
"359 280 LINE",
"319 280 LINE"
);
}
);
width = 820;
}
);
leftKerningGroup = A;
note = AE;
unicode = 00C6;
},
{
glyphname = AEacute;
lastChange = "2015-08-01 07:39:11 +0000";
layers = (
{
layerId = "933D8F18-C226-4057-AED3-19590AE810D9";
name = Bold;
paths = (
{
closed = 1;
nodes = (
"308 0 LINE",
"308 116 LINE",
"270 116 LINE",
"292 189 LINE",
"359 189 LINE",
"359 0 LINE",
"805 0 LINE",
"805 168 LINE",
"637 168 LINE",
"637 156 LINE SMOOTH",
"637 129 OFFCURVE",
"624 116 OFFCURVE",
"596 116 CURVE SMOOTH",
"534 116 LINE",
"534 265 LINE",
"649 265 LINE",
"649 381 LINE",
"534 381 LINE",
"534 531 LINE",
"596 531 LINE SMOOTH",
"624 531 OFFCURVE",
"637 518 OFFCURVE",
"637 492 CURVE SMOOTH",
"637 479 LINE",
"805 479 LINE",
"805 647 LINE",
"267 647 LINE",
"96 150 LINE SMOOTH",
"85 119 OFFCURVE",
"75 116 OFFCURVE",
"39 116 CURVE SMOOTH",
"15 116 LINE",
"15 0 LINE"
);
},
{
closed = 1;
nodes = (
"359 434 LINE",
"359 280 LINE",
"319 280 LINE"
);
},
{
closed = 1;
nodes = (
"505 697 LINE",
"617 879 LINE",
"421 879 LINE",
"350 697 LINE"
);
}
);
width = 820;
}
);
leftKerningGroup = A;
note = AEacute;
unicode = 01FC;
},
{
glyphname = B;
lastChange = "2015-07-31 14:10:15 +0000";
layers = (
{
layerId = "933D8F18-C226-4057-AED3-19590AE810D9";
name = Bold;
paths = (
{
closed = 1;
nodes = (
"410 0 LINE SMOOTH",
"521 0 OFFCURVE",
"599 68 OFFCURVE",
"599 184 CURVE SMOOTH",
"599 262 OFFCURVE",
"560 301 OFFCURVE",
"500 328 CURVE",
"555 359 OFFCURVE",
"590 412 OFFCURVE",
"590 468 CURVE SMOOTH",
"590 589 OFFCURVE",
"515 647 OFFCURVE",
"404 647 CURVE SMOOTH",
"15 647 LINE",
"15 530 LINE",
"36 530 LINE SMOOTH",
"64 530 OFFCURVE",
"76 516 OFFCURVE",
"76 493 CURVE SMOOTH",
"76 156 LINE SMOOTH",
"76 129 OFFCURVE",
"64 116 OFFCURVE",
"36 116 CURVE SMOOTH",
"15 116 LINE",
"15 0 LINE"
);
},
{
closed = 1;
nodes = (
"261 264 LINE",
"341 264 LINE SMOOTH",
"375 264 OFFCURVE",
"417 251 OFFCURVE",
"417 192 CURVE SMOOTH",
"417 137 OFFCURVE",
"383 116 OFFCURVE",
"344 116 CURVE SMOOTH",
"261 116 LINE"
);
},
{
closed = 1;
nodes = (
"261 531 LINE",
"337 531 LINE SMOOTH",
"380 531 OFFCURVE",
"407 502 OFFCURVE",
"407 457 CURVE SMOOTH",
"407 403 OFFCURVE",
"370 383 OFFCURVE",
"338 383 CURVE SMOOTH",
"261 383 LINE"
);
}
);
width = 614;
}
);
note = B;
unicode = 0042;
},
{
glyphname = C;
lastChange = "2015-08-01 07:38:50 +0000";
layers = (
{
layerId = "933D8F18-C226-4057-AED3-19590AE810D9";
name = Bold;
paths = (
{
closed = 1;
nodes = (
"471 -15 OFFCURVE",
"524 -1 OFFCURVE",
"599 51 CURVE",
"538 149 LINE",
"484 112 OFFCURVE",
"438 102 OFFCURVE",
"378 102 CURVE SMOOTH",
"250 102 OFFCURVE",
"197 180 OFFCURVE",
"197 318 CURVE SMOOTH",
"197 459 OFFCURVE",
"246 545 OFFCURVE",
"347 545 CURVE SMOOTH",
"367 545 OFFCURVE",
"389 543 OFFCURVE",
"406 539 CURVE",
"406 460 LINE",
"591 460 LINE",
"591 598 LINE",
"529 643 OFFCURVE",
"459 662 OFFCURVE",
"347 662 CURVE SMOOTH",
"114 662 OFFCURVE",
"15 513 OFFCURVE",
"15 318 CURVE SMOOTH",
"15 123 OFFCURVE",
"130 -15 OFFCURVE",
"368 -15 CURVE SMOOTH"
);
}
);
width = 614;
}
);
leftKerningGroup = C;
note = C;
unicode = 0043;
},
{
glyphname = Cacute;
lastChange = "2015-08-01 07:38:51 +0000";
layers = (
{
layerId = "933D8F18-C226-4057-AED3-19590AE810D9";
name = Bold;
paths = (
{
closed = 1;
nodes = (
"471 -15 OFFCURVE",
"524 -1 OFFCURVE",
"599 51 CURVE",
"538 149 LINE",
"484 112 OFFCURVE",
"438 102 OFFCURVE",
"378 102 CURVE SMOOTH",
"250 102 OFFCURVE",
"197 180 OFFCURVE",
"197 318 CURVE SMOOTH",
"197 459 OFFCURVE",
"246 545 OFFCURVE",
"347 545 CURVE SMOOTH",
"367 545 OFFCURVE",
"389 543 OFFCURVE",
"406 539 CURVE",
"406 460 LINE",
"591 460 LINE",
"591 598 LINE",
"529 643 OFFCURVE",
"459 662 OFFCURVE",
"347 662 CURVE SMOOTH",
"114 662 OFFCURVE",
"15 513 OFFCURVE",
"15 318 CURVE SMOOTH",
"15 123 OFFCURVE",
"130 -15 OFFCURVE",
"368 -15 CURVE SMOOTH"
);
},
{
closed = 1;
nodes = (
"403 697 LINE",
"515 879 LINE",
"319 879 LINE",
"248 697 LINE"
);
}
);
width = 614;
}
);
leftKerningGroup = C;
note = Cacute;
unicode = 0106;
},
{
glyphname = Ccaron;
lastChange = "2015-08-01 07:38:51 +0000";
layers = (
{
layerId = "933D8F18-C226-4057-AED3-19590AE810D9";
name = Bold;
paths = (
{
closed = 1;
nodes = (
"471 -15 OFFCURVE",
"524 -1 OFFCURVE",
"599 51 CURVE",
"538 149 LINE",
"484 112 OFFCURVE",
"438 102 OFFCURVE",
"378 102 CURVE SMOOTH",
"250 102 OFFCURVE",
"197 180 OFFCURVE",
"197 318 CURVE SMOOTH",
"197 459 OFFCURVE",
"246 545 OFFCURVE",
"347 545 CURVE SMOOTH",
"367 545 OFFCURVE",
"389 543 OFFCURVE",
"406 539 CURVE",
"406 460 LINE",
"591 460 LINE",
"591 598 LINE",
"529 643 OFFCURVE",
"459 662 OFFCURVE",
"347 662 CURVE SMOOTH",
"114 662 OFFCURVE",
"15 513 OFFCURVE",
"15 318 CURVE SMOOTH",
"15 123 OFFCURVE",
"130 -15 OFFCURVE",
"368 -15 CURVE SMOOTH"
);
},
{
closed = 1;
nodes = (
"427 697 LINE",
"567 901 LINE",
"404 901 LINE",
"349 793 LINE",
"292 901 LINE",
"132 901 LINE",
"273 697 LINE"
);
}
);
width = 614;
}
);
leftKerningGroup = C;
note = Ccaron;
unicode = 010C;
},
{
glyphname = Ccedilla;
lastChange = "2015-08-01 07:38:51 +0000";
layers = (
{
layerId = "933D8F18-C226-4057-AED3-19590AE810D9";
name = Bold;
paths = (
{
closed = 1;
nodes = (
"471 -15 OFFCURVE",
"524 -1 OFFCURVE",
"599 51 CURVE",
"538 149 LINE",
"484 112 OFFCURVE",
"438 102 OFFCURVE",
"378 102 CURVE SMOOTH",
"250 102 OFFCURVE",
"197 180 OFFCURVE",
"197 318 CURVE SMOOTH",
"197 459 OFFCURVE",
"246 545 OFFCURVE",
"347 545 CURVE SMOOTH",
"367 545 OFFCURVE",
"389 543 OFFCURVE",
"406 539 CURVE",
"406 460 LINE",
"591 460 LINE",
"591 598 LINE",
"529 643 OFFCURVE",
"459 662 OFFCURVE",
"347 662 CURVE SMOOTH",
"114 662 OFFCURVE",
"15 513 OFFCURVE",
"15 318 CURVE SMOOTH",
"15 123 OFFCURVE",
"130 -15 OFFCURVE",
"368 -15 CURVE SMOOTH"
);
},
{
closed = 1;
nodes = (
"451 -228 OFFCURVE",
"497 -187 OFFCURVE",
"497 -123 CURVE SMOOTH",
"497 -75 OFFCURVE",
"473 -47 OFFCURVE",
"423 -36 CURVE",
"429 0 LINE",
"259 0 LINE",
"248 -77 LINE",
"322 -77 OFFCURVE",
"339 -90 OFFCURVE",
"339 -114 CURVE SMOOTH",
"339 -125 OFFCURVE",
"332 -133 OFFCURVE",
"308 -133 CURVE SMOOTH",
"288 -133 OFFCURVE",
"254 -129 OFFCURVE",
"224 -113 CURVE",
"224 -208 LINE",
"259 -224 OFFCURVE",
"289 -228 OFFCURVE",
"331 -228 CURVE SMOOTH"
);
}
);
width = 614;
}
);
leftKerningGroup = C;
note = Ccedilla;
unicode = 00C7;
},
{
glyphname = Ccircumflex;
lastChange = "2015-08-01 07:38:50 +0000";
layers = (
{
layerId = "933D8F18-C226-4057-AED3-19590AE810D9";
name = Bold;
paths = (
{
closed = 1;
nodes = (
"471 -15 OFFCURVE",
"524 -1 OFFCURVE",
"599 51 CURVE",
"538 149 LINE",
"484 112 OFFCURVE",
"438 102 OFFCURVE",
"378 102 CURVE SMOOTH",
"250 102 OFFCURVE",
"197 180 OFFCURVE",
"197 318 CURVE SMOOTH",
"197 459 OFFCURVE",
"246 545 OFFCURVE",
"347 545 CURVE SMOOTH",
"367 545 OFFCURVE",
"389 543 OFFCURVE",
"406 539 CURVE",
"406 460 LINE",
"591 460 LINE",
"591 598 LINE",
"529 643 OFFCURVE",
"459 662 OFFCURVE",
"347 662 CURVE SMOOTH",
"114 662 OFFCURVE",
"15 513 OFFCURVE",
"15 318 CURVE SMOOTH",
"15 123 OFFCURVE",
"130 -15 OFFCURVE",
"368 -15 CURVE SMOOTH"
);
},
{
closed = 1;
nodes = (
"291 697 LINE",
"348 804 LINE",
"403 697 LINE",
"566 697 LINE",
"426 900 LINE",
"272 900 LINE",
"131 697 LINE"
);
}
);
width = 614;
}
);
leftKerningGroup = C;
note = Ccircumflex;
unicode = 0108;
},
{
glyphname = Cdotaccent;
lastChange = "2015-08-01 07:38:51 +0000";
layers = (
{
layerId = "933D8F18-C226-4057-AED3-19590AE810D9";
name = Bold;
paths = (
{
closed = 1;
nodes = (
"471 -15 OFFCURVE",
"524 -1 OFFCURVE",
"599 51 CURVE",
"538 149 LINE",
"484 112 OFFCURVE",
"438 102 OFFCURVE",
"378 102 CURVE SMOOTH",
"250 102 OFFCURVE",
"197 180 OFFCURVE",
"197 318 CURVE SMOOTH",
"197 459 OFFCURVE",
"246 545 OFFCURVE",
"347 545 CURVE SMOOTH",
"367 545 OFFCURVE",
"389 543 OFFCURVE",
"406 539 CURVE",
"406 460 LINE",
"591 460 LINE",
"591 598 LINE",
"529 643 OFFCURVE",
"459 662 OFFCURVE",
"347 662 CURVE SMOOTH",
"114 662 OFFCURVE",
"15 513 OFFCURVE",
"15 318 CURVE SMOOTH",
"15 123 OFFCURVE",
"130 -15 OFFCURVE",
"368 -15 CURVE SMOOTH"
);
},
{
closed = 1;
nodes = (
"419 717 LINE",
"419 854 LINE",
"289 854 LINE",
"289 717 LINE"
);
}
);
width = 614;
}
);
leftKerningGroup = C;
note = Cdotaccent;
unicode = 010A;
},
{
glyphname = D;
lastChange = "2015-08-01 07:38:50 +0000";
layers = (
{
layerId = "933D8F18-C226-4057-AED3-19590AE810D9";
name = Bold;
paths = (
{
closed = 1;
nodes = (
"339 0 LINE SMOOTH",
"532 0 OFFCURVE",
"625 144 OFFCURVE",
"625 321 CURVE SMOOTH",
"625 532 OFFCURVE",
"532 647 OFFCURVE",
"339 647 CURVE SMOOTH",
"15 647 LINE",
"15 530 LINE",
"36 530 LINE SMOOTH",
"64 530 OFFCURVE",
"77 516 OFFCURVE",
"77 493 CURVE SMOOTH",
"77 156 LINE SMOOTH",
"77 129 OFFCURVE",
"64 116 OFFCURVE",
"36 116 CURVE SMOOTH",
"15 116 LINE",
"15 0 LINE"
);
},
{
closed = 1;
nodes = (
"262 531 LINE",
"311 531 LINE SMOOTH",
"414 531 OFFCURVE",
"442 456 OFFCURVE",
"442 321 CURVE SMOOTH",
"442 190 OFFCURVE",
"414 116 OFFCURVE",
"311 116 CURVE SMOOTH",
"262 116 LINE"
);
}
);
width = 640;
}
);
note = D;
rightKerningGroup = D;
unicode = 0044;
},
{
glyphname = Eth;
lastChange = "2015-08-01 07:38:50 +0000";
layers = (
{
layerId = "933D8F18-C226-4057-AED3-19590AE810D9";
name = Bold;
paths = (
{
closed = 1;
nodes = (
"339 0 LINE SMOOTH",
"532 0 OFFCURVE",
"625 144 OFFCURVE",
"625 321 CURVE SMOOTH",
"625 532 OFFCURVE",
"532 647 OFFCURVE",
"339 647 CURVE SMOOTH",
"15 647 LINE",
"15 530 LINE",
"36 530 LINE SMOOTH",
"64 530 OFFCURVE",
"77 516 OFFCURVE",
"77 493 CURVE SMOOTH",
"77 380 LINE",
"15 380 LINE",
"15 263 LINE",
"77 263 LINE",
"77 156 LINE SMOOTH",
"77 129 OFFCURVE",
"64 116 OFFCURVE",
"36 116 CURVE SMOOTH",
"15 116 LINE",
"15 0 LINE"
);
},
{
closed = 1;
nodes = (
"262 263 LINE",
"365 263 LINE",
"365 380 LINE",
"262 380 LINE",
"262 531 LINE",
"311 531 LINE SMOOTH",
"414 531 OFFCURVE",
"442 456 OFFCURVE",
"442 321 CURVE SMOOTH",
"442 190 OFFCURVE",
"414 116 OFFCURVE",
"311 116 CURVE SMOOTH",
"262 116 LINE"
);
}
);
width = 640;
}
);
note = Eth;
rightKerningGroup = D;
unicode = 00D0;
},
{
glyphname = Dcaron;
lastChange = "2015-08-01 07:38:50 +0000";
layers = (
{
layerId = "933D8F18-C226-4057-AED3-19590AE810D9";
name = Bold;
paths = (
{
closed = 1;
nodes = (
"339 0 LINE SMOOTH",
"532 0 OFFCURVE",
"625 144 OFFCURVE",
"625 321 CURVE SMOOTH",
"625 532 OFFCURVE",
"532 647 OFFCURVE",
"339 647 CURVE SMOOTH",
"15 647 LINE",
"15 530 LINE",
"36 530 LINE SMOOTH",
"64 530 OFFCURVE",
"77 516 OFFCURVE",
"77 493 CURVE SMOOTH",
"77 156 LINE SMOOTH",
"77 129 OFFCURVE",
"64 116 OFFCURVE",
"36 116 CURVE SMOOTH",
"15 116 LINE",
"15 0 LINE"
);
},
{
closed = 1;
nodes = (
"262 531 LINE",
"311 531 LINE SMOOTH",
"414 531 OFFCURVE",
"442 456 OFFCURVE",
"442 321 CURVE SMOOTH",
"442 190 OFFCURVE",
"414 116 OFFCURVE",
"311 116 CURVE SMOOTH",
"262 116 LINE"
);
},
{
closed = 1;
nodes = (
"365 697 LINE",
"505 901 LINE",
"342 901 LINE",
"287 793 LINE",
"230 901 LINE",
"70 901 LINE",
"211 697 LINE"
);
}
);
width = 640;
}
);
note = Dcaron;
rightKerningGroup = D;
unicode = 010E;
},
{
glyphname = Dcroat;
lastChange = "2015-08-01 07:38:50 +0000";
layers = (
{
layerId = "933D8F18-C226-4057-AED3-19590AE810D9";
name = Bold;
paths = (
{
closed = 1;
nodes = (
"339 0 LINE SMOOTH",
"532 0 OFFCURVE",
"625 144 OFFCURVE",
"625 321 CURVE SMOOTH",
"625 532 OFFCURVE",
"532 647 OFFCURVE",
"339 647 CURVE SMOOTH",
"15 647 LINE",
"15 530 LINE",
"36 530 LINE SMOOTH",
"64 530 OFFCURVE",
"77 516 OFFCURVE",
"77 493 CURVE SMOOTH",
"77 380 LINE",
"15 380 LINE",
"15 263 LINE",
"77 263 LINE",
"77 156 LINE SMOOTH",
"77 129 OFFCURVE",
"64 116 OFFCURVE",
"36 116 CURVE SMOOTH",
"15 116 LINE",
"15 0 LINE"
);
},
{
closed = 1;
nodes = (
"262 263 LINE",
"365 263 LINE",
"365 380 LINE",
"262 380 LINE",
"262 531 LINE",
"311 531 LINE SMOOTH",
"414 531 OFFCURVE",
"442 456 OFFCURVE",
"442 321 CURVE SMOOTH",
"442 190 OFFCURVE",
"414 116 OFFCURVE",
"311 116 CURVE SMOOTH",
"262 116 LINE"
);
}
);
width = 640;
}
);
note = Dcroat;
rightKerningGroup = D;
unicode = 0110;
},
{
glyphname = Ddotbelow;
lastChange = "2015-11-24 06:04:55 +0000";
layers = (
{
layerId = "933D8F18-C226-4057-AED3-19590AE810D9";
name = Bold;
paths = (
{
closed = 1;
nodes = (
"339 0 LINE SMOOTH",
"532 0 OFFCURVE",
"625 144 OFFCURVE",
"625 321 CURVE SMOOTH",
"625 532 OFFCURVE",
"532 647 OFFCURVE",
"339 647 CURVE SMOOTH",
"15 647 LINE",
"15 530 LINE",
"36 530 LINE SMOOTH",
"64 530 OFFCURVE",
"77 516 OFFCURVE",
"77 493 CURVE SMOOTH",
"77 156 LINE SMOOTH",
"77 129 OFFCURVE",
"64 116 OFFCURVE",
"36 116 CURVE SMOOTH",
"15 116 LINE",
"15 0 LINE"
);
},
{
closed = 1;
nodes = (
"262 531 LINE",
"311 531 LINE SMOOTH",
"414 531 OFFCURVE",
"442 456 OFFCURVE",
"442 321 CURVE SMOOTH",
"442 190 OFFCURVE",
"414 116 OFFCURVE",
"311 116 CURVE SMOOTH",
"262 116 LINE"
);
},
{
closed = 1;
nodes = (
"344 -197 LINE",
"344 -60 LINE",
"215 -60 LINE",
"215 -197 LINE"
);
}
);
width = 640;
}
);
note = Ddotbelow;
rightKerningGroup = D;
unicode = 1E0C;
},
{
glyphname = Dlinebelow;
lastChange = "2015-11-24 06:04:59 +0000";
layers = (
{
layerId = "933D8F18-C226-4057-AED3-19590AE810D9";
name = Bold;
paths = (
{
closed = 1;
nodes = (
"339 0 LINE SMOOTH",
"532 0 OFFCURVE",
"625 144 OFFCURVE",
"625 321 CURVE SMOOTH",
"625 532 OFFCURVE",
"532 647 OFFCURVE",
"339 647 CURVE SMOOTH",
"15 647 LINE",
"15 530 LINE",
"36 530 LINE SMOOTH",
"64 530 OFFCURVE",
"77 516 OFFCURVE",
"77 493 CURVE SMOOTH",
"77 156 LINE SMOOTH",
"77 129 OFFCURVE",
"64 116 OFFCURVE",
"36 116 CURVE SMOOTH",
"15 116 LINE",
"15 0 LINE"
);
},
{
closed = 1;
nodes = (
"262 531 LINE",
"311 531 LINE SMOOTH",
"414 531 OFFCURVE",
"442 456 OFFCURVE",
"442 321 CURVE SMOOTH",
"442 190 OFFCURVE",
"414 116 OFFCURVE",
"311 116 CURVE SMOOTH",
"262 116 LINE"
);
},
{
closed = 1;
nodes = (
"438 -149 LINE",
"438 -44 LINE",
"121 -44 LINE",
"121 -149 LINE"
);
}
);
width = 640;
}
);
note = Dlinebelow;
rightKerningGroup = D;
unicode = 1E0E;
},
{
glyphname = E;
lastChange = "2015-07-31 14:10:13 +0000";
layers = (
{
layerId = "933D8F18-C226-4057-AED3-19590AE810D9";
name = Bold;
paths = (
{
closed = 1;
nodes = (
"533 0 LINE",
"533 168 LINE",
"365 168 LINE",
"365 156 LINE SMOOTH",
"365 129 OFFCURVE",
"352 116 OFFCURVE",
"324 116 CURVE SMOOTH",
"262 116 LINE",
"262 265 LINE",
"377 265 LINE",
"377 381 LINE",
"262 381 LINE",
"262 531 LINE",
"324 531 LINE SMOOTH",
"352 531 OFFCURVE",
"365 518 OFFCURVE",
"365 492 CURVE SMOOTH",
"365 479 LINE",
"533 479 LINE",
"533 647 LINE",
"15 647 LINE",
"15 530 LINE",
"36 530 LINE SMOOTH",
"64 530 OFFCURVE",
"77 516 OFFCURVE",
"77 493 CURVE SMOOTH",
"77 156 LINE SMOOTH",
"77 129 OFFCURVE",
"64 116 OFFCURVE",
"36 116 CURVE SMOOTH",
"15 116 LINE",
"15 0 LINE"
);
}
);
width = 548;
}
);
note = E;
unicode = 0045;
},
{
glyphname = Eacute;
lastChange = "2015-07-31 14:10:16 +0000";
layers = (
{
layerId = "933D8F18-C226-4057-AED3-19590AE810D9";
name = Bold;
paths = (
{
closed = 1;
nodes = (
"533 0 LINE",
"533 168 LINE",
"365 168 LINE",
"365 156 LINE SMOOTH",
"365 129 OFFCURVE",
"352 116 OFFCURVE",
"324 116 CURVE SMOOTH",
"262 116 LINE",
"262 265 LINE",
"377 265 LINE",
"377 381 LINE",
"262 381 LINE",
"262 531 LINE",
"324 531 LINE SMOOTH",
"352 531 OFFCURVE",
"365 518 OFFCURVE",
"365 492 CURVE SMOOTH",
"365 479 LINE",
"533 479 LINE",
"533 647 LINE",
"15 647 LINE",
"15 530 LINE",
"36 530 LINE SMOOTH",
"64 530 OFFCURVE",
"77 516 OFFCURVE",
"77 493 CURVE SMOOTH",
"77 156 LINE SMOOTH",
"77 129 OFFCURVE",
"64 116 OFFCURVE",
"36 116 CURVE SMOOTH",
"15 116 LINE",
"15 0 LINE"
);
},
{
closed = 1;
nodes = (
"331 697 LINE",
"443 879 LINE",
"247 879 LINE",
"176 697 LINE"
);
}
);
width = 548;
}
);
note = Eacute;
unicode = 00C9;
},
{
glyphname = Ebreve;
lastChange = "2015-07-31 14:10:16 +0000";
layers = (
{
layerId = "933D8F18-C226-4057-AED3-19590AE810D9";
name = Bold;
paths = (
{
closed = 1;
nodes = (
"533 0 LINE",
"533 168 LINE",
"365 168 LINE",
"365 156 LINE SMOOTH",
"365 129 OFFCURVE",
"352 116 OFFCURVE",
"324 116 CURVE SMOOTH",
"262 116 LINE",
"262 265 LINE",
"377 265 LINE",
"377 381 LINE",
"262 381 LINE",
"262 531 LINE",
"324 531 LINE SMOOTH",
"352 531 OFFCURVE",
"365 518 OFFCURVE",
"365 492 CURVE SMOOTH",
"365 479 LINE",
"533 479 LINE",
"533 647 LINE",
"15 647 LINE",
"15 530 LINE",
"36 530 LINE SMOOTH",
"64 530 OFFCURVE",
"77 516 OFFCURVE",
"77 493 CURVE SMOOTH",
"77 156 LINE SMOOTH",
"77 129 OFFCURVE",
"64 116 OFFCURVE",
"36 116 CURVE SMOOTH",
"15 116 LINE",
"15 0 LINE"
);
},
{
closed = 1;
nodes = (
"395 697 OFFCURVE",
"460 763 OFFCURVE",
"460 860 CURVE",
"307 860 LINE",
"307 826 OFFCURVE",
"303 804 OFFCURVE",
"272 804 CURVE SMOOTH",
"245 804 OFFCURVE",
"237 826 OFFCURVE",
"237 860 CURVE",
"84 860 LINE",
"84 763 OFFCURVE",
"149 697 OFFCURVE",
"272 697 CURVE SMOOTH"
);
}
);
width = 548;
}
);
note = Ebreve;
unicode = 0114;
},
{
glyphname = Ecaron;
lastChange = "2015-07-31 14:10:16 +0000";
layers = (
{
layerId = "933D8F18-C226-4057-AED3-19590AE810D9";
name = Bold;
paths = (
{
closed = 1;
nodes = (
"533 0 LINE",
"533 168 LINE",
"365 168 LINE",
"365 156 LINE SMOOTH",
"365 129 OFFCURVE",
"352 116 OFFCURVE",
"324 116 CURVE SMOOTH",
"262 116 LINE",
"262 265 LINE",
"377 265 LINE",
"377 381 LINE",
"262 381 LINE",
"262 531 LINE",
"324 531 LINE SMOOTH",
"352 531 OFFCURVE",
"365 518 OFFCURVE",
"365 492 CURVE SMOOTH",
"365 479 LINE",
"533 479 LINE",
"533 647 LINE",
"15 647 LINE",
"15 530 LINE",
"36 530 LINE SMOOTH",
"64 530 OFFCURVE",
"77 516 OFFCURVE",
"77 493 CURVE SMOOTH",
"77 156 LINE SMOOTH",
"77 129 OFFCURVE",
"64 116 OFFCURVE",
"36 116 CURVE SMOOTH",
"15 116 LINE",
"15 0 LINE"
);
},
{
closed = 1;
nodes = (
"349 697 LINE",
"489 901 LINE",
"326 901 LINE",
"271 793 LINE",
"214 901 LINE",
"54 901 LINE",
"195 697 LINE"
);
}
);
width = 548;
}
);
note = Ecaron;
unicode = 011A;
},
{
glyphname = Ecircumflex;
lastChange = "2015-07-31 14:10:15 +0000";
layers = (
{
layerId = "933D8F18-C226-4057-AED3-19590AE810D9";
name = Bold;
paths = (
{
closed = 1;
nodes = (
"533 0 LINE",
"533 168 LINE",
"365 168 LINE",
"365 156 LINE SMOOTH",
"365 129 OFFCURVE",
"352 116 OFFCURVE",
"324 116 CURVE SMOOTH",
"262 116 LINE",
"262 265 LINE",
"377 265 LINE",
"377 381 LINE",
"262 381 LINE",
"262 531 LINE",
"324 531 LINE SMOOTH",
"352 531 OFFCURVE",
"365 518 OFFCURVE",
"365 492 CURVE SMOOTH",
"365 479 LINE",
"533 479 LINE",
"533 647 LINE",
"15 647 LINE",
"15 530 LINE",
"36 530 LINE SMOOTH",
"64 530 OFFCURVE",
"77 516 OFFCURVE",
"77 493 CURVE SMOOTH",
"77 156 LINE SMOOTH",
"77 129 OFFCURVE",
"64 116 OFFCURVE",
"36 116 CURVE SMOOTH",
"15 116 LINE",
"15 0 LINE"
);
},
{
closed = 1;
nodes = (
"195 697 LINE",
"252 804 LINE",
"307 697 LINE",
"470 697 LINE",
"330 900 LINE",
"176 900 LINE",
"35 697 LINE"
);
}
);
width = 548;
}
);
note = Ecircumflex;
unicode = 00CA;
},
{
glyphname = Ecircumflexacute;
lastChange = "2015-11-24 06:05:10 +0000";
layers = (
{
layerId = "933D8F18-C226-4057-AED3-19590AE810D9";
name = Bold;
paths = (
{
closed = 1;
nodes = (
"533 0 LINE",
"533 168 LINE",
"365 168 LINE",
"365 156 LINE SMOOTH",
"365 129 OFFCURVE",
"352 116 OFFCURVE",
"324 116 CURVE SMOOTH",
"262 116 LINE",
"262 265 LINE",
"377 265 LINE",
"377 381 LINE",
"262 381 LINE",
"262 531 LINE",
"324 531 LINE SMOOTH",
"352 531 OFFCURVE",
"365 518 OFFCURVE",
"365 492 CURVE SMOOTH",
"365 479 LINE",
"533 479 LINE",
"533 647 LINE",
"15 647 LINE",
"15 530 LINE",
"36 530 LINE SMOOTH",
"64 530 OFFCURVE",
"77 516 OFFCURVE",
"77 493 CURVE SMOOTH",
"77 156 LINE SMOOTH",
"77 129 OFFCURVE",
"64 116 OFFCURVE",
"36 116 CURVE SMOOTH",
"15 116 LINE",
"15 0 LINE"
);
},
{
closed = 1;
nodes = (
"215 697 LINE",
"260 761 LINE",
"300 697 LINE",
"450 697 LINE",
"333 843 LINE",
"186 843 LINE",
"68 697 LINE"
);
},
{
closed = 1;
nodes = (
"496 812 LINE",
"600 958 LINE",
"435 958 LINE",
"372 812 LINE"
);
}
);
width = 548;
}
);
note = Ecircumflexacute;
unicode = 1EBE;
},
{
glyphname = Ecircumflexdotbelow;
lastChange = "2015-07-31 14:10:16 +0000";
layers = (
{
layerId = "933D8F18-C226-4057-AED3-19590AE810D9";
name = Bold;
paths = (
{
closed = 1;
nodes = (
"533 0 LINE",
"533 168 LINE",
"365 168 LINE",
"365 156 LINE SMOOTH",
"365 129 OFFCURVE",
"352 116 OFFCURVE",
"324 116 CURVE SMOOTH",
"262 116 LINE",
"262 265 LINE",
"377 265 LINE",
"377 381 LINE",
"262 381 LINE",
"262 531 LINE",
"324 531 LINE SMOOTH",
"352 531 OFFCURVE",
"365 518 OFFCURVE",
"365 492 CURVE SMOOTH",
"365 479 LINE",
"533 479 LINE",
"533 647 LINE",
"15 647 LINE",
"15 530 LINE",
"36 530 LINE SMOOTH",
"64 530 OFFCURVE",
"77 516 OFFCURVE",
"77 493 CURVE SMOOTH",
"77 156 LINE SMOOTH",
"77 129 OFFCURVE",
"64 116 OFFCURVE",
"36 116 CURVE SMOOTH",
"15 116 LINE",
"15 0 LINE"
);
},
{
closed = 1;
nodes = (
"351 -197 LINE",
"351 -60 LINE",
"222 -60 LINE",
"222 -197 LINE"
);
},
{
closed = 1;
nodes = (
"227 697 LINE",
"284 804 LINE",
"339 697 LINE",
"502 697 LINE",
"362 900 LINE",
"208 900 LINE",
"67 697 LINE"
);
}
);
width = 548;
}
);
note = Ecircumflexdotbelow;
unicode = 1EC6;
},
{
glyphname = Ecircumflexgrave;
lastChange = "2015-11-24 06:05:23 +0000";
layers = (
{
layerId = "933D8F18-C226-4057-AED3-19590AE810D9";
name = Bold;
paths = (
{
closed = 1;
nodes = (
"533 0 LINE",
"533 168 LINE",
"365 168 LINE",
"365 156 LINE SMOOTH",
"365 129 OFFCURVE",
"352 116 OFFCURVE",
"324 116 CURVE SMOOTH",
"262 116 LINE",
"262 265 LINE",
"377 265 LINE",
"377 381 LINE",
"262 381 LINE",
"262 531 LINE",
"324 531 LINE SMOOTH",
"352 531 OFFCURVE",
"365 518 OFFCURVE",
"365 492 CURVE SMOOTH",
"365 479 LINE",
"533 479 LINE",
"533 647 LINE",
"15 647 LINE",
"15 530 LINE",
"36 530 LINE SMOOTH",
"64 530 OFFCURVE",
"77 516 OFFCURVE",
"77 493 CURVE SMOOTH",
"77 156 LINE SMOOTH",
"77 129 OFFCURVE",
"64 116 OFFCURVE",
"36 116 CURVE SMOOTH",
"15 116 LINE",
"15 0 LINE"
);
},
{
closed = 1;
nodes = (
"229 697 LINE",
"269 761 LINE",
"314 697 LINE",
"461 697 LINE",
"343 843 LINE",
"196 843 LINE",
"79 697 LINE"
);
},
{
closed = 1;
nodes = (
"133 812 LINE",
"70 958 LINE",
"-95 958 LINE",
"9 812 LINE"
);
}
);
width = 548;
}
);
note = Ecircumflexgrave;
unicode = 1EC0;
},
{
glyphname = Ecircumflexhookabove;
lastChange = "2015-07-31 14:10:15 +0000";
layers = (
{
layerId = "933D8F18-C226-4057-AED3-19590AE810D9";
name = Bold;
paths = (
{
closed = 1;
nodes = (
"533 0 LINE",
"533 168 LINE",
"365 168 LINE",
"365 156 LINE SMOOTH",
"365 129 OFFCURVE",
"352 116 OFFCURVE",
"324 116 CURVE SMOOTH",
"262 116 LINE",
"262 265 LINE",
"377 265 LINE",
"377 381 LINE",
"262 381 LINE",
"262 531 LINE",
"324 531 LINE SMOOTH",
"352 531 OFFCURVE",
"365 518 OFFCURVE",
"365 492 CURVE SMOOTH",
"365 479 LINE",
"533 479 LINE",
"533 647 LINE",
"15 647 LINE",
"15 530 LINE",
"36 530 LINE SMOOTH",
"64 530 OFFCURVE",
"77 516 OFFCURVE",
"77 493 CURVE SMOOTH",
"77 156 LINE SMOOTH",
"77 129 OFFCURVE",
"64 116 OFFCURVE",
"36 116 CURVE SMOOTH",
"15 116 LINE",
"15 0 LINE"
);
},
{
closed = 1;
nodes = (
"214 697 LINE",
"254 761 LINE",
"299 697 LINE",
"446 697 LINE",
"328 843 LINE",
"181 843 LINE",
"64 697 LINE"
);
},
{
closed = 1;
nodes = (
"455 841 LINE",
"455 864 LINE",
"483 875 OFFCURVE",
"496 895 OFFCURVE",
"496 924 CURVE SMOOTH",
"496 970 OFFCURVE",
"460 990 OFFCURVE",
"394 990 CURVE SMOOTH",
"362 990 OFFCURVE",
"338 986 OFFCURVE",
"322 980 CURVE",
"322 916 LINE",
"331 920 OFFCURVE",
"342 923 OFFCURVE",
"353 923 CURVE SMOOTH",
"370 923 OFFCURVE",
"379 915 OFFCURVE",
"379 903 CURVE SMOOTH",
"379 890 OFFCURVE",
"370 879 OFFCURVE",
"343 879 CURVE",
"343 841 LINE"
);
}
);
width = 548;
}
);
note = Ecircumflexhookabove;
unicode = 1EC2;
},
{
glyphname = Ecircumflextilde;
lastChange = "2015-07-31 14:10:15 +0000";
layers = (
{
layerId = "933D8F18-C226-4057-AED3-19590AE810D9";
name = Bold;
paths = (
{
closed = 1;
nodes = (
"533 0 LINE",
"533 168 LINE",
"365 168 LINE",
"365 156 LINE SMOOTH",
"365 129 OFFCURVE",
"352 116 OFFCURVE",
"324 116 CURVE SMOOTH",
"262 116 LINE",
"262 265 LINE",
"377 265 LINE",
"377 381 LINE",
"262 381 LINE",
"262 531 LINE",
"324 531 LINE SMOOTH",
"352 531 OFFCURVE",
"365 518 OFFCURVE",
"365 492 CURVE SMOOTH",
"365 479 LINE",
"533 479 LINE",
"533 647 LINE",
"15 647 LINE",
"15 530 LINE",
"36 530 LINE SMOOTH",
"64 530 OFFCURVE",
"77 516 OFFCURVE",
"77 493 CURVE SMOOTH",
"77 156 LINE SMOOTH",
"77 129 OFFCURVE",
"64 116 OFFCURVE",
"36 116 CURVE SMOOTH",
"15 116 LINE",
"15 0 LINE"
);
},
{
closed = 1;
nodes = (
"226 697 LINE",
"266 761 LINE",
"311 697 LINE",
"458 697 LINE",
"340 843 LINE",
"193 843 LINE",
"76 697 LINE"
);
},
{
closed = 1;
nodes = (
"405 855 OFFCURVE",
"424 894 OFFCURVE",
"424 959 CURVE",
"347 959 LINE",
"347 940 OFFCURVE",
"338 932 OFFCURVE",
"316 932 CURVE SMOOTH",
"286 932 OFFCURVE",
"258 964 OFFCURVE",
"203 964 CURVE SMOOTH",
"136 964 OFFCURVE",
"110 927 OFFCURVE",
"110 860 CURVE",
"187 860 LINE",
"187 880 OFFCURVE",
"198 887 OFFCURVE",
"218 887 CURVE SMOOTH",
"247 887 OFFCURVE",
"293 855 OFFCURVE",
"338 855 CURVE SMOOTH"
);
}
);
width = 548;
}
);
note = Ecircumflextilde;
unicode = 1EC4;
},
{
glyphname = Edieresis;
lastChange = "2015-07-31 14:10:15 +0000";
layers = (
{
layerId = "933D8F18-C226-4057-AED3-19590AE810D9";
name = Bold;
paths = (
{
closed = 1;
nodes = (
"533 0 LINE",
"533 168 LINE",
"365 168 LINE",
"365 156 LINE SMOOTH",
"365 129 OFFCURVE",
"352 116 OFFCURVE",
"324 116 CURVE SMOOTH",
"262 116 LINE",
"262 265 LINE",
"377 265 LINE",
"377 381 LINE",
"262 381 LINE",
"262 531 LINE",
"324 531 LINE SMOOTH",
"352 531 OFFCURVE",
"365 518 OFFCURVE",
"365 492 CURVE SMOOTH",
"365 479 LINE",
"533 479 LINE",
"533 647 LINE",
"15 647 LINE",
"15 530 LINE",
"36 530 LINE SMOOTH",
"64 530 OFFCURVE",
"77 516 OFFCURVE",
"77 493 CURVE SMOOTH",
"77 156 LINE SMOOTH",
"77 129 OFFCURVE",
"64 116 OFFCURVE",
"36 116 CURVE SMOOTH",
"15 116 LINE",
"15 0 LINE"
);
},
{
closed = 1;
nodes = (
"193 717 LINE",
"193 854 LINE",
"65 854 LINE",
"65 717 LINE"
);
},
{
closed = 1;
nodes = (
"444 717 LINE",
"444 854 LINE",
"315 854 LINE",
"315 717 LINE"
);
}
);
width = 548;
}
);
note = Edieresis;
unicode = 00CB;
},
{
glyphname = Edotaccent;
lastChange = "2015-07-31 14:10:15 +0000";
layers = (
{
layerId = "933D8F18-C226-4057-AED3-19590AE810D9";
name = Bold;
paths = (
{
closed = 1;
nodes = (
"533 0 LINE",
"533 168 LINE",
"365 168 LINE",
"365 156 LINE SMOOTH",
"365 129 OFFCURVE",
"352 116 OFFCURVE",
"324 116 CURVE SMOOTH",
"262 116 LINE",
"262 265 LINE",
"377 265 LINE",
"377 381 LINE",
"262 381 LINE",
"262 531 LINE",
"324 531 LINE SMOOTH",
"352 531 OFFCURVE",
"365 518 OFFCURVE",
"365 492 CURVE SMOOTH",
"365 479 LINE",
"533 479 LINE",
"533 647 LINE",
"15 647 LINE",
"15 530 LINE",
"36 530 LINE SMOOTH",
"64 530 OFFCURVE",
"77 516 OFFCURVE",
"77 493 CURVE SMOOTH",
"77 156 LINE SMOOTH",
"77 129 OFFCURVE",
"64 116 OFFCURVE",
"36 116 CURVE SMOOTH",
"15 116 LINE",
"15 0 LINE"
);
},
{
closed = 1;
nodes = (
"327 717 LINE",
"327 854 LINE",
"197 854 LINE",
"197 717 LINE"
);
}
);
width = 548;
}
);
note = Edotaccent;
unicode = 0116;
},
{
glyphname = Edotbelow;
lastChange = "2015-07-31 14:10:16 +0000";
layers = (
{
layerId = "933D8F18-C226-4057-AED3-19590AE810D9";
name = Bold;
paths = (
{
closed = 1;
nodes = (
"533 0 LINE",
"533 168 LINE",
"365 168 LINE",
"365 156 LINE SMOOTH",
"365 129 OFFCURVE",
"352 116 OFFCURVE",
"324 116 CURVE SMOOTH",
"262 116 LINE",
"262 265 LINE",
"377 265 LINE",
"377 381 LINE",
"262 381 LINE",
"262 531 LINE",
"324 531 LINE SMOOTH",
"352 531 OFFCURVE",
"365 518 OFFCURVE",
"365 492 CURVE SMOOTH",
"365 479 LINE",
"533 479 LINE",
"533 647 LINE",
"15 647 LINE",
"15 530 LINE",
"36 530 LINE SMOOTH",
"64 530 OFFCURVE",
"77 516 OFFCURVE",
"77 493 CURVE SMOOTH",
"77 156 LINE SMOOTH",
"77 129 OFFCURVE",
"64 116 OFFCURVE",
"36 116 CURVE SMOOTH",
"15 116 LINE",
"15 0 LINE"
);
},
{
closed = 1;
nodes = (
"306 -197 LINE",
"306 -60 LINE",
"177 -60 LINE",
"177 -197 LINE"
);
}
);
width = 548;
}
);
note = Edotbelow;
unicode = 1EB8;
},
{
glyphname = Egrave;
lastChange = "2015-07-31 14:10:15 +0000";
layers = (
{
layerId = "933D8F18-C226-4057-AED3-19590AE810D9";
name = Bold;
paths = (
{
closed = 1;
nodes = (
"533 0 LINE",
"533 168 LINE",
"365 168 LINE",
"365 156 LINE SMOOTH",
"365 129 OFFCURVE",
"352 116 OFFCURVE",
"324 116 CURVE SMOOTH",
"262 116 LINE",
"262 265 LINE",
"377 265 LINE",
"377 381 LINE",
"262 381 LINE",
"262 531 LINE",
"324 531 LINE SMOOTH",
"352 531 OFFCURVE",
"365 518 OFFCURVE",
"365 492 CURVE SMOOTH",
"365 479 LINE",
"533 479 LINE",
"533 647 LINE",
"15 647 LINE",
"15 530 LINE",
"36 530 LINE SMOOTH",
"64 530 OFFCURVE",
"77 516 OFFCURVE",
"77 493 CURVE SMOOTH",
"77 156 LINE SMOOTH",
"77 129 OFFCURVE",
"64 116 OFFCURVE",
"36 116 CURVE SMOOTH",
"15 116 LINE",
"15 0 LINE"
);
},
{
closed = 1;
nodes = (
"356 697 LINE",
"284 879 LINE",
"88 879 LINE",
"200 697 LINE"
);
}
);
width = 548;
}
);
note = Egrave;
unicode = 00C8;
},
{
glyphname = Ehookabove;
lastChange = "2015-07-31 14:10:16 +0000";
layers = (
{
layerId = "933D8F18-C226-4057-AED3-19590AE810D9";
name = Bold;
paths = (
{
closed = 1;
nodes = (
"533 0 LINE",
"533 168 LINE",
"365 168 LINE",
"365 156 LINE SMOOTH",
"365 129 OFFCURVE",
"352 116 OFFCURVE",
"324 116 CURVE SMOOTH",
"262 116 LINE",
"262 265 LINE",
"377 265 LINE",
"377 381 LINE",
"262 381 LINE",
"262 531 LINE",
"324 531 LINE SMOOTH",
"352 531 OFFCURVE",
"365 518 OFFCURVE",
"365 492 CURVE SMOOTH",
"365 479 LINE",
"533 479 LINE",
"533 647 LINE",
"15 647 LINE",
"15 530 LINE",
"36 530 LINE SMOOTH",
"64 530 OFFCURVE",
"77 516 OFFCURVE",
"77 493 CURVE SMOOTH",
"77 156 LINE SMOOTH",
"77 129 OFFCURVE",
"64 116 OFFCURVE",
"36 116 CURVE SMOOTH",
"15 116 LINE",
"15 0 LINE"
);
},
{
closed = 1;
nodes = (
"359 697 LINE",
"359 740 LINE",
"397 756 OFFCURVE",
"414 782 OFFCURVE",
"414 822 CURVE SMOOTH",
"414 883 OFFCURVE",
"365 910 OFFCURVE",
"277 910 CURVE SMOOTH",
"235 910 OFFCURVE",
"202 904 OFFCURVE",
"180 897 CURVE",
"180 811 LINE",
"193 817 OFFCURVE",
"208 820 OFFCURVE",
"223 820 CURVE SMOOTH",
"245 820 OFFCURVE",
"256 809 OFFCURVE",
"256 793 CURVE SMOOTH",
"256 776 OFFCURVE",
"245 761 OFFCURVE",
"209 761 CURVE",
"209 697 LINE"
);
}
);
width = 548;
}
);
note = Ehookabove;
unicode = 1EBA;
},
{
glyphname = Emacron;
lastChange = "2015-07-31 14:10:16 +0000";
layers = (
{
layerId = "933D8F18-C226-4057-AED3-19590AE810D9";
name = Bold;
paths = (
{
closed = 1;
nodes = (
"533 0 LINE",
"533 168 LINE",
"365 168 LINE",
"365 156 LINE SMOOTH",
"365 129 OFFCURVE",
"352 116 OFFCURVE",
"324 116 CURVE SMOOTH",
"262 116 LINE",
"262 265 LINE",
"377 265 LINE",
"377 381 LINE",
"262 381 LINE",
"262 531 LINE",
"324 531 LINE SMOOTH",
"352 531 OFFCURVE",
"365 518 OFFCURVE",
"365 492 CURVE SMOOTH",
"365 479 LINE",
"533 479 LINE",
"533 647 LINE",
"15 647 LINE",
"15 530 LINE",
"36 530 LINE SMOOTH",
"64 530 OFFCURVE",
"77 516 OFFCURVE",
"77 493 CURVE SMOOTH",
"77 156 LINE SMOOTH",
"77 129 OFFCURVE",
"64 116 OFFCURVE",
"36 116 CURVE SMOOTH",
"15 116 LINE",
"15 0 LINE"
);
},
{
closed = 1;
nodes = (
"445 717 LINE",
"445 822 LINE",
"128 822 LINE",
"128 717 LINE"
);
}
);
width = 548;
}
);
note = Emacron;
unicode = 0112;
},
{
glyphname = Eogonek;
lastChange = "2015-07-31 14:10:15 +0000";
layers = (
{
layerId = "933D8F18-C226-4057-AED3-19590AE810D9";
name = Bold;
paths = (
{
closed = 1;
nodes = (
"533 0 LINE",
"533 168 LINE",
"365 168 LINE",
"365 156 LINE SMOOTH",
"365 129 OFFCURVE",
"352 116 OFFCURVE",
"324 116 CURVE SMOOTH",
"262 116 LINE",
"262 265 LINE",
"377 265 LINE",
"377 381 LINE",
"262 381 LINE",
"262 531 LINE",
"324 531 LINE SMOOTH",
"352 531 OFFCURVE",
"365 518 OFFCURVE",
"365 492 CURVE SMOOTH",
"365 479 LINE",
"533 479 LINE",
"533 647 LINE",
"15 647 LINE",
"15 530 LINE",
"36 530 LINE SMOOTH",
"64 530 OFFCURVE",
"77 516 OFFCURVE",
"77 493 CURVE SMOOTH",
"77 156 LINE SMOOTH",
"77 129 OFFCURVE",
"64 116 OFFCURVE",
"36 116 CURVE SMOOTH",
"15 116 LINE",
"15 0 LINE"
);
},
{
closed = 1;
nodes = (
"468 -221 OFFCURVE",
"498 -214 OFFCURVE",
"529 -190 CURVE",
"529 -92 LINE",
"520 -97 OFFCURVE",
"508 -100 OFFCURVE",
"497 -100 CURVE SMOOTH",
"478 -100 OFFCURVE",
"469 -86 OFFCURVE",
"469 -68 CURVE SMOOTH",
"469 -41 OFFCURVE",
"484 -23 OFFCURVE",
"517 0 CURVE",
"366 0 LINE",
"333 -23 OFFCURVE",
"311 -72 OFFCURVE",
"311 -118 CURVE SMOOTH",
"311 -192 OFFCURVE",
"365 -221 OFFCURVE",
"423 -221 CURVE SMOOTH"
);
}
);
width = 548;
}
);
note = Eogonek;
unicode = 0118;
},
{
glyphname = Etilde;
lastChange = "2015-07-31 14:10:16 +0000";
layers = (
{
layerId = "933D8F18-C226-4057-AED3-19590AE810D9";
name = Bold;
paths = (
{
closed = 1;
nodes = (
"533 0 LINE",
"533 168 LINE",
"365 168 LINE",
"365 156 LINE SMOOTH",
"365 129 OFFCURVE",
"352 116 OFFCURVE",
"324 116 CURVE SMOOTH",
"262 116 LINE",
"262 265 LINE",
"377 265 LINE",
"377 381 LINE",
"262 381 LINE",
"262 531 LINE",
"324 531 LINE SMOOTH",
"352 531 OFFCURVE",
"365 518 OFFCURVE",
"365 492 CURVE SMOOTH",
"365 479 LINE",
"533 479 LINE",
"533 647 LINE",
"15 647 LINE",
"15 530 LINE",
"36 530 LINE SMOOTH",
"64 530 OFFCURVE",
"77 516 OFFCURVE",
"77 493 CURVE SMOOTH",
"77 156 LINE SMOOTH",
"77 129 OFFCURVE",
"64 116 OFFCURVE",
"36 116 CURVE SMOOTH",
"15 116 LINE",
"15 0 LINE"
);
},
{
closed = 1;
nodes = (
"186 697 LINE",
"186 726 OFFCURVE",
"202 743 OFFCURVE",
"230 743 CURVE SMOOTH",
"272 743 OFFCURVE",
"303 697 OFFCURVE",
"381 697 CURVE SMOOTH",
"477 697 OFFCURVE",
"511 755 OFFCURVE",
"511 882 CURVE",
"386 882 LINE",
"386 854 OFFCURVE",
"373 836 OFFCURVE",
"343 836 CURVE SMOOTH",
"299 836 OFFCURVE",
"270 882 OFFCURVE",
"195 882 CURVE SMOOTH",
"99 882 OFFCURVE",
"61 821 OFFCURVE",
"61 697 CURVE"
);
}
);
width = 548;
}
);
note = Etilde;
unicode = 1EBC;
},
{
glyphname = F;
lastChange = "2015-07-31 14:10:13 +0000";
layers = (
{
layerId = "933D8F18-C226-4057-AED3-19590AE810D9";
name = Bold;
paths = (
{
closed = 1;
nodes = (
"323 0 LINE",
"323 116 LINE",
"302 116 LINE SMOOTH",
"274 116 OFFCURVE",
"262 130 OFFCURVE",
"262 153 CURVE SMOOTH",
"262 265 LINE",
"377 265 LINE",
"377 381 LINE",
"262 381 LINE",
"262 531 LINE",
"324 531 LINE SMOOTH",
"352 531 OFFCURVE",
"365 518 OFFCURVE",
"365 492 CURVE SMOOTH",
"365 479 LINE",
"533 479 LINE",
"533 647 LINE",
"15 647 LINE",
"15 530 LINE",
"36 530 LINE SMOOTH",
"64 530 OFFCURVE",
"77 516 OFFCURVE",
"77 493 CURVE SMOOTH",
"77 156 LINE SMOOTH",
"77 129 OFFCURVE",
"64 116 OFFCURVE",
"36 116 CURVE SMOOTH",
"15 116 LINE",
"15 0 LINE"
);
}
);
width = 548;
}
);
note = F;
unicode = 0046;
},
{
glyphname = G;
lastChange = "2015-08-01 07:38:50 +0000";
layers = (
{
layerId = "933D8F18-C226-4057-AED3-19590AE810D9";
name = Bold;
paths = (
{
closed = 1;
nodes = (
"465 -16 OFFCURVE",
"552 8 OFFCURVE",
"625 61 CURVE",
"625 364 LINE",
"324 364 LINE",
"324 248 LINE",
"440 248 LINE",
"440 109 LINE",
"415 103 OFFCURVE",
"391 101 OFFCURVE",
"369 101 CURVE SMOOTH",
"256 101 OFFCURVE",
"198 180 OFFCURVE",
"198 318 CURVE SMOOTH",
"198 459 OFFCURVE",
"254 545 OFFCURVE",
"354 545 CURVE SMOOTH",
"379 545 OFFCURVE",
"396 542 OFFCURVE",
"414 534 CURVE",
"414 460 LINE",
"599 460 LINE",
"599 598 LINE",
"537 643 OFFCURVE",
"467 662 OFFCURVE",
"354 662 CURVE SMOOTH",
"122 662 OFFCURVE",
"15 513 OFFCURVE",
"15 318 CURVE SMOOTH",
"15 123 OFFCURVE",
"136 -16 OFFCURVE",
"360 -16 CURVE SMOOTH"
);
}
);
width = 640;
}
);
leftKerningGroup = C;
note = G;
unicode = 0047;
},
{
glyphname = Gbreve;
lastChange = "2015-08-01 07:38:50 +0000";
layers = (
{
layerId = "933D8F18-C226-4057-AED3-19590AE810D9";
name = Bold;
paths = (
{
closed = 1;
nodes = (
"465 -16 OFFCURVE",
"552 8 OFFCURVE",
"625 61 CURVE",
"625 364 LINE",
"324 364 LINE",
"324 248 LINE",
"440 248 LINE",
"440 109 LINE",
"415 103 OFFCURVE",
"391 101 OFFCURVE",
"369 101 CURVE SMOOTH",
"256 101 OFFCURVE",
"198 180 OFFCURVE",
"198 318 CURVE SMOOTH",
"198 459 OFFCURVE",
"254 545 OFFCURVE",
"354 545 CURVE SMOOTH",
"379 545 OFFCURVE",
"396 542 OFFCURVE",
"414 534 CURVE",
"414 460 LINE",
"599 460 LINE",
"599 598 LINE",
"537 643 OFFCURVE",
"467 662 OFFCURVE",
"354 662 CURVE SMOOTH",
"122 662 OFFCURVE",
"15 513 OFFCURVE",
"15 318 CURVE SMOOTH",
"15 123 OFFCURVE",
"136 -16 OFFCURVE",
"360 -16 CURVE SMOOTH"
);
},
{
closed = 1;
nodes = (
"470 697 OFFCURVE",
"535 763 OFFCURVE",
"535 860 CURVE",
"382 860 LINE",
"382 826 OFFCURVE",
"378 804 OFFCURVE",
"347 804 CURVE SMOOTH",
"320 804 OFFCURVE",
"312 826 OFFCURVE",
"312 860 CURVE",
"159 860 LINE",
"159 763 OFFCURVE",
"224 697 OFFCURVE",
"347 697 CURVE SMOOTH"
);
}
);
width = 640;
}
);
leftKerningGroup = C;
note = Gbreve;
unicode = 011E;
},
{
glyphname = Gcaron;
lastChange = "2015-08-01 07:38:50 +0000";
layers = (
{
layerId = "933D8F18-C226-4057-AED3-19590AE810D9";
name = Bold;
paths = (
{
closed = 1;
nodes = (
"465 -16 OFFCURVE",
"552 8 OFFCURVE",
"625 61 CURVE",
"625 364 LINE",
"324 364 LINE",
"324 248 LINE",
"440 248 LINE",
"440 109 LINE",
"415 103 OFFCURVE",
"391 101 OFFCURVE",
"369 101 CURVE SMOOTH",
"256 101 OFFCURVE",
"198 180 OFFCURVE",
"198 318 CURVE SMOOTH",
"198 459 OFFCURVE",
"254 545 OFFCURVE",
"354 545 CURVE SMOOTH",
"379 545 OFFCURVE",
"396 542 OFFCURVE",
"414 534 CURVE",
"414 460 LINE",
"599 460 LINE",
"599 598 LINE",
"537 643 OFFCURVE",
"467 662 OFFCURVE",
"354 662 CURVE SMOOTH",
"122 662 OFFCURVE",
"15 513 OFFCURVE",
"15 318 CURVE SMOOTH",
"15 123 OFFCURVE",
"136 -16 OFFCURVE",
"360 -16 CURVE SMOOTH"
);
},
{
closed = 1;
nodes = (
"435 697 LINE",
"575 901 LINE",
"412 901 LINE",
"357 793 LINE",
"300 901 LINE",
"140 901 LINE",
"281 697 LINE"
);
}
);
width = 640;
}
);
leftKerningGroup = C;
note = Gcaron;
unicode = 01E6;
},
{
glyphname = Gcircumflex;
lastChange = "2015-08-01 07:38:50 +0000";
layers = (
{
layerId = "933D8F18-C226-4057-AED3-19590AE810D9";
name = Bold;
paths = (
{
closed = 1;
nodes = (
"465 -16 OFFCURVE",
"552 8 OFFCURVE",
"625 61 CURVE",
"625 364 LINE",
"324 364 LINE",
"324 248 LINE",
"440 248 LINE",
"440 109 LINE",
"415 103 OFFCURVE",
"391 101 OFFCURVE",
"369 101 CURVE SMOOTH",
"256 101 OFFCURVE",
"198 180 OFFCURVE",
"198 318 CURVE SMOOTH",
"198 459 OFFCURVE",
"254 545 OFFCURVE",
"354 545 CURVE SMOOTH",
"379 545 OFFCURVE",
"396 542 OFFCURVE",
"414 534 CURVE",
"414 460 LINE",
"599 460 LINE",
"599 598 LINE",
"537 643 OFFCURVE",
"467 662 OFFCURVE",
"354 662 CURVE SMOOTH",
"122 662 OFFCURVE",
"15 513 OFFCURVE",
"15 318 CURVE SMOOTH",
"15 123 OFFCURVE",
"136 -16 OFFCURVE",
"360 -16 CURVE SMOOTH"
);
},
{
closed = 1;
nodes = (
"283 697 LINE",
"340 804 LINE",
"395 697 LINE",
"558 697 LINE",
"418 900 LINE",
"264 900 LINE",
"123 697 LINE"
);
}
);
width = 640;
}
);
leftKerningGroup = C;
note = Gcircumflex;
unicode = 011C;
},
{
glyphname = Gcommaaccent;
lastChange = "2015-08-01 07:38:51 +0000";
layers = (
{
layerId = "933D8F18-C226-4057-AED3-19590AE810D9";
name = Bold;
paths = (
{
closed = 1;
nodes = (
"465 -16 OFFCURVE",
"552 8 OFFCURVE",
"625 61 CURVE",
"625 364 LINE",
"324 364 LINE",
"324 248 LINE",
"440 248 LINE",
"440 109 LINE",
"415 103 OFFCURVE",
"391 101 OFFCURVE",
"369 101 CURVE SMOOTH",
"256 101 OFFCURVE",
"198 180 OFFCURVE",
"198 318 CURVE SMOOTH",
"198 459 OFFCURVE",
"254 545 OFFCURVE",
"354 545 CURVE SMOOTH",
"379 545 OFFCURVE",
"396 542 OFFCURVE",
"414 534 CURVE",
"414 460 LINE",
"599 460 LINE",
"599 598 LINE",
"537 643 OFFCURVE",
"467 662 OFFCURVE",
"354 662 CURVE SMOOTH",
"122 662 OFFCURVE",
"15 513 OFFCURVE",
"15 318 CURVE SMOOTH",
"15 123 OFFCURVE",
"136 -16 OFFCURVE",
"360 -16 CURVE SMOOTH"
);
},
{
closed = 1;
nodes = (
"405 -282 LINE",
"476 -49 LINE",
"287 -49 LINE",
"252 -282 LINE"
);
}
);
width = 640;
}
);
leftKerningGroup = C;
note = Gcommaaccent;
unicode = 0122;
},
{
glyphname = Gdotaccent;
lastChange = "2015-08-01 07:38:50 +0000";
layers = (
{
layerId = "933D8F18-C226-4057-AED3-19590AE810D9";
name = Bold;
paths = (
{
closed = 1;
nodes = (
"465 -16 OFFCURVE",
"552 8 OFFCURVE",
"625 61 CURVE",
"625 364 LINE",
"324 364 LINE",
"324 248 LINE",
"440 248 LINE",
"440 109 LINE",
"415 103 OFFCURVE",
"391 101 OFFCURVE",
"369 101 CURVE SMOOTH",
"256 101 OFFCURVE",
"198 180 OFFCURVE",
"198 318 CURVE SMOOTH",
"198 459 OFFCURVE",
"254 545 OFFCURVE",
"354 545 CURVE SMOOTH",
"379 545 OFFCURVE",
"396 542 OFFCURVE",
"414 534 CURVE",
"414 460 LINE",
"599 460 LINE",
"599 598 LINE",
"537 643 OFFCURVE",
"467 662 OFFCURVE",
"354 662 CURVE SMOOTH",
"122 662 OFFCURVE",
"15 513 OFFCURVE",
"15 318 CURVE SMOOTH",
"15 123 OFFCURVE",
"136 -16 OFFCURVE",
"360 -16 CURVE SMOOTH"
);
},
{
closed = 1;
nodes = (
"417 717 LINE",
"417 854 LINE",
"287 854 LINE",
"287 717 LINE"
);
}
);
width = 640;
}
);
leftKerningGroup = C;
note = Gdotaccent;
unicode = 0120;
},
{
glyphname = Gmacron;
lastChange = "2015-08-01 07:38:50 +0000";
layers = (
{
layerId = "933D8F18-C226-4057-AED3-19590AE810D9";
name = Bold;
paths = (
{
closed = 1;
nodes = (
"465 -16 OFFCURVE",
"552 8 OFFCURVE",
"625 61 CURVE",
"625 364 LINE",
"324 364 LINE",
"324 248 LINE",
"440 248 LINE",
"440 109 LINE",
"415 103 OFFCURVE",
"391 101 OFFCURVE",
"369 101 CURVE SMOOTH",
"256 101 OFFCURVE",
"198 180 OFFCURVE",
"198 318 CURVE SMOOTH",
"198 459 OFFCURVE",
"254 545 OFFCURVE",
"354 545 CURVE SMOOTH",
"379 545 OFFCURVE",
"396 542 OFFCURVE",
"414 534 CURVE",
"414 460 LINE",
"599 460 LINE",
"599 598 LINE",
"537 643 OFFCURVE",
"467 662 OFFCURVE",
"354 662 CURVE SMOOTH",
"122 662 OFFCURVE",
"15 513 OFFCURVE",
"15 318 CURVE SMOOTH",
"15 123 OFFCURVE",
"136 -16 OFFCURVE",
"360 -16 CURVE SMOOTH"
);
},
{
closed = 1;
nodes = (
"517 717 LINE",
"517 822 LINE",
"200 822 LINE",
"200 717 LINE"
);
}
);
width = 640;
}
);
leftKerningGroup = C;
note = Gmacron;
unicode = 1E20;
},
{
glyphname = H;
lastChange = "2015-07-31 14:10:13 +0000";
layers = (
{
layerId = "933D8F18-C226-4057-AED3-19590AE810D9";
name = Bold;
paths = (
{
closed = 1;
nodes = (
"312 0 LINE",
"312 116 LINE",
"302 116 LINE SMOOTH",
"274 116 OFFCURVE",
"261 129 OFFCURVE",
"261 156 CURVE SMOOTH",
"261 266 LINE",
"429 266 LINE",
"429 156 LINE SMOOTH",
"429 129 OFFCURVE",
"417 116 OFFCURVE",
"389 116 CURVE SMOOTH",
"378 116 LINE",
"378 0 LINE",
"676 0 LINE",
"676 116 LINE",
"655 116 LINE SMOOTH",
"627 116 OFFCURVE",
"614 129 OFFCURVE",
"614 156 CURVE SMOOTH",
"614 493 LINE SMOOTH",
"614 516 OFFCURVE",
"627 530 OFFCURVE",
"655 530 CURVE SMOOTH",
"676 530 LINE",
"676 647 LINE",
"378 647 LINE",
"378 530 LINE",
"389 530 LINE SMOOTH",
"417 530 OFFCURVE",
"429 517 OFFCURVE",
"429 490 CURVE SMOOTH",
"429 382 LINE",
"261 382 LINE",
"261 493 LINE SMOOTH",
"261 516 OFFCURVE",
"273 530 OFFCURVE",
"301 530 CURVE SMOOTH",
"312 530 LINE",
"312 647 LINE",
"15 647 LINE",
"15 530 LINE",
"36 530 LINE SMOOTH",
"64 530 OFFCURVE",
"76 516 OFFCURVE",
"76 493 CURVE SMOOTH",
"76 156 LINE SMOOTH",
"76 129 OFFCURVE",
"64 116 OFFCURVE",
"36 116 CURVE SMOOTH",
"15 116 LINE",
"15 0 LINE"
);
}
);
width = 691;
}
);
note = H;
unicode = 0048;
},
{
glyphname = Hbar;
lastChange = "2015-11-24 06:05:40 +0000";
layers = (
{
layerId = "933D8F18-C226-4057-AED3-19590AE810D9";
name = Bold;
paths = (
{
closed = 1;
nodes = (
"312 0 LINE",
"312 116 LINE",
"302 116 LINE SMOOTH",
"274 116 OFFCURVE",
"261 129 OFFCURVE",
"261 156 CURVE SMOOTH",
"261 266 LINE",
"429 266 LINE",
"429 156 LINE SMOOTH",
"429 129 OFFCURVE",
"417 116 OFFCURVE",
"389 116 CURVE SMOOTH",
"378 116 LINE",
"378 0 LINE",
"676 0 LINE",
"676 116 LINE",
"655 116 LINE SMOOTH",
"627 116 OFFCURVE",
"614 129 OFFCURVE",
"614 156 CURVE SMOOTH",
"614 493 LINE SMOOTH",
"614 516 OFFCURVE",
"627 530 OFFCURVE",
"655 530 CURVE SMOOTH",
"676 530 LINE",
"676 647 LINE",
"378 647 LINE",
"378 530 LINE",
"389 530 LINE SMOOTH",
"417 530 OFFCURVE",
"429 517 OFFCURVE",
"429 490 CURVE SMOOTH",
"429 382 LINE",
"261 382 LINE",
"261 493 LINE SMOOTH",
"261 516 OFFCURVE",
"273 530 OFFCURVE",
"301 530 CURVE SMOOTH",
"312 530 LINE",
"312 647 LINE",
"15 647 LINE",
"15 530 LINE",
"36 530 LINE SMOOTH",
"64 530 OFFCURVE",
"76 516 OFFCURVE",
"76 493 CURVE SMOOTH",
"76 156 LINE SMOOTH",
"76 129 OFFCURVE",
"64 116 OFFCURVE",
"36 116 CURVE SMOOTH",
"15 116 LINE",
"15 0 LINE"
);
},
{
closed = 1;
nodes = (
"676 422 LINE",
"676 488 LINE",
"15 488 LINE",
"15 422 LINE"
);
}
);
width = 691;
}
);
note = Hbar;
unicode = 0126;
},
{
glyphname = Hbrevebelow;
lastChange = "2015-07-31 14:10:15 +0000";
layers = (
{
layerId = "933D8F18-C226-4057-AED3-19590AE810D9";
name = Bold;
paths = (
{
closed = 1;
nodes = (
"312 0 LINE",
"312 116 LINE",
"302 116 LINE SMOOTH",
"274 116 OFFCURVE",
"261 129 OFFCURVE",
"261 156 CURVE SMOOTH",
"261 266 LINE",
"429 266 LINE",
"429 156 LINE SMOOTH",
"429 129 OFFCURVE",
"417 116 OFFCURVE",
"389 116 CURVE SMOOTH",
"378 116 LINE",
"378 0 LINE",
"676 0 LINE",
"676 116 LINE",
"655 116 LINE SMOOTH",
"627 116 OFFCURVE",
"614 129 OFFCURVE",
"614 156 CURVE SMOOTH",
"614 493 LINE SMOOTH",
"614 516 OFFCURVE",
"627 530 OFFCURVE",
"655 530 CURVE SMOOTH",
"676 530 LINE",
"676 647 LINE",
"378 647 LINE",
"378 530 LINE",
"389 530 LINE SMOOTH",
"417 530 OFFCURVE",
"429 517 OFFCURVE",
"429 490 CURVE SMOOTH",
"429 382 LINE",
"261 382 LINE",
"261 493 LINE SMOOTH",
"261 516 OFFCURVE",
"273 530 OFFCURVE",
"301 530 CURVE SMOOTH",
"312 530 LINE",
"312 647 LINE",
"15 647 LINE",
"15 530 LINE",
"36 530 LINE SMOOTH",
"64 530 OFFCURVE",
"76 516 OFFCURVE",
"76 493 CURVE SMOOTH",
"76 156 LINE SMOOTH",
"76 129 OFFCURVE",
"64 116 OFFCURVE",
"36 116 CURVE SMOOTH",
"15 116 LINE",
"15 0 LINE"
);
},
{
closed = 1;
nodes = (
"469 -209 OFFCURVE",
"534 -143 OFFCURVE",
"534 -46 CURVE",
"381 -46 LINE",
"381 -80 OFFCURVE",
"377 -102 OFFCURVE",
"346 -102 CURVE SMOOTH",
"319 -102 OFFCURVE",
"311 -80 OFFCURVE",
"311 -46 CURVE",
"158 -46 LINE",
"158 -143 OFFCURVE",
"223 -209 OFFCURVE",
"346 -209 CURVE SMOOTH"
);
}
);
width = 691;
}
);
note = Hbrevebelow;
unicode = 1E2A;
},
{
glyphname = Hcircumflex;
lastChange = "2015-07-31 14:10:15 +0000";
layers = (
{
layerId = "933D8F18-C226-4057-AED3-19590AE810D9";
name = Bold;
paths = (
{
closed = 1;
nodes = (
"312 0 LINE",
"312 116 LINE",
"302 116 LINE SMOOTH",
"274 116 OFFCURVE",
"261 129 OFFCURVE",
"261 156 CURVE SMOOTH",
"261 266 LINE",
"429 266 LINE",
"429 156 LINE SMOOTH",
"429 129 OFFCURVE",
"417 116 OFFCURVE",
"389 116 CURVE SMOOTH",
"378 116 LINE",
"378 0 LINE",
"676 0 LINE",
"676 116 LINE",
"655 116 LINE SMOOTH",
"627 116 OFFCURVE",
"614 129 OFFCURVE",
"614 156 CURVE SMOOTH",
"614 493 LINE SMOOTH",
"614 516 OFFCURVE",
"627 530 OFFCURVE",
"655 530 CURVE SMOOTH",
"676 530 LINE",
"676 647 LINE",
"378 647 LINE",
"378 530 LINE",
"389 530 LINE SMOOTH",
"417 530 OFFCURVE",
"429 517 OFFCURVE",
"429 490 CURVE SMOOTH",
"429 382 LINE",
"261 382 LINE",
"261 493 LINE SMOOTH",
"261 516 OFFCURVE",
"273 530 OFFCURVE",
"301 530 CURVE SMOOTH",
"312 530 LINE",
"312 647 LINE",
"15 647 LINE",
"15 530 LINE",
"36 530 LINE SMOOTH",
"64 530 OFFCURVE",
"76 516 OFFCURVE",
"76 493 CURVE SMOOTH",
"76 156 LINE SMOOTH",
"76 129 OFFCURVE",
"64 116 OFFCURVE",
"36 116 CURVE SMOOTH",
"15 116 LINE",
"15 0 LINE"
);
},
{
closed = 1;
nodes = (
"288 697 LINE",
"345 804 LINE",
"400 697 LINE",
"563 697 LINE",
"423 900 LINE",
"269 900 LINE",
"128 697 LINE"
);
}
);
width = 691;
}
);
note = Hcircumflex;
unicode = 0124;
},
{
glyphname = Hdotbelow;
lastChange = "2015-07-31 14:10:16 +0000";
layers = (
{
layerId = "933D8F18-C226-4057-AED3-19590AE810D9";
name = Bold;
paths = (
{
closed = 1;
nodes = (
"312 0 LINE",
"312 116 LINE",
"302 116 LINE SMOOTH",
"274 116 OFFCURVE",
"261 129 OFFCURVE",
"261 156 CURVE SMOOTH",
"261 266 LINE",
"429 266 LINE",
"429 156 LINE SMOOTH",
"429 129 OFFCURVE",
"417 116 OFFCURVE",
"389 116 CURVE SMOOTH",
"378 116 LINE",
"378 0 LINE",
"676 0 LINE",
"676 116 LINE",
"655 116 LINE SMOOTH",
"627 116 OFFCURVE",
"614 129 OFFCURVE",
"614 156 CURVE SMOOTH",
"614 493 LINE SMOOTH",
"614 516 OFFCURVE",
"627 530 OFFCURVE",
"655 530 CURVE SMOOTH",
"676 530 LINE",
"676 647 LINE",
"378 647 LINE",
"378 530 LINE",
"389 530 LINE SMOOTH",
"417 530 OFFCURVE",
"429 517 OFFCURVE",
"429 490 CURVE SMOOTH",
"429 382 LINE",
"261 382 LINE",
"261 493 LINE SMOOTH",
"261 516 OFFCURVE",
"273 530 OFFCURVE",
"301 530 CURVE SMOOTH",
"312 530 LINE",
"312 647 LINE",
"15 647 LINE",
"15 530 LINE",
"36 530 LINE SMOOTH",
"64 530 OFFCURVE",
"76 516 OFFCURVE",
"76 493 CURVE SMOOTH",
"76 156 LINE SMOOTH",
"76 129 OFFCURVE",
"64 116 OFFCURVE",
"36 116 CURVE SMOOTH",
"15 116 LINE",
"15 0 LINE"
);
},
{
closed = 1;
nodes = (
"410 -197 LINE",
"410 -60 LINE",
"281 -60 LINE",
"281 -197 LINE"
);
}
);
width = 691;
}
);
note = Hdotbelow;
unicode = 1E24;
},
{
glyphname = I;
lastChange = "2015-07-31 14:10:13 +0000";
layers = (
{
layerId = "933D8F18-C226-4057-AED3-19590AE810D9";
name = Bold;
paths = (
{
closed = 1;
nodes = (
"322 0 LINE",
"322 116 LINE",
"302 116 LINE SMOOTH",
"273 116 OFFCURVE",
"261 130 OFFCURVE",
"261 153 CURVE SMOOTH",
"261 493 LINE SMOOTH",
"261 516 OFFCURVE",
"273 530 OFFCURVE",
"302 530 CURVE SMOOTH",
"322 530 LINE",
"322 647 LINE",
"15 647 LINE",
"15 530 LINE",
"35 530 LINE SMOOTH",
"64 530 OFFCURVE",
"76 516 OFFCURVE",
"76 493 CURVE SMOOTH",
"76 156 LINE SMOOTH",
"76 129 OFFCURVE",
"64 116 OFFCURVE",
"35 116 CURVE SMOOTH",
"15 116 LINE",
"15 0 LINE"
);
}
);
width = 337;
}
);
note = I;
unicode = 0049;
},
{
glyphname = IJ;
lastChange = "2015-08-01 07:38:50 +0000";
layers = (
{
layerId = "933D8F18-C226-4057-AED3-19590AE810D9";
name = Bold;
paths = (
{
closed = 1;
nodes = (
"676 -16 OFFCURVE",
"755 63 OFFCURVE",
"755 191 CURVE SMOOTH",
"755 493 LINE SMOOTH",
"755 516 OFFCURVE",
"767 530 OFFCURVE",
"795 530 CURVE SMOOTH",
"816 530 LINE",
"816 647 LINE",
"508 647 LINE",
"508 530 LINE",
"529 530 LINE SMOOTH",
"557 530 OFFCURVE",
"570 516 OFFCURVE",
"570 493 CURVE SMOOTH",
"570 159 LINE SMOOTH",
"570 117 OFFCURVE",
"554 101 OFFCURVE",
"515 101 CURVE SMOOTH",
"497 101 OFFCURVE",
"476 110 OFFCURVE",
"463 122 CURVE",
"463 176 LINE",
"300 176 LINE",
"300 74 LINE",
"347 15 OFFCURVE",
"430 -16 OFFCURVE",
"527 -16 CURVE SMOOTH"
);
},
{
closed = 1;
nodes = (
"322 0 LINE",
"322 116 LINE",
"302 116 LINE SMOOTH",
"273 116 OFFCURVE",
"261 130 OFFCURVE",
"261 153 CURVE SMOOTH",
"261 493 LINE SMOOTH",
"261 516 OFFCURVE",
"273 530 OFFCURVE",
"302 530 CURVE SMOOTH",
"322 530 LINE",
"322 647 LINE",
"15 647 LINE",
"15 530 LINE",
"35 530 LINE SMOOTH",
"64 530 OFFCURVE",
"76 516 OFFCURVE",
"76 493 CURVE SMOOTH",
"76 156 LINE SMOOTH",
"76 129 OFFCURVE",
"64 116 OFFCURVE",
"35 116 CURVE SMOOTH",
"15 116 LINE",
"15 0 LINE"
);
}
);
width = 821;
}
);
note = IJ;
rightKerningGroup = J;
unicode = 0132;
},
{
glyphname = Iacute;
lastChange = "2015-07-31 14:10:16 +0000";
layers = (
{
layerId = "933D8F18-C226-4057-AED3-19590AE810D9";
name = Bold;
paths = (
{
closed = 1;
nodes = (
"322 0 LINE",
"322 116 LINE",
"302 116 LINE SMOOTH",
"273 116 OFFCURVE",
"261 130 OFFCURVE",
"261 153 CURVE SMOOTH",
"261 493 LINE SMOOTH",
"261 516 OFFCURVE",
"273 530 OFFCURVE",
"302 530 CURVE SMOOTH",
"322 530 LINE",
"322 647 LINE",
"15 647 LINE",
"15 530 LINE",
"35 530 LINE SMOOTH",
"64 530 OFFCURVE",
"76 516 OFFCURVE",
"76 493 CURVE SMOOTH",
"76 156 LINE SMOOTH",
"76 129 OFFCURVE",
"64 116 OFFCURVE",
"35 116 CURVE SMOOTH",
"15 116 LINE",
"15 0 LINE"
);
},
{
closed = 1;
nodes = (
"245 697 LINE",
"357 879 LINE",
"161 879 LINE",
"90 697 LINE"
);
}
);
width = 337;
}
);
note = Iacute;
unicode = 00CD;
},
{
glyphname = Ibreve;
lastChange = "2015-07-31 14:10:16 +0000";
layers = (
{
layerId = "933D8F18-C226-4057-AED3-19590AE810D9";
name = Bold;
paths = (
{
closed = 1;
nodes = (
"322 0 LINE",
"322 116 LINE",
"302 116 LINE SMOOTH",
"273 116 OFFCURVE",
"261 130 OFFCURVE",
"261 153 CURVE SMOOTH",
"261 493 LINE SMOOTH",
"261 516 OFFCURVE",
"273 530 OFFCURVE",
"302 530 CURVE SMOOTH",
"322 530 LINE",
"322 647 LINE",
"15 647 LINE",
"15 530 LINE",
"35 530 LINE SMOOTH",
"64 530 OFFCURVE",
"76 516 OFFCURVE",
"76 493 CURVE SMOOTH",
"76 156 LINE SMOOTH",
"76 129 OFFCURVE",
"64 116 OFFCURVE",
"35 116 CURVE SMOOTH",
"15 116 LINE",
"15 0 LINE"
);
},
{
closed = 1;
nodes = (
"291 697 OFFCURVE",
"356 763 OFFCURVE",
"356 860 CURVE",
"203 860 LINE",
"203 826 OFFCURVE",
"199 804 OFFCURVE",
"168 804 CURVE SMOOTH",
"141 804 OFFCURVE",
"133 826 OFFCURVE",
"133 860 CURVE",
"-20 860 LINE",
"-20 763 OFFCURVE",
"45 697 OFFCURVE",
"168 697 CURVE SMOOTH"
);
}
);
width = 337;
}
);
note = Ibreve;
unicode = 012C;
},
{
glyphname = Icaron;
lastChange = "2015-07-31 14:10:15 +0000";
layers = (
{
layerId = "933D8F18-C226-4057-AED3-19590AE810D9";
name = Bold;
paths = (
{
closed = 1;
nodes = (
"322 0 LINE",
"322 116 LINE",
"302 116 LINE SMOOTH",
"273 116 OFFCURVE",
"261 130 OFFCURVE",
"261 153 CURVE SMOOTH",
"261 493 LINE SMOOTH",
"261 516 OFFCURVE",
"273 530 OFFCURVE",
"302 530 CURVE SMOOTH",
"322 530 LINE",
"322 647 LINE",
"15 647 LINE",
"15 530 LINE",
"35 530 LINE SMOOTH",
"64 530 OFFCURVE",
"76 516 OFFCURVE",
"76 493 CURVE SMOOTH",
"76 156 LINE SMOOTH",
"76 129 OFFCURVE",
"64 116 OFFCURVE",
"35 116 CURVE SMOOTH",
"15 116 LINE",
"15 0 LINE"
);
},
{
closed = 1;
nodes = (
"246 697 LINE",
"386 901 LINE",
"223 901 LINE",
"168 793 LINE",
"111 901 LINE",
"-49 901 LINE",
"92 697 LINE"
);
}
);
width = 337;
}
);
note = Icaron;
unicode = 01CF;
},
{
glyphname = Icircumflex;
lastChange = "2015-07-31 14:10:15 +0000";
layers = (
{
layerId = "933D8F18-C226-4057-AED3-19590AE810D9";
name = Bold;
paths = (
{
closed = 1;
nodes = (
"322 0 LINE",
"322 116 LINE",
"302 116 LINE SMOOTH",
"273 116 OFFCURVE",
"261 130 OFFCURVE",
"261 153 CURVE SMOOTH",
"261 493 LINE SMOOTH",
"261 516 OFFCURVE",
"273 530 OFFCURVE",
"302 530 CURVE SMOOTH",
"322 530 LINE",
"322 647 LINE",
"15 647 LINE",
"15 530 LINE",
"35 530 LINE SMOOTH",
"64 530 OFFCURVE",
"76 516 OFFCURVE",
"76 493 CURVE SMOOTH",
"76 156 LINE SMOOTH",
"76 129 OFFCURVE",
"64 116 OFFCURVE",
"35 116 CURVE SMOOTH",
"15 116 LINE",
"15 0 LINE"
);
},
{
closed = 1;
nodes = (
"112 697 LINE",
"169 804 LINE",
"224 697 LINE",
"387 697 LINE",
"247 900 LINE",
"93 900 LINE",
"-48 697 LINE"
);
}
);
width = 337;
}
);
note = Icircumflex;
unicode = 00CE;
},
{
glyphname = Idieresis;
lastChange = "2015-07-31 14:10:15 +0000";
layers = (
{
layerId = "933D8F18-C226-4057-AED3-19590AE810D9";
name = Bold;
paths = (
{
closed = 1;
nodes = (
"322 0 LINE",
"322 116 LINE",
"302 116 LINE SMOOTH",
"273 116 OFFCURVE",
"261 130 OFFCURVE",
"261 153 CURVE SMOOTH",
"261 493 LINE SMOOTH",
"261 516 OFFCURVE",
"273 530 OFFCURVE",
"302 530 CURVE SMOOTH",
"322 530 LINE",
"322 647 LINE",
"15 647 LINE",
"15 530 LINE",
"35 530 LINE SMOOTH",
"64 530 OFFCURVE",
"76 516 OFFCURVE",
"76 493 CURVE SMOOTH",
"76 156 LINE SMOOTH",
"76 129 OFFCURVE",
"64 116 OFFCURVE",
"35 116 CURVE SMOOTH",
"15 116 LINE",
"15 0 LINE"
);
},
{
closed = 1;
nodes = (
"107 717 LINE",
"107 854 LINE",
"-21 854 LINE",
"-21 717 LINE"
);
},
{
closed = 1;
nodes = (
"358 717 LINE",
"358 854 LINE",
"229 854 LINE",
"229 717 LINE"
);
}
);
width = 337;
}
);
note = Idieresis;
unicode = 00CF;
},
{
glyphname = Idotaccent;
lastChange = "2015-07-31 14:10:15 +0000";
layers = (
{
layerId = "933D8F18-C226-4057-AED3-19590AE810D9";
name = Bold;
paths = (
{
closed = 1;
nodes = (
"322 0 LINE",
"322 116 LINE",
"302 116 LINE SMOOTH",
"273 116 OFFCURVE",
"261 130 OFFCURVE",
"261 153 CURVE SMOOTH",
"261 493 LINE SMOOTH",
"261 516 OFFCURVE",
"273 530 OFFCURVE",
"302 530 CURVE SMOOTH",
"322 530 LINE",
"322 647 LINE",
"15 647 LINE",
"15 530 LINE",
"35 530 LINE SMOOTH",
"64 530 OFFCURVE",
"76 516 OFFCURVE",
"76 493 CURVE SMOOTH",
"76 156 LINE SMOOTH",
"76 129 OFFCURVE",
"64 116 OFFCURVE",
"35 116 CURVE SMOOTH",
"15 116 LINE",
"15 0 LINE"
);
},
{
closed = 1;
nodes = (
"233 717 LINE",
"233 854 LINE",
"103 854 LINE",
"103 717 LINE"
);
}
);
width = 337;
}
);
note = Idotaccent;
unicode = 0130;
},
{
glyphname = Idotbelow;
lastChange = "2015-07-31 14:10:16 +0000";
layers = (
{
layerId = "933D8F18-C226-4057-AED3-19590AE810D9";
name = Bold;
paths = (
{
closed = 1;
nodes = (
"322 0 LINE",
"322 116 LINE",
"302 116 LINE SMOOTH",
"273 116 OFFCURVE",
"261 130 OFFCURVE",
"261 153 CURVE SMOOTH",
"261 493 LINE SMOOTH",
"261 516 OFFCURVE",
"273 530 OFFCURVE",
"302 530 CURVE SMOOTH",
"322 530 LINE",
"322 647 LINE",
"15 647 LINE",
"15 530 LINE",
"35 530 LINE SMOOTH",
"64 530 OFFCURVE",
"76 516 OFFCURVE",
"76 493 CURVE SMOOTH",
"76 156 LINE SMOOTH",
"76 129 OFFCURVE",
"64 116 OFFCURVE",
"35 116 CURVE SMOOTH",
"15 116 LINE",
"15 0 LINE"
);
},
{
closed = 1;
nodes = (
"235 -197 LINE",
"235 -60 LINE",
"106 -60 LINE",
"106 -197 LINE"
);
}
);
width = 337;
}
);
note = Idotbelow;
unicode = 1ECA;
},
{
glyphname = Igrave;
lastChange = "2015-07-31 14:10:16 +0000";
layers = (
{
layerId = "933D8F18-C226-4057-AED3-19590AE810D9";
name = Bold;
paths = (
{
closed = 1;
nodes = (
"322 0 LINE",
"322 116 LINE",
"302 116 LINE SMOOTH",
"273 116 OFFCURVE",
"261 130 OFFCURVE",
"261 153 CURVE SMOOTH",
"261 493 LINE SMOOTH",
"261 516 OFFCURVE",
"273 530 OFFCURVE",
"302 530 CURVE SMOOTH",
"322 530 LINE",
"322 647 LINE",
"15 647 LINE",
"15 530 LINE",
"35 530 LINE SMOOTH",
"64 530 OFFCURVE",
"76 516 OFFCURVE",
"76 493 CURVE SMOOTH",
"76 156 LINE SMOOTH",
"76 129 OFFCURVE",
"64 116 OFFCURVE",
"35 116 CURVE SMOOTH",
"15 116 LINE",
"15 0 LINE"
);
},
{
closed = 1;
nodes = (
"253 696 LINE",
"181 878 LINE",
"-15 878 LINE",
"97 696 LINE"
);
}
);
width = 337;
}
);
note = Igrave;
unicode = 00CC;
},
{
glyphname = Ihookabove;
lastChange = "2015-07-31 14:10:16 +0000";
layers = (
{
layerId = "933D8F18-C226-4057-AED3-19590AE810D9";
name = Bold;
paths = (
{
closed = 1;
nodes = (
"322 0 LINE",
"322 116 LINE",
"302 116 LINE SMOOTH",
"273 116 OFFCURVE",
"261 130 OFFCURVE",
"261 153 CURVE SMOOTH",
"261 493 LINE SMOOTH",
"261 516 OFFCURVE",
"273 530 OFFCURVE",
"302 530 CURVE SMOOTH",
"322 530 LINE",
"322 647 LINE",
"15 647 LINE",
"15 530 LINE",
"35 530 LINE SMOOTH",
"64 530 OFFCURVE",
"76 516 OFFCURVE",
"76 493 CURVE SMOOTH",
"76 156 LINE SMOOTH",
"76 129 OFFCURVE",
"64 116 OFFCURVE",
"35 116 CURVE SMOOTH",
"15 116 LINE",
"15 0 LINE"
);
},
{
closed = 1;
nodes = (
"236 697 LINE",
"236 740 LINE",
"274 756 OFFCURVE",
"291 782 OFFCURVE",
"291 822 CURVE SMOOTH",
"291 883 OFFCURVE",
"242 910 OFFCURVE",
"154 910 CURVE SMOOTH",
"112 910 OFFCURVE",
"79 904 OFFCURVE",
"57 897 CURVE",
"57 811 LINE",
"70 817 OFFCURVE",
"85 820 OFFCURVE",
"100 820 CURVE SMOOTH",
"122 820 OFFCURVE",
"133 809 OFFCURVE",
"133 793 CURVE SMOOTH",
"133 776 OFFCURVE",
"122 761 OFFCURVE",
"86 761 CURVE",
"86 697 LINE"
);
}
);
width = 337;
}
);
note = Ihookabove;
unicode = 1EC8;
},
{
glyphname = Imacron;
lastChange = "2015-07-31 14:10:16 +0000";
layers = (
{
layerId = "933D8F18-C226-4057-AED3-19590AE810D9";
name = Bold;
paths = (
{
closed = 1;
nodes = (
"322 0 LINE",
"322 116 LINE",
"302 116 LINE SMOOTH",
"273 116 OFFCURVE",
"261 130 OFFCURVE",
"261 153 CURVE SMOOTH",
"261 493 LINE SMOOTH",
"261 516 OFFCURVE",
"273 530 OFFCURVE",
"302 530 CURVE SMOOTH",
"322 530 LINE",
"322 647 LINE",
"15 647 LINE",
"15 530 LINE",
"35 530 LINE SMOOTH",
"64 530 OFFCURVE",
"76 516 OFFCURVE",
"76 493 CURVE SMOOTH",
"76 156 LINE SMOOTH",
"76 129 OFFCURVE",
"64 116 OFFCURVE",
"35 116 CURVE SMOOTH",
"15 116 LINE",
"15 0 LINE"
);
},
{
closed = 1;
nodes = (
"327 717 LINE",
"327 822 LINE",
"10 822 LINE",
"10 717 LINE"
);
}
);
width = 337;
}
);
note = Imacron;
unicode = 012A;
},
{
glyphname = Iogonek;
lastChange = "2015-07-31 14:10:16 +0000";
layers = (
{
layerId = "933D8F18-C226-4057-AED3-19590AE810D9";
name = Bold;
paths = (
{
closed = 1;
nodes = (
"322 0 LINE",
"322 116 LINE",
"302 116 LINE SMOOTH",
"273 116 OFFCURVE",
"261 130 OFFCURVE",
"261 153 CURVE SMOOTH",
"261 493 LINE SMOOTH",
"261 516 OFFCURVE",
"273 530 OFFCURVE",
"302 530 CURVE SMOOTH",
"322 530 LINE",
"322 647 LINE",
"15 647 LINE",
"15 530 LINE",
"35 530 LINE SMOOTH",
"64 530 OFFCURVE",
"76 516 OFFCURVE",
"76 493 CURVE SMOOTH",
"76 156 LINE SMOOTH",
"76 129 OFFCURVE",
"64 116 OFFCURVE",
"35 116 CURVE SMOOTH",
"15 116 LINE",
"15 0 LINE"
);
},
{
closed = 1;
nodes = (
"214 -221 OFFCURVE",
"244 -214 OFFCURVE",
"275 -190 CURVE",
"275 -92 LINE",
"266 -97 OFFCURVE",
"254 -100 OFFCURVE",
"243 -100 CURVE SMOOTH",
"224 -100 OFFCURVE",
"215 -86 OFFCURVE",
"215 -68 CURVE SMOOTH",
"215 -41 OFFCURVE",
"230 -23 OFFCURVE",
"263 0 CURVE",
"112 0 LINE",
"79 -23 OFFCURVE",
"57 -72 OFFCURVE",
"57 -118 CURVE SMOOTH",
"57 -192 OFFCURVE",
"111 -221 OFFCURVE",
"169 -221 CURVE SMOOTH"
);
}
);
width = 337;
}
);
note = Iogonek;
unicode = 012E;
},
{
glyphname = Itilde;
lastChange = "2015-07-31 14:10:15 +0000";
layers = (
{
layerId = "933D8F18-C226-4057-AED3-19590AE810D9";
name = Bold;
paths = (
{
closed = 1;
nodes = (
"322 0 LINE",
"322 116 LINE",
"302 116 LINE SMOOTH",
"273 116 OFFCURVE",
"261 130 OFFCURVE",
"261 153 CURVE SMOOTH",
"261 493 LINE SMOOTH",
"261 516 OFFCURVE",
"273 530 OFFCURVE",
"302 530 CURVE SMOOTH",
"322 530 LINE",
"322 647 LINE",
"15 647 LINE",
"15 530 LINE",
"35 530 LINE SMOOTH",
"64 530 OFFCURVE",
"76 516 OFFCURVE",
"76 493 CURVE SMOOTH",
"76 156 LINE SMOOTH",
"76 129 OFFCURVE",
"64 116 OFFCURVE",
"35 116 CURVE SMOOTH",
"15 116 LINE",
"15 0 LINE"
);
},
{
closed = 1;
nodes = (
"67 697 LINE",
"67 726 OFFCURVE",
"83 743 OFFCURVE",
"111 743 CURVE SMOOTH",
"153 743 OFFCURVE",
"184 697 OFFCURVE",
"262 697 CURVE SMOOTH",
"358 697 OFFCURVE",
"392 755 OFFCURVE",
"392 882 CURVE",
"267 882 LINE",
"267 854 OFFCURVE",
"254 836 OFFCURVE",
"224 836 CURVE SMOOTH",
"180 836 OFFCURVE",
"151 882 OFFCURVE",
"76 882 CURVE SMOOTH",
"-20 882 OFFCURVE",
"-58 821 OFFCURVE",
"-58 697 CURVE"
);
}
);
width = 337;
}
);
note = Itilde;
unicode = 0128;
},
{
glyphname = J;
lastChange = "2015-08-01 07:38:51 +0000";
layers = (
{
layerId = "933D8F18-C226-4057-AED3-19590AE810D9";
name = Bold;
paths = (
{
closed = 1;
nodes = (
"361 -16 OFFCURVE",
"440 63 OFFCURVE",
"440 191 CURVE SMOOTH",
"440 493 LINE SMOOTH",
"440 516 OFFCURVE",
"452 530 OFFCURVE",
"480 530 CURVE SMOOTH",
"501 530 LINE",
"501 647 LINE",
"193 647 LINE",
"193 530 LINE",
"214 530 LINE SMOOTH",
"242 530 OFFCURVE",
"255 516 OFFCURVE",
"255 493 CURVE SMOOTH",
"255 159 LINE SMOOTH",
"255 117 OFFCURVE",
"239 101 OFFCURVE",
"200 101 CURVE SMOOTH",
"182 101 OFFCURVE",
"161 110 OFFCURVE",
"148 122 CURVE",
"148 176 LINE",
"-15 176 LINE",
"-15 74 LINE",
"32 15 OFFCURVE",
"115 -16 OFFCURVE",
"212 -16 CURVE SMOOTH"
);
}
);
width = 516;
}
);
leftKerningGroup = J;
note = J;
rightKerningGroup = J;
unicode = 004A;
},
{
glyphname = Jcircumflex;
lastChange = "2015-11-24 06:06:02 +0000";
layers = (
{
layerId = "933D8F18-C226-4057-AED3-19590AE810D9";
name = Bold;
paths = (
{
closed = 1;
nodes = (
"361 -16 OFFCURVE",
"440 63 OFFCURVE",
"440 191 CURVE SMOOTH",
"440 493 LINE SMOOTH",
"440 516 OFFCURVE",
"452 530 OFFCURVE",
"480 530 CURVE SMOOTH",
"501 530 LINE",
"501 647 LINE",
"193 647 LINE",
"193 530 LINE",
"214 530 LINE SMOOTH",
"242 530 OFFCURVE",
"255 516 OFFCURVE",
"255 493 CURVE SMOOTH",
"255 159 LINE SMOOTH",
"255 117 OFFCURVE",
"239 101 OFFCURVE",
"200 101 CURVE SMOOTH",
"182 101 OFFCURVE",
"161 110 OFFCURVE",
"148 122 CURVE",
"148 176 LINE",
"-15 176 LINE",
"-15 74 LINE",
"32 15 OFFCURVE",
"115 -16 OFFCURVE",
"212 -16 CURVE SMOOTH"
);
},
{
closed = 1;
nodes = (
"285 697 LINE",
"342 804 LINE",
"397 697 LINE",
"560 697 LINE",
"420 900 LINE",
"266 900 LINE",
"125 697 LINE"
);
}
);
width = 516;
}
);
leftKerningGroup = J;
note = Jcircumflex;
rightKerningGroup = J;
unicode = 0134;
},
{
glyphname = K;
lastChange = "2015-08-01 07:38:51 +0000";
layers = (
{
layerId = "933D8F18-C226-4057-AED3-19590AE810D9";
name = Bold;
paths = (
{
closed = 1;
nodes = (
"301 0 LINE",
"301 117 LINE",
"292 117 LINE SMOOTH",
"270 117 OFFCURVE",
"261 134 OFFCURVE",
"261 154 CURVE SMOOTH",
"261 195 LINE",
"323 262 LINE",
"417 116 LINE",
"365 116 LINE",
"365 0 LINE",
"655 0 LINE",
"655 116 LINE",
"625 116 LINE SMOOTH",
"602 116 OFFCURVE",
"588 122 OFFCURVE",
"578 137 CURVE SMOOTH",
"428 367 LINE",
"563 512 LINE SMOOTH",
"575 525 OFFCURVE",
"585 530 OFFCURVE",
"614 530 CURVE SMOOTH",
"648 530 LINE",
"648 647 LINE",
"376 647 LINE",
"376 540 LINE",
"416 540 LINE",
"261 370 LINE",
"261 493 LINE SMOOTH",
"261 513 OFFCURVE",
"272 530 OFFCURVE",
"294 530 CURVE SMOOTH",
"301 530 LINE",
"301 647 LINE",
"15 647 LINE",
"15 530 LINE",
"36 530 LINE SMOOTH",
"64 530 OFFCURVE",
"77 516 OFFCURVE",
"77 493 CURVE SMOOTH",
"77 154 LINE SMOOTH",
"77 132 OFFCURVE",
"64 117 OFFCURVE",
"36 117 CURVE SMOOTH",
"15 117 LINE",
"15 0 LINE"
);
}
);
width = 670;
}
);
note = K;
rightKerningGroup = K;
unicode = 004B;
},
{
glyphname = Kcommaaccent;
lastChange = "2015-08-01 07:38:50 +0000";
layers = (
{
layerId = "933D8F18-C226-4057-AED3-19590AE810D9";
name = Bold;
paths = (
{
closed = 1;
nodes = (
"301 0 LINE",
"301 117 LINE",
"292 117 LINE SMOOTH",
"270 117 OFFCURVE",
"261 134 OFFCURVE",
"261 154 CURVE SMOOTH",
"261 195 LINE",
"323 262 LINE",
"417 116 LINE",
"365 116 LINE",
"365 0 LINE",
"655 0 LINE",
"655 116 LINE",
"625 116 LINE SMOOTH",
"602 116 OFFCURVE",
"588 122 OFFCURVE",
"578 137 CURVE SMOOTH",
"428 367 LINE",
"563 512 LINE SMOOTH",
"575 525 OFFCURVE",
"585 530 OFFCURVE",
"614 530 CURVE SMOOTH",
"648 530 LINE",
"648 647 LINE",
"376 647 LINE",
"376 540 LINE",
"416 540 LINE",
"261 370 LINE",
"261 493 LINE SMOOTH",
"261 513 OFFCURVE",
"272 530 OFFCURVE",
"294 530 CURVE SMOOTH",
"301 530 LINE",
"301 647 LINE",
"15 647 LINE",
"15 530 LINE",
"36 530 LINE SMOOTH",
"64 530 OFFCURVE",
"77 516 OFFCURVE",
"77 493 CURVE SMOOTH",
"77 154 LINE SMOOTH",
"77 132 OFFCURVE",
"64 117 OFFCURVE",
"36 117 CURVE SMOOTH",
"15 117 LINE",
"15 0 LINE"
);
},
{
closed = 1;
nodes = (
"367 -282 LINE",
"438 -49 LINE",
"249 -49 LINE",
"214 -282 LINE"
);
}
);
width = 670;
}
);
note = Kcommaaccent;
rightKerningGroup = K;
unicode = 0136;
},
{
glyphname = L;
lastChange = "2015-08-01 07:38:51 +0000";
layers = (
{
layerId = "933D8F18-C226-4057-AED3-19590AE810D9";
name = Bold;
paths = (
{
closed = 1;
nodes = (
"533 0 LINE",
"533 199 LINE",
"365 199 LINE",
"365 156 LINE SMOOTH",
"365 129 OFFCURVE",
"352 116 OFFCURVE",
"324 116 CURVE SMOOTH",
"262 116 LINE",
"262 493 LINE SMOOTH",
"262 516 OFFCURVE",
"274 530 OFFCURVE",
"302 530 CURVE SMOOTH",
"323 530 LINE",
"323 647 LINE",
"15 647 LINE",
"15 530 LINE",
"36 530 LINE SMOOTH",
"64 530 OFFCURVE",
"77 516 OFFCURVE",
"77 493 CURVE SMOOTH",
"77 156 LINE SMOOTH",
"77 129 OFFCURVE",
"64 116 OFFCURVE",
"36 116 CURVE SMOOTH",
"15 116 LINE",
"15 0 LINE"
);
}
);
width = 518;
}
);
note = L;
rightKerningGroup = L;
unicode = 004C;
},
{
glyphname = Lacute;
lastChange = "2015-08-01 07:38:50 +0000";
layers = (
{
layerId = "933D8F18-C226-4057-AED3-19590AE810D9";
name = Bold;
paths = (
{
closed = 1;
nodes = (
"533 0 LINE",
"533 199 LINE",
"365 199 LINE",
"365 156 LINE SMOOTH",
"365 129 OFFCURVE",
"352 116 OFFCURVE",
"324 116 CURVE SMOOTH",
"262 116 LINE",
"262 493 LINE SMOOTH",
"262 516 OFFCURVE",
"274 530 OFFCURVE",
"302 530 CURVE SMOOTH",
"323 530 LINE",
"323 647 LINE",
"15 647 LINE",
"15 530 LINE",
"36 530 LINE SMOOTH",
"64 530 OFFCURVE",
"77 516 OFFCURVE",
"77 493 CURVE SMOOTH",
"77 156 LINE SMOOTH",
"77 129 OFFCURVE",
"64 116 OFFCURVE",
"36 116 CURVE SMOOTH",
"15 116 LINE",
"15 0 LINE"
);
},
{
closed = 1;
nodes = (
"212 697 LINE",
"324 879 LINE",
"128 879 LINE",
"57 697 LINE"
);
}
);
width = 518;
}
);
note = Lacute;
rightKerningGroup = L;
unicode = 0139;
},
{
glyphname = Lcaron;
lastChange = "2015-08-01 07:38:50 +0000";
layers = (
{
layerId = "933D8F18-C226-4057-AED3-19590AE810D9";
name = Bold;
paths = (
{
closed = 1;
nodes = (
"533 0 LINE",
"533 199 LINE",
"365 199 LINE",
"365 156 LINE SMOOTH",
"365 129 OFFCURVE",
"352 116 OFFCURVE",
"324 116 CURVE SMOOTH",
"262 116 LINE",
"262 493 LINE SMOOTH",
"262 516 OFFCURVE",
"274 530 OFFCURVE",
"302 530 CURVE SMOOTH",
"323 530 LINE",
"323 647 LINE",
"15 647 LINE",
"15 530 LINE",
"36 530 LINE SMOOTH",
"64 530 OFFCURVE",
"77 516 OFFCURVE",
"77 493 CURVE SMOOTH",
"77 156 LINE SMOOTH",
"77 129 OFFCURVE",
"64 116 OFFCURVE",
"36 116 CURVE SMOOTH",
"15 116 LINE",
"15 0 LINE"
);
},
{
closed = 1;
nodes = (
"559 481 LINE",
"630 714 LINE",
"441 714 LINE",
"406 481 LINE"
);
}
);
width = 550;
}
);
note = Lcaron;
rightKerningGroup = L;
unicode = 013D;
},
{
glyphname = Lcommaaccent;
lastChange = "2015-08-01 07:38:51 +0000";
layers = (
{
layerId = "933D8F18-C226-4057-AED3-19590AE810D9";
name = Bold;
paths = (
{
closed = 1;
nodes = (
"533 0 LINE",
"533 199 LINE",
"365 199 LINE",
"365 156 LINE SMOOTH",
"365 129 OFFCURVE",
"352 116 OFFCURVE",
"324 116 CURVE SMOOTH",
"262 116 LINE",
"262 493 LINE SMOOTH",
"262 516 OFFCURVE",
"274 530 OFFCURVE",
"302 530 CURVE SMOOTH",
"323 530 LINE",
"323 647 LINE",
"15 647 LINE",
"15 530 LINE",
"36 530 LINE SMOOTH",
"64 530 OFFCURVE",
"77 516 OFFCURVE",
"77 493 CURVE SMOOTH",
"77 156 LINE SMOOTH",
"77 129 OFFCURVE",
"64 116 OFFCURVE",
"36 116 CURVE SMOOTH",
"15 116 LINE",
"15 0 LINE"
);
},
{
closed = 1;
nodes = (
"358 -282 LINE",
"429 -49 LINE",
"240 -49 LINE",
"205 -282 LINE"
);
}
);
width = 518;
}
);
note = Lcommaaccent;
rightKerningGroup = L;
unicode = 013B;
},
{
glyphname = Ldot;
lastChange = "2015-08-01 07:38:50 +0000";
layers = (
{
layerId = "933D8F18-C226-4057-AED3-19590AE810D9";
name = Bold;
paths = (
{
closed = 1;
nodes = (
"533 0 LINE",
"533 199 LINE",
"365 199 LINE",
"365 156 LINE SMOOTH",
"365 129 OFFCURVE",
"352 116 OFFCURVE",
"324 116 CURVE SMOOTH",
"262 116 LINE",
"262 493 LINE SMOOTH",
"262 516 OFFCURVE",
"274 530 OFFCURVE",
"302 530 CURVE SMOOTH",
"323 530 LINE",
"323 647 LINE",
"15 647 LINE",
"15 530 LINE",
"36 530 LINE SMOOTH",
"64 530 OFFCURVE",
"77 516 OFFCURVE",
"77 493 CURVE SMOOTH",
"77 156 LINE SMOOTH",
"77 129 OFFCURVE",
"64 116 OFFCURVE",
"36 116 CURVE SMOOTH",
"15 116 LINE",
"15 0 LINE"
);
},
{
closed = 1;
nodes = (
"459 309 LINE",
"459 446 LINE",
"329 446 LINE",
"329 309 LINE"
);
}
);
width = 518;
}
);
note = Ldot;
rightKerningGroup = L;
unicode = 013F;
},
{
glyphname = Ldotbelow;
lastChange = "2015-11-24 06:06:22 +0000";
layers = (
{
layerId = "933D8F18-C226-4057-AED3-19590AE810D9";
name = Bold;
paths = (
{
closed = 1;
nodes = (
"533 0 LINE",
"533 199 LINE",
"365 199 LINE",
"365 156 LINE SMOOTH",
"365 129 OFFCURVE",
"352 116 OFFCURVE",
"324 116 CURVE SMOOTH",
"262 116 LINE",
"262 493 LINE SMOOTH",
"262 516 OFFCURVE",
"274 530 OFFCURVE",
"302 530 CURVE SMOOTH",
"323 530 LINE",
"323 647 LINE",
"15 647 LINE",
"15 530 LINE",
"36 530 LINE SMOOTH",
"64 530 OFFCURVE",
"77 516 OFFCURVE",
"77 493 CURVE SMOOTH",
"77 156 LINE SMOOTH",
"77 129 OFFCURVE",
"64 116 OFFCURVE",
"36 116 CURVE SMOOTH",
"15 116 LINE",
"15 0 LINE"
);
},
{
closed = 1;
nodes = (
"341 -197 LINE",
"341 -60 LINE",
"212 -60 LINE",
"212 -197 LINE"
);
}
);
width = 518;
}
);
note = Ldotbelow;
rightKerningGroup = L;
unicode = 1E36;
},
{
glyphname = Ldotbelowmacron;
lastChange = "2015-11-24 06:06:14 +0000";
layers = (
{
layerId = "933D8F18-C226-4057-AED3-19590AE810D9";
name = Bold;
paths = (
{
closed = 1;
nodes = (
"533 0 LINE",
"533 199 LINE",
"365 199 LINE",
"365 156 LINE SMOOTH",
"365 129 OFFCURVE",
"352 116 OFFCURVE",
"324 116 CURVE SMOOTH",
"262 116 LINE",
"262 493 LINE SMOOTH",
"262 516 OFFCURVE",
"274 530 OFFCURVE",
"302 530 CURVE SMOOTH",
"323 530 LINE",
"323 647 LINE",
"15 647 LINE",
"15 530 LINE",
"36 530 LINE SMOOTH",
"64 530 OFFCURVE",
"77 516 OFFCURVE",
"77 493 CURVE SMOOTH",
"77 156 LINE SMOOTH",
"77 129 OFFCURVE",
"64 116 OFFCURVE",
"36 116 CURVE SMOOTH",
"15 116 LINE",
"15 0 LINE"
);
},
{
closed = 1;
nodes = (
"341 -197 LINE",
"341 -60 LINE",
"212 -60 LINE",
"212 -197 LINE"
);
},
{
closed = 1;
nodes = (
"332 701 LINE",
"332 806 LINE",
"15 806 LINE",
"15 701 LINE"
);
}
);
width = 518;
}
);
note = Ldotbelowmacron;
rightKerningGroup = L;
unicode = 1E38;
},
{
glyphname = Llinebelow;
lastChange = "2015-08-01 07:38:50 +0000";
layers = (
{
layerId = "933D8F18-C226-4057-AED3-19590AE810D9";
name = Bold;
paths = (
{
closed = 1;
nodes = (
"533 0 LINE",
"533 199 LINE",
"365 199 LINE",
"365 156 LINE SMOOTH",
"365 129 OFFCURVE",
"352 116 OFFCURVE",
"324 116 CURVE SMOOTH",
"262 116 LINE",
"262 493 LINE SMOOTH",
"262 516 OFFCURVE",
"274 530 OFFCURVE",
"302 530 CURVE SMOOTH",
"323 530 LINE",
"323 647 LINE",
"15 647 LINE",
"15 530 LINE",
"36 530 LINE SMOOTH",
"64 530 OFFCURVE",
"77 516 OFFCURVE",
"77 493 CURVE SMOOTH",
"77 156 LINE SMOOTH",
"77 129 OFFCURVE",
"64 116 OFFCURVE",
"36 116 CURVE SMOOTH",
"15 116 LINE",
"15 0 LINE"
);
},
{
closed = 1;
nodes = (
"428 -149 LINE",
"428 -44 LINE",
"111 -44 LINE",
"111 -149 LINE"
);
}
);
width = 518;
}
);
note = Llinebelow;
rightKerningGroup = L;
unicode = 1E3A;
},
{
glyphname = Lslash;
lastChange = "2015-08-01 07:38:51 +0000";
layers = (
{
layerId = "933D8F18-C226-4057-AED3-19590AE810D9";
name = Bold;
paths = (
{
closed = 1;
nodes = (
"533 0 LINE",
"533 199 LINE",
"365 199 LINE",
"365 156 LINE SMOOTH",
"365 129 OFFCURVE",
"352 116 OFFCURVE",
"324 116 CURVE SMOOTH",
"262 116 LINE",
"262 493 LINE SMOOTH",
"262 516 OFFCURVE",
"274 530 OFFCURVE",
"302 530 CURVE SMOOTH",
"323 530 LINE",
"323 647 LINE",
"15 647 LINE",
"15 530 LINE",
"36 530 LINE SMOOTH",
"64 530 OFFCURVE",
"77 516 OFFCURVE",
"77 493 CURVE SMOOTH",
"77 156 LINE SMOOTH",
"77 129 OFFCURVE",
"64 116 OFFCURVE",
"36 116 CURVE SMOOTH",
"15 116 LINE",
"15 0 LINE"
);
},
{
closed = 1;
nodes = (
"332 360 LINE",
"332 482 LINE",
"20 302 LINE",
"20 180 LINE"
);
}
);
width = 518;
}
);
note = Lslash;
rightKerningGroup = L;
unicode = 0141;
},
{
glyphname = M;
lastChange = "2015-07-31 14:10:13 +0000";
layers = (
{
layerId = "933D8F18-C226-4057-AED3-19590AE810D9";
name = Bold;
paths = (
{
closed = 1;
nodes = (
"320 0 LINE",
"320 116 LINE",
"299 116 LINE SMOOTH",
"271 116 OFFCURVE",
"258 130 OFFCURVE",
"258 153 CURVE SMOOTH",
"258 371 LINE",
"333 197 LINE",
"440 197 LINE",
"515 371 LINE",
"515 153 LINE SMOOTH",
"515 130 OFFCURVE",
"502 116 OFFCURVE",
"474 116 CURVE SMOOTH",
"453 116 LINE",
"453 0 LINE",
"758 0 LINE",
"758 116 LINE",
"737 116 LINE SMOOTH",
"709 116 OFFCURVE",
"697 129 OFFCURVE",
"697 156 CURVE SMOOTH",
"697 492 LINE SMOOTH",
"697 518 OFFCURVE",
"709 531 OFFCURVE",
"737 531 CURVE SMOOTH",
"758 531 LINE",
"758 647 LINE",
"517 647 LINE",
"387 347 LINE",
"256 647 LINE",
"15 647 LINE",
"15 531 LINE",
"36 531 LINE SMOOTH",
"64 531 OFFCURVE",
"77 518 OFFCURVE",
"77 492 CURVE SMOOTH",
"77 156 LINE SMOOTH",
"77 129 OFFCURVE",
"64 116 OFFCURVE",
"36 116 CURVE SMOOTH",
"15 116 LINE",
"15 0 LINE"
);
}
);
width = 773;
}
);
note = M;
unicode = 004D;
},
{
glyphname = Mdotbelow;
lastChange = "2015-07-31 14:10:16 +0000";
layers = (
{
layerId = "933D8F18-C226-4057-AED3-19590AE810D9";
name = Bold;
paths = (
{
closed = 1;
nodes = (
"320 0 LINE",
"320 116 LINE",
"299 116 LINE SMOOTH",
"271 116 OFFCURVE",
"258 130 OFFCURVE",
"258 153 CURVE SMOOTH",
"258 371 LINE",
"333 197 LINE",
"440 197 LINE",
"515 371 LINE",
"515 153 LINE SMOOTH",
"515 130 OFFCURVE",
"502 116 OFFCURVE",
"474 116 CURVE SMOOTH",
"453 116 LINE",
"453 0 LINE",
"758 0 LINE",
"758 116 LINE",
"737 116 LINE SMOOTH",
"709 116 OFFCURVE",
"697 129 OFFCURVE",
"697 156 CURVE SMOOTH",
"697 492 LINE SMOOTH",
"697 518 OFFCURVE",
"709 531 OFFCURVE",
"737 531 CURVE SMOOTH",
"758 531 LINE",
"758 647 LINE",
"517 647 LINE",
"387 347 LINE",
"256 647 LINE",
"15 647 LINE",
"15 531 LINE",
"36 531 LINE SMOOTH",
"64 531 OFFCURVE",
"77 518 OFFCURVE",
"77 492 CURVE SMOOTH",
"77 156 LINE SMOOTH",
"77 129 OFFCURVE",
"64 116 OFFCURVE",
"36 116 CURVE SMOOTH",
"15 116 LINE",
"15 0 LINE"
);
},
{
closed = 1;
nodes = (
"453 -197 LINE",
"453 -60 LINE",
"324 -60 LINE",
"324 -197 LINE"
);
}
);
width = 773;
}
);
note = Mdotbelow;
unicode = 1E42;
},
{
glyphname = N;
lastChange = "2015-07-31 14:10:13 +0000";
layers = (
{
layerId = "933D8F18-C226-4057-AED3-19590AE810D9";
name = Bold;
paths = (
{
closed = 1;
nodes = (
"322 0 LINE",
"322 117 LINE",
"301 117 LINE SMOOTH",
"273 117 OFFCURVE",
"260 132 OFFCURVE",
"260 154 CURVE SMOOTH",
"260 350 LINE",
"486 0 LINE",
"621 0 LINE",
"621 493 LINE SMOOTH",
"621 516 OFFCURVE",
"634 530 OFFCURVE",
"662 530 CURVE SMOOTH",
"683 530 LINE",
"683 647 LINE",
"376 647 LINE",
"376 530 LINE",
"397 530 LINE SMOOTH",
"425 530 OFFCURVE",
"438 516 OFFCURVE",
"438 493 CURVE SMOOTH",
"438 293 LINE",
"211 647 LINE",
"15 647 LINE",
"15 530 LINE",
"36 530 LINE SMOOTH",
"64 530 OFFCURVE",
"76 516 OFFCURVE",
"76 493 CURVE SMOOTH",
"76 154 LINE SMOOTH",
"76 132 OFFCURVE",
"64 117 OFFCURVE",
"36 117 CURVE SMOOTH",
"15 117 LINE",
"15 0 LINE"
);
}
);
width = 698;
}
);
note = N;
unicode = 004E;
},
{
glyphname = Nacute;
lastChange = "2015-07-31 14:10:16 +0000";
layers = (
{
layerId = "933D8F18-C226-4057-AED3-19590AE810D9";
name = Bold;
paths = (
{
closed = 1;
nodes = (
"322 0 LINE",
"322 117 LINE",
"301 117 LINE SMOOTH",
"273 117 OFFCURVE",
"260 132 OFFCURVE",
"260 154 CURVE SMOOTH",
"260 350 LINE",
"486 0 LINE",
"621 0 LINE",
"621 493 LINE SMOOTH",
"621 516 OFFCURVE",
"634 530 OFFCURVE",
"662 530 CURVE SMOOTH",
"683 530 LINE",
"683 647 LINE",
"376 647 LINE",
"376 530 LINE",
"397 530 LINE SMOOTH",
"425 530 OFFCURVE",
"438 516 OFFCURVE",
"438 493 CURVE SMOOTH",
"438 293 LINE",
"211 647 LINE",
"15 647 LINE",
"15 530 LINE",
"36 530 LINE SMOOTH",
"64 530 OFFCURVE",
"76 516 OFFCURVE",
"76 493 CURVE SMOOTH",
"76 154 LINE SMOOTH",
"76 132 OFFCURVE",
"64 117 OFFCURVE",
"36 117 CURVE SMOOTH",
"15 117 LINE",
"15 0 LINE"
);
},
{
closed = 1;
nodes = (
"403 697 LINE",
"515 879 LINE",
"319 879 LINE",
"248 697 LINE"
);
}
);
width = 698;
}
);
note = Nacute;
unicode = 0143;
},
{
glyphname = Ncaron;
lastChange = "2015-07-31 14:10:15 +0000";
layers = (
{
layerId = "933D8F18-C226-4057-AED3-19590AE810D9";
name = Bold;
paths = (
{
closed = 1;
nodes = (
"322 0 LINE",
"322 117 LINE",
"301 117 LINE SMOOTH",
"273 117 OFFCURVE",
"260 132 OFFCURVE",
"260 154 CURVE SMOOTH",
"260 350 LINE",
"486 0 LINE",
"621 0 LINE",
"621 493 LINE SMOOTH",
"621 516 OFFCURVE",
"634 530 OFFCURVE",
"662 530 CURVE SMOOTH",
"683 530 LINE",
"683 647 LINE",
"376 647 LINE",
"376 530 LINE",
"397 530 LINE SMOOTH",
"425 530 OFFCURVE",
"438 516 OFFCURVE",
"438 493 CURVE SMOOTH",
"438 293 LINE",
"211 647 LINE",
"15 647 LINE",
"15 530 LINE",
"36 530 LINE SMOOTH",
"64 530 OFFCURVE",
"76 516 OFFCURVE",
"76 493 CURVE SMOOTH",
"76 154 LINE SMOOTH",
"76 132 OFFCURVE",
"64 117 OFFCURVE",
"36 117 CURVE SMOOTH",
"15 117 LINE",
"15 0 LINE"
);
},
{
closed = 1;
nodes = (
"412 697 LINE",
"552 901 LINE",
"389 901 LINE",
"334 793 LINE",
"277 901 LINE",
"117 901 LINE",
"258 697 LINE"
);
}
);
width = 698;
}
);
note = Ncaron;
unicode = 0147;
},
{
glyphname = Ncommaaccent;
lastChange = "2015-07-31 14:10:16 +0000";
layers = (
{
layerId = "933D8F18-C226-4057-AED3-19590AE810D9";
name = Bold;
paths = (
{
closed = 1;
nodes = (
"322 0 LINE",
"322 117 LINE",
"301 117 LINE SMOOTH",
"273 117 OFFCURVE",
"260 132 OFFCURVE",
"260 154 CURVE SMOOTH",
"260 350 LINE",
"486 0 LINE",
"621 0 LINE",
"621 493 LINE SMOOTH",
"621 516 OFFCURVE",
"634 530 OFFCURVE",
"662 530 CURVE SMOOTH",
"683 530 LINE",
"683 647 LINE",
"376 647 LINE",
"376 530 LINE",
"397 530 LINE SMOOTH",
"425 530 OFFCURVE",
"438 516 OFFCURVE",
"438 493 CURVE SMOOTH",
"438 293 LINE",
"211 647 LINE",
"15 647 LINE",
"15 530 LINE",
"36 530 LINE SMOOTH",
"64 530 OFFCURVE",
"76 516 OFFCURVE",
"76 493 CURVE SMOOTH",
"76 154 LINE SMOOTH",
"76 132 OFFCURVE",
"64 117 OFFCURVE",
"36 117 CURVE SMOOTH",
"15 117 LINE",
"15 0 LINE"
);
},
{
closed = 1;
nodes = (
"441 -282 LINE",
"512 -49 LINE",
"323 -49 LINE",
"288 -282 LINE"
);
}
);
width = 698;
}
);
note = Ncommaaccent;
unicode = 0145;
},
{
glyphname = Ndotaccent;
lastChange = "2015-07-31 14:10:15 +0000";
layers = (
{
layerId = "933D8F18-C226-4057-AED3-19590AE810D9";
name = Bold;
paths = (
{
closed = 1;
nodes = (
"322 0 LINE",
"322 117 LINE",
"301 117 LINE SMOOTH",
"273 117 OFFCURVE",
"260 132 OFFCURVE",
"260 154 CURVE SMOOTH",
"260 350 LINE",
"486 0 LINE",
"621 0 LINE",
"621 493 LINE SMOOTH",
"621 516 OFFCURVE",
"634 530 OFFCURVE",
"662 530 CURVE SMOOTH",
"683 530 LINE",
"683 647 LINE",
"376 647 LINE",
"376 530 LINE",
"397 530 LINE SMOOTH",
"425 530 OFFCURVE",
"438 516 OFFCURVE",
"438 493 CURVE SMOOTH",
"438 293 LINE",
"211 647 LINE",
"15 647 LINE",
"15 530 LINE",
"36 530 LINE SMOOTH",
"64 530 OFFCURVE",
"76 516 OFFCURVE",
"76 493 CURVE SMOOTH",
"76 154 LINE SMOOTH",
"76 132 OFFCURVE",
"64 117 OFFCURVE",
"36 117 CURVE SMOOTH",
"15 117 LINE",
"15 0 LINE"
);
},
{
closed = 1;
nodes = (
"400 717 LINE",
"400 854 LINE",
"270 854 LINE",
"270 717 LINE"
);
}
);
width = 698;
}
);
note = Ndotaccent;
unicode = 1E44;
},
{
glyphname = Ndotbelow;
lastChange = "2015-07-31 14:10:16 +0000";
layers = (
{
layerId = "933D8F18-C226-4057-AED3-19590AE810D9";
name = Bold;
paths = (
{
closed = 1;
nodes = (
"322 0 LINE",
"322 117 LINE",
"301 117 LINE SMOOTH",
"273 117 OFFCURVE",
"260 132 OFFCURVE",
"260 154 CURVE SMOOTH",
"260 350 LINE",
"486 0 LINE",
"621 0 LINE",
"621 493 LINE SMOOTH",
"621 516 OFFCURVE",
"634 530 OFFCURVE",
"662 530 CURVE SMOOTH",
"683 530 LINE",
"683 647 LINE",
"376 647 LINE",
"376 530 LINE",
"397 530 LINE SMOOTH",
"425 530 OFFCURVE",
"438 516 OFFCURVE",
"438 493 CURVE SMOOTH",
"438 293 LINE",
"211 647 LINE",
"15 647 LINE",
"15 530 LINE",
"36 530 LINE SMOOTH",
"64 530 OFFCURVE",
"76 516 OFFCURVE",
"76 493 CURVE SMOOTH",
"76 154 LINE SMOOTH",
"76 132 OFFCURVE",
"64 117 OFFCURVE",
"36 117 CURVE SMOOTH",
"15 117 LINE",
"15 0 LINE"
);
},
{
closed = 1;
nodes = (
"411 -197 LINE",
"411 -60 LINE",
"282 -60 LINE",
"282 -197 LINE"
);
}
);
width = 698;
}
);
note = Ndotbelow;
unicode = 1E46;
},
{
glyphname = Eng;
lastChange = "2015-07-31 14:10:13 +0000";
layers = (
{
layerId = "933D8F18-C226-4057-AED3-19590AE810D9";
name = Bold;
paths = (
{
closed = 1;
nodes = (
"552 -285 OFFCURVE",
"621 -220 OFFCURVE",
"621 -109 CURVE SMOOTH",
"621 493 LINE SMOOTH",
"621 516 OFFCURVE",
"634 530 OFFCURVE",
"662 530 CURVE SMOOTH",
"683 530 LINE",
"683 647 LINE",
"376 647 LINE",
"376 530 LINE",
"397 530 LINE SMOOTH",
"425 530 OFFCURVE",
"438 516 OFFCURVE",
"438 493 CURVE SMOOTH",
"438 293 LINE",
"211 647 LINE",
"15 647 LINE",
"15 530 LINE",
"36 530 LINE SMOOTH",
"64 530 OFFCURVE",
"76 516 OFFCURVE",
"76 493 CURVE SMOOTH",
"76 154 LINE SMOOTH",
"76 132 OFFCURVE",
"64 117 OFFCURVE",
"36 117 CURVE SMOOTH",
"15 117 LINE",
"15 0 LINE",
"322 0 LINE",
"322 117 LINE",
"301 117 LINE SMOOTH",
"273 117 OFFCURVE",
"260 132 OFFCURVE",
"260 154 CURVE SMOOTH",
"260 350 LINE",
"433 82 LINE",
"433 -134 LINE SMOOTH",
"433 -163 OFFCURVE",
"417 -174 OFFCURVE",
"388 -174 CURVE SMOOTH",
"370 -174 OFFCURVE",
"357 -170 OFFCURVE",
"342 -158 CURVE",
"342 -116 LINE",
"194 -116 LINE",
"194 -227 LINE",
"238 -261 OFFCURVE",
"309 -285 OFFCURVE",
"397 -285 CURVE SMOOTH"
);
}
);
width = 698;
}
);
note = Eng;
unicode = 014A;
},
{
glyphname = Nlinebelow;
lastChange = "2015-07-31 14:10:15 +0000";
layers = (
{
layerId = "933D8F18-C226-4057-AED3-19590AE810D9";
name = Bold;
paths = (
{
closed = 1;
nodes = (
"322 0 LINE",
"322 117 LINE",
"301 117 LINE SMOOTH",
"273 117 OFFCURVE",
"260 132 OFFCURVE",
"260 154 CURVE SMOOTH",
"260 350 LINE",
"486 0 LINE",
"621 0 LINE",
"621 493 LINE SMOOTH",
"621 516 OFFCURVE",
"634 530 OFFCURVE",
"662 530 CURVE SMOOTH",
"683 530 LINE",
"683 647 LINE",
"376 647 LINE",
"376 530 LINE",
"397 530 LINE SMOOTH",
"425 530 OFFCURVE",
"438 516 OFFCURVE",
"438 493 CURVE SMOOTH",
"438 293 LINE",
"211 647 LINE",
"15 647 LINE",
"15 530 LINE",
"36 530 LINE SMOOTH",
"64 530 OFFCURVE",
"76 516 OFFCURVE",
"76 493 CURVE SMOOTH",
"76 154 LINE SMOOTH",
"76 132 OFFCURVE",
"64 117 OFFCURVE",
"36 117 CURVE SMOOTH",
"15 117 LINE",
"15 0 LINE"
);
},
{
closed = 1;
nodes = (
"491 -149 LINE",
"491 -44 LINE",
"174 -44 LINE",
"174 -149 LINE"
);
}
);
width = 698;
}
);
note = Nlinebelow;
unicode = 1E48;
},
{
glyphname = Ntilde;
lastChange = "2015-07-31 14:10:15 +0000";
layers = (
{
layerId = "933D8F18-C226-4057-AED3-19590AE810D9";
name = Bold;
paths = (
{
closed = 1;
nodes = (
"322 0 LINE",
"322 117 LINE",
"301 117 LINE SMOOTH",
"273 117 OFFCURVE",
"260 132 OFFCURVE",
"260 154 CURVE SMOOTH",
"260 350 LINE",
"486 0 LINE",
"621 0 LINE",
"621 493 LINE SMOOTH",
"621 516 OFFCURVE",
"634 530 OFFCURVE",
"662 530 CURVE SMOOTH",
"683 530 LINE",
"683 647 LINE",
"376 647 LINE",
"376 530 LINE",
"397 530 LINE SMOOTH",
"425 530 OFFCURVE",
"438 516 OFFCURVE",
"438 493 CURVE SMOOTH",
"438 293 LINE",
"211 647 LINE",
"15 647 LINE",
"15 530 LINE",
"36 530 LINE SMOOTH",
"64 530 OFFCURVE",
"76 516 OFFCURVE",
"76 493 CURVE SMOOTH",
"76 154 LINE SMOOTH",
"76 132 OFFCURVE",
"64 117 OFFCURVE",
"36 117 CURVE SMOOTH",
"15 117 LINE",
"15 0 LINE"
);
},
{
closed = 1;
nodes = (
"236 697 LINE",
"236 726 OFFCURVE",
"252 743 OFFCURVE",
"280 743 CURVE SMOOTH",
"322 743 OFFCURVE",
"353 697 OFFCURVE",
"431 697 CURVE SMOOTH",
"527 697 OFFCURVE",
"561 755 OFFCURVE",
"561 882 CURVE",
"436 882 LINE",
"436 854 OFFCURVE",
"423 836 OFFCURVE",
"393 836 CURVE SMOOTH",
"349 836 OFFCURVE",
"320 882 OFFCURVE",
"245 882 CURVE SMOOTH",
"149 882 OFFCURVE",
"111 821 OFFCURVE",
"111 697 CURVE"
);
}
);
width = 698;
}
);
note = Ntilde;
unicode = 00D1;
},
{
glyphname = O;
lastChange = "2015-08-01 07:38:51 +0000";
layers = (
{
layerId = "933D8F18-C226-4057-AED3-19590AE810D9";
name = Bold;
paths = (
{
closed = 1;
nodes = (
"551 -15 OFFCURVE",
"655 96 OFFCURVE",
"655 321 CURVE SMOOTH",
"655 546 OFFCURVE",
"560 662 OFFCURVE",
"335 662 CURVE SMOOTH",
"110 662 OFFCURVE",
"15 546 OFFCURVE",
"15 321 CURVE SMOOTH",
"15 96 OFFCURVE",
"118 -15 OFFCURVE",
"335 -15 CURVE SMOOTH"
);
},
{
closed = 1;
nodes = (
"234 102 OFFCURVE",
"198 161 OFFCURVE",
"198 321 CURVE SMOOTH",
"198 486 OFFCURVE",
"234 545 OFFCURVE",
"335 545 CURVE SMOOTH",
"436 545 OFFCURVE",
"472 486 OFFCURVE",
"472 321 CURVE SMOOTH",
"472 161 OFFCURVE",
"436 102 OFFCURVE",
"335 102 CURVE SMOOTH"
);
}
);
width = 670;
}
);
leftKerningGroup = O;
note = O;
rightKerningGroup = O;
unicode = 004F;
},
{
glyphname = Oacute;
lastChange = "2015-08-01 07:38:51 +0000";
layers = (
{
layerId = "933D8F18-C226-4057-AED3-19590AE810D9";
name = Bold;
paths = (
{
closed = 1;
nodes = (
"551 -15 OFFCURVE",
"655 96 OFFCURVE",
"655 321 CURVE SMOOTH",
"655 546 OFFCURVE",
"560 662 OFFCURVE",
"335 662 CURVE SMOOTH",
"110 662 OFFCURVE",
"15 546 OFFCURVE",
"15 321 CURVE SMOOTH",
"15 96 OFFCURVE",
"118 -15 OFFCURVE",
"335 -15 CURVE SMOOTH"
);
},
{
closed = 1;
nodes = (
"234 102 OFFCURVE",
"198 161 OFFCURVE",
"198 321 CURVE SMOOTH",
"198 486 OFFCURVE",
"234 545 OFFCURVE",
"335 545 CURVE SMOOTH",
"436 545 OFFCURVE",
"472 486 OFFCURVE",
"472 321 CURVE SMOOTH",
"472 161 OFFCURVE",
"436 102 OFFCURVE",
"335 102 CURVE SMOOTH"
);
},
{
closed = 1;
nodes = (
"404 697 LINE",
"516 879 LINE",
"320 879 LINE",
"249 697 LINE"
);
}
);
width = 670;
}
);
leftKerningGroup = O;
note = Oacute;
rightKerningGroup = O;
unicode = 00D3;
},
{
glyphname = Obreve;
lastChange = "2015-08-01 07:38:50 +0000";
layers = (
{
layerId = "933D8F18-C226-4057-AED3-19590AE810D9";
name = Bold;
paths = (
{
closed = 1;
nodes = (
"551 -15 OFFCURVE",
"655 96 OFFCURVE",
"655 321 CURVE SMOOTH",
"655 546 OFFCURVE",
"560 662 OFFCURVE",
"335 662 CURVE SMOOTH",
"110 662 OFFCURVE",
"15 546 OFFCURVE",
"15 321 CURVE SMOOTH",
"15 96 OFFCURVE",
"118 -15 OFFCURVE",
"335 -15 CURVE SMOOTH"
);
},
{
closed = 1;
nodes = (
"234 102 OFFCURVE",
"198 161 OFFCURVE",
"198 321 CURVE SMOOTH",
"198 486 OFFCURVE",
"234 545 OFFCURVE",
"335 545 CURVE SMOOTH",
"436 545 OFFCURVE",
"472 486 OFFCURVE",
"472 321 CURVE SMOOTH",
"472 161 OFFCURVE",
"436 102 OFFCURVE",
"335 102 CURVE SMOOTH"
);
},
{
closed = 1;
nodes = (
"462 697 OFFCURVE",
"527 763 OFFCURVE",
"527 860 CURVE",
"374 860 LINE",
"374 826 OFFCURVE",
"370 804 OFFCURVE",
"339 804 CURVE SMOOTH",
"312 804 OFFCURVE",
"304 826 OFFCURVE",
"304 860 CURVE",
"151 860 LINE",
"151 763 OFFCURVE",
"216 697 OFFCURVE",
"339 697 CURVE SMOOTH"
);
}
);
width = 670;
}
);
leftKerningGroup = O;
note = Obreve;
rightKerningGroup = O;
unicode = 014E;
},
{
glyphname = Ocaron;
lastChange = "2015-08-01 07:38:51 +0000";
layers = (
{
layerId = "933D8F18-C226-4057-AED3-19590AE810D9";
name = Bold;
paths = (
{
closed = 1;
nodes = (
"551 -15 OFFCURVE",
"655 96 OFFCURVE",
"655 321 CURVE SMOOTH",
"655 546 OFFCURVE",
"560 662 OFFCURVE",
"335 662 CURVE SMOOTH",
"110 662 OFFCURVE",
"15 546 OFFCURVE",
"15 321 CURVE SMOOTH",
"15 96 OFFCURVE",
"118 -15 OFFCURVE",
"335 -15 CURVE SMOOTH"
);
},
{
closed = 1;
nodes = (
"234 102 OFFCURVE",
"198 161 OFFCURVE",
"198 321 CURVE SMOOTH",
"198 486 OFFCURVE",
"234 545 OFFCURVE",
"335 545 CURVE SMOOTH",
"436 545 OFFCURVE",
"472 486 OFFCURVE",
"472 321 CURVE SMOOTH",
"472 161 OFFCURVE",
"436 102 OFFCURVE",
"335 102 CURVE SMOOTH"
);
},
{
closed = 1;
nodes = (
"412 697 LINE",
"552 901 LINE",
"389 901 LINE",
"334 793 LINE",
"277 901 LINE",
"117 901 LINE",
"258 697 LINE"
);
}
);
width = 670;
}
);
leftKerningGroup = O;
note = Ocaron;
rightKerningGroup = O;
unicode = 01D1;
},
{
glyphname = Ocircumflex;
lastChange = "2015-08-01 07:38:50 +0000";
layers = (
{
layerId = "933D8F18-C226-4057-AED3-19590AE810D9";
name = Bold;
paths = (
{
closed = 1;
nodes = (
"551 -15 OFFCURVE",
"655 96 OFFCURVE",
"655 321 CURVE SMOOTH",
"655 546 OFFCURVE",
"560 662 OFFCURVE",
"335 662 CURVE SMOOTH",
"110 662 OFFCURVE",
"15 546 OFFCURVE",
"15 321 CURVE SMOOTH",
"15 96 OFFCURVE",
"118 -15 OFFCURVE",
"335 -15 CURVE SMOOTH"
);
},
{
closed = 1;
nodes = (
"234 102 OFFCURVE",
"198 161 OFFCURVE",
"198 321 CURVE SMOOTH",
"198 486 OFFCURVE",
"234 545 OFFCURVE",
"335 545 CURVE SMOOTH",
"436 545 OFFCURVE",
"472 486 OFFCURVE",
"472 321 CURVE SMOOTH",
"472 161 OFFCURVE",
"436 102 OFFCURVE",
"335 102 CURVE SMOOTH"
);
},
{
closed = 1;
nodes = (
"278 697 LINE",
"335 804 LINE",
"390 697 LINE",
"553 697 LINE",
"413 900 LINE",
"259 900 LINE",
"118 697 LINE"
);
}
);
width = 670;
}
);
leftKerningGroup = O;
note = Ocircumflex;
rightKerningGroup = O;
unicode = 00D4;
},
{
glyphname = Ocircumflexacute;
lastChange = "2015-11-24 06:06:44 +0000";
layers = (
{
layerId = "933D8F18-C226-4057-AED3-19590AE810D9";
name = Bold;
paths = (
{
closed = 1;
nodes = (
"551 -15 OFFCURVE",
"655 96 OFFCURVE",
"655 321 CURVE SMOOTH",
"655 546 OFFCURVE",
"560 662 OFFCURVE",
"335 662 CURVE SMOOTH",
"110 662 OFFCURVE",
"15 546 OFFCURVE",
"15 321 CURVE SMOOTH",
"15 96 OFFCURVE",
"118 -15 OFFCURVE",
"335 -15 CURVE SMOOTH"
);
},
{
closed = 1;
nodes = (
"234 102 OFFCURVE",
"198 161 OFFCURVE",
"198 321 CURVE SMOOTH",
"198 486 OFFCURVE",
"234 545 OFFCURVE",
"335 545 CURVE SMOOTH",
"436 545 OFFCURVE",
"472 486 OFFCURVE",
"472 321 CURVE SMOOTH",
"472 161 OFFCURVE",
"436 102 OFFCURVE",
"335 102 CURVE SMOOTH"
);
},
{
closed = 1;
nodes = (
"273 697 LINE",
"318 761 LINE",
"358 697 LINE",
"508 697 LINE",
"391 843 LINE",
"244 843 LINE",
"126 697 LINE"
);
},
{
closed = 1;
nodes = (
"554 812 LINE",
"658 958 LINE",
"493 958 LINE",
"430 812 LINE"
);
}
);
width = 670;
}
);
leftKerningGroup = O;
note = Ocircumflexacute;
rightKerningGroup = O;
unicode = 1ED0;
},
{
glyphname = Ocircumflexdotbelow;
lastChange = "2015-11-24 06:06:50 +0000";
layers = (
{
layerId = "933D8F18-C226-4057-AED3-19590AE810D9";
name = Bold;
paths = (
{
closed = 1;
nodes = (
"551 -15 OFFCURVE",
"655 96 OFFCURVE",
"655 321 CURVE SMOOTH",
"655 546 OFFCURVE",
"560 662 OFFCURVE",
"335 662 CURVE SMOOTH",
"110 662 OFFCURVE",
"15 546 OFFCURVE",
"15 321 CURVE SMOOTH",
"15 96 OFFCURVE",
"118 -15 OFFCURVE",
"335 -15 CURVE SMOOTH"
);
},
{
closed = 1;
nodes = (
"234 102 OFFCURVE",
"198 161 OFFCURVE",
"198 321 CURVE SMOOTH",
"198 486 OFFCURVE",
"234 545 OFFCURVE",
"335 545 CURVE SMOOTH",
"436 545 OFFCURVE",
"472 486 OFFCURVE",
"472 321 CURVE SMOOTH",
"472 161 OFFCURVE",
"436 102 OFFCURVE",
"335 102 CURVE SMOOTH"
);
},
{
closed = 1;
nodes = (
"281 697 LINE",
"338 804 LINE",
"393 697 LINE",
"556 697 LINE",
"416 900 LINE",
"262 900 LINE",
"121 697 LINE"
);
},
{
closed = 1;
nodes = (
"401 -197 LINE",
"401 -60 LINE",
"272 -60 LINE",
"272 -197 LINE"
);
}
);
width = 670;
}
);
leftKerningGroup = O;
note = Ocircumflexdotbelow;
rightKerningGroup = O;
unicode = 1ED8;
},
{
glyphname = Ocircumflexgrave;
lastChange = "2015-11-24 06:06:59 +0000";
layers = (
{
layerId = "933D8F18-C226-4057-AED3-19590AE810D9";
name = Bold;
paths = (
{
closed = 1;
nodes = (
"551 -15 OFFCURVE",
"655 96 OFFCURVE",
"655 321 CURVE SMOOTH",
"655 546 OFFCURVE",
"560 662 OFFCURVE",
"335 662 CURVE SMOOTH",
"110 662 OFFCURVE",
"15 546 OFFCURVE",
"15 321 CURVE SMOOTH",
"15 96 OFFCURVE",
"118 -15 OFFCURVE",
"335 -15 CURVE SMOOTH"
);
},
{
closed = 1;
nodes = (
"234 102 OFFCURVE",
"198 161 OFFCURVE",
"198 321 CURVE SMOOTH",
"198 486 OFFCURVE",
"234 545 OFFCURVE",
"335 545 CURVE SMOOTH",
"436 545 OFFCURVE",
"472 486 OFFCURVE",
"472 321 CURVE SMOOTH",
"472 161 OFFCURVE",
"436 102 OFFCURVE",
"335 102 CURVE SMOOTH"
);
},
{
closed = 1;
nodes = (
"288 697 LINE",
"328 761 LINE",
"373 697 LINE",
"520 697 LINE",
"402 843 LINE",
"255 843 LINE",
"138 697 LINE"
);
},
{
closed = 1;
nodes = (
"203 812 LINE",
"140 958 LINE",
"-25 958 LINE",
"79 812 LINE"
);
}
);
width = 670;
}
);
leftKerningGroup = O;
note = Ocircumflexgrave;
rightKerningGroup = O;
unicode = 1ED2;
},
{
glyphname = Ocircumflexhookabove;
lastChange = "2015-08-01 07:38:51 +0000";
layers = (
{
layerId = "933D8F18-C226-4057-AED3-19590AE810D9";
name = Bold;
paths = (
{
closed = 1;
nodes = (
"551 -15 OFFCURVE",
"655 96 OFFCURVE",
"655 321 CURVE SMOOTH",
"655 546 OFFCURVE",
"560 662 OFFCURVE",
"335 662 CURVE SMOOTH",
"110 662 OFFCURVE",
"15 546 OFFCURVE",
"15 321 CURVE SMOOTH",
"15 96 OFFCURVE",
"118 -15 OFFCURVE",
"335 -15 CURVE SMOOTH"
);
},
{
closed = 1;
nodes = (
"234 102 OFFCURVE",
"198 161 OFFCURVE",
"198 321 CURVE SMOOTH",
"198 486 OFFCURVE",
"234 545 OFFCURVE",
"335 545 CURVE SMOOTH",
"436 545 OFFCURVE",
"472 486 OFFCURVE",
"472 321 CURVE SMOOTH",
"472 161 OFFCURVE",
"436 102 OFFCURVE",
"335 102 CURVE SMOOTH"
);
},
{
closed = 1;
nodes = (
"283 697 LINE",
"323 761 LINE",
"368 697 LINE",
"515 697 LINE",
"397 843 LINE",
"250 843 LINE",
"133 697 LINE"
);
},
{
closed = 1;
nodes = (
"524 841 LINE",
"524 864 LINE",
"552 875 OFFCURVE",
"565 895 OFFCURVE",
"565 924 CURVE SMOOTH",
"565 970 OFFCURVE",
"529 990 OFFCURVE",
"463 990 CURVE SMOOTH",
"431 990 OFFCURVE",
"407 986 OFFCURVE",
"391 980 CURVE",
"391 916 LINE",
"400 920 OFFCURVE",
"411 923 OFFCURVE",
"422 923 CURVE SMOOTH",
"439 923 OFFCURVE",
"448 915 OFFCURVE",
"448 903 CURVE SMOOTH",
"448 890 OFFCURVE",
"439 879 OFFCURVE",
"412 879 CURVE",
"412 841 LINE"
);
}
);
width = 670;
}
);
leftKerningGroup = O;
note = Ocircumflexhookabove;
rightKerningGroup = O;
unicode = 1ED4;
},
{
glyphname = Ocircumflextilde;
lastChange = "2015-08-01 07:38:51 +0000";
layers = (
{
layerId = "933D8F18-C226-4057-AED3-19590AE810D9";
name = Bold;
paths = (
{
closed = 1;
nodes = (
"551 -15 OFFCURVE",
"655 96 OFFCURVE",
"655 321 CURVE SMOOTH",
"655 546 OFFCURVE",
"560 662 OFFCURVE",
"335 662 CURVE SMOOTH",
"110 662 OFFCURVE",
"15 546 OFFCURVE",
"15 321 CURVE SMOOTH",
"15 96 OFFCURVE",
"118 -15 OFFCURVE",
"335 -15 CURVE SMOOTH"
);
},
{
closed = 1;
nodes = (
"234 102 OFFCURVE",
"198 161 OFFCURVE",
"198 321 CURVE SMOOTH",
"198 486 OFFCURVE",
"234 545 OFFCURVE",
"335 545 CURVE SMOOTH",
"436 545 OFFCURVE",
"472 486 OFFCURVE",
"472 321 CURVE SMOOTH",
"472 161 OFFCURVE",
"436 102 OFFCURVE",
"335 102 CURVE SMOOTH"
);
},
{
closed = 1;
nodes = (
"447 697 OFFCURVE",
"538 760 OFFCURVE",
"538 875 CURVE",
"414 875 LINE",
"414 827 OFFCURVE",
"400 796 OFFCURVE",
"339 796 CURVE SMOOTH",
"283 796 OFFCURVE",
"264 827 OFFCURVE",
"264 875 CURVE",
"140 875 LINE",
"140 760 OFFCURVE",
"231 697 OFFCURVE",
"339 697 CURVE SMOOTH"
);
},
{
closed = 1;
nodes = (
"477 894 OFFCURVE",
"496 933 OFFCURVE",
"496 998 CURVE",
"419 998 LINE",
"419 979 OFFCURVE",
"410 971 OFFCURVE",
"388 971 CURVE SMOOTH",
"358 971 OFFCURVE",
"330 1003 OFFCURVE",
"275 1003 CURVE SMOOTH",
"208 1003 OFFCURVE",
"182 966 OFFCURVE",
"182 899 CURVE",
"259 899 LINE",
"259 919 OFFCURVE",
"270 926 OFFCURVE",
"290 926 CURVE SMOOTH",
"319 926 OFFCURVE",
"365 894 OFFCURVE",
"410 894 CURVE SMOOTH"
);
}
);
width = 670;
}
);
leftKerningGroup = O;
note = Ocircumflextilde;
rightKerningGroup = O;
unicode = 1ED6;
},
{
glyphname = Odieresis;
lastChange = "2015-08-01 07:38:51 +0000";
layers = (
{
layerId = "933D8F18-C226-4057-AED3-19590AE810D9";
name = Bold;
paths = (
{
closed = 1;
nodes = (
"551 -15 OFFCURVE",
"655 96 OFFCURVE",
"655 321 CURVE SMOOTH",
"655 546 OFFCURVE",
"560 662 OFFCURVE",
"335 662 CURVE SMOOTH",
"110 662 OFFCURVE",
"15 546 OFFCURVE",
"15 321 CURVE SMOOTH",
"15 96 OFFCURVE",
"118 -15 OFFCURVE",
"335 -15 CURVE SMOOTH"
);
},
{
closed = 1;
nodes = (
"234 102 OFFCURVE",
"198 161 OFFCURVE",
"198 321 CURVE SMOOTH",
"198 486 OFFCURVE",
"234 545 OFFCURVE",
"335 545 CURVE SMOOTH",
"436 545 OFFCURVE",
"472 486 OFFCURVE",
"472 321 CURVE SMOOTH",
"472 161 OFFCURVE",
"436 102 OFFCURVE",
"335 102 CURVE SMOOTH"
);
},
{
closed = 1;
nodes = (
"273 717 LINE",
"273 854 LINE",
"145 854 LINE",
"145 717 LINE"
);
},
{
closed = 1;
nodes = (
"524 717 LINE",
"524 854 LINE",
"395 854 LINE",
"395 717 LINE"
);
}
);
width = 670;
}
);
leftKerningGroup = O;
note = Odieresis;
rightKerningGroup = O;
unicode = 00D6;
},
{
glyphname = Odotbelow;
lastChange = "2015-11-24 06:07:06 +0000";
layers = (
{
layerId = "933D8F18-C226-4057-AED3-19590AE810D9";
name = Bold;
paths = (
{
closed = 1;
nodes = (
"551 -15 OFFCURVE",
"655 96 OFFCURVE",
"655 321 CURVE SMOOTH",
"655 546 OFFCURVE",
"560 662 OFFCURVE",
"335 662 CURVE SMOOTH",
"110 662 OFFCURVE",
"15 546 OFFCURVE",
"15 321 CURVE SMOOTH",
"15 96 OFFCURVE",
"118 -15 OFFCURVE",
"335 -15 CURVE SMOOTH"
);
},
{
closed = 1;
nodes = (
"234 102 OFFCURVE",
"198 161 OFFCURVE",
"198 321 CURVE SMOOTH",
"198 486 OFFCURVE",
"234 545 OFFCURVE",
"335 545 CURVE SMOOTH",
"436 545 OFFCURVE",
"472 486 OFFCURVE",
"472 321 CURVE SMOOTH",
"472 161 OFFCURVE",
"436 102 OFFCURVE",
"335 102 CURVE SMOOTH"
);
},
{
closed = 1;
nodes = (
"401 -197 LINE",
"401 -60 LINE",
"272 -60 LINE",
"272 -197 LINE"
);
}
);
width = 670;
}
);
leftKerningGroup = O;
note = Odotbelow;
rightKerningGroup = O;
unicode = 1ECC;
},
{
glyphname = Ograve;
lastChange = "2015-08-01 07:38:51 +0000";
layers = (
{
layerId = "933D8F18-C226-4057-AED3-19590AE810D9";
name = Bold;
paths = (
{
closed = 1;
nodes = (
"551 -15 OFFCURVE",
"655 96 OFFCURVE",
"655 321 CURVE SMOOTH",
"655 546 OFFCURVE",
"560 662 OFFCURVE",
"335 662 CURVE SMOOTH",
"110 662 OFFCURVE",
"15 546 OFFCURVE",
"15 321 CURVE SMOOTH",
"15 96 OFFCURVE",
"118 -15 OFFCURVE",
"335 -15 CURVE SMOOTH"
);
},
{
closed = 1;
nodes = (
"234 102 OFFCURVE",
"198 161 OFFCURVE",
"198 321 CURVE SMOOTH",
"198 486 OFFCURVE",
"234 545 OFFCURVE",
"335 545 CURVE SMOOTH",
"436 545 OFFCURVE",
"472 486 OFFCURVE",
"472 321 CURVE SMOOTH",
"472 161 OFFCURVE",
"436 102 OFFCURVE",
"335 102 CURVE SMOOTH"
);
},
{
closed = 1;
nodes = (
"423 697 LINE",
"351 879 LINE",
"155 879 LINE",
"267 697 LINE"
);
}
);
width = 670;
}
);
leftKerningGroup = O;
note = Ograve;
rightKerningGroup = O;
unicode = 00D2;
},
{
glyphname = Ohookabove;
lastChange = "2015-08-01 07:38:51 +0000";
layers = (
{
layerId = "933D8F18-C226-4057-AED3-19590AE810D9";
name = Bold;
paths = (
{
closed = 1;
nodes = (
"551 -15 OFFCURVE",
"655 96 OFFCURVE",
"655 321 CURVE SMOOTH",
"655 546 OFFCURVE",
"560 662 OFFCURVE",
"335 662 CURVE SMOOTH",
"110 662 OFFCURVE",
"15 546 OFFCURVE",
"15 321 CURVE SMOOTH",
"15 96 OFFCURVE",
"118 -15 OFFCURVE",
"335 -15 CURVE SMOOTH"
);
},
{
closed = 1;
nodes = (
"234 102 OFFCURVE",
"198 161 OFFCURVE",
"198 321 CURVE SMOOTH",
"198 486 OFFCURVE",
"234 545 OFFCURVE",
"335 545 CURVE SMOOTH",
"436 545 OFFCURVE",
"472 486 OFFCURVE",
"472 321 CURVE SMOOTH",
"472 161 OFFCURVE",
"436 102 OFFCURVE",
"335 102 CURVE SMOOTH"
);
},
{
closed = 1;
nodes = (
"398 697 LINE",
"398 740 LINE",
"436 756 OFFCURVE",
"453 782 OFFCURVE",
"453 822 CURVE SMOOTH",
"453 883 OFFCURVE",
"404 910 OFFCURVE",
"316 910 CURVE SMOOTH",
"274 910 OFFCURVE",
"241 904 OFFCURVE",
"219 897 CURVE",
"219 811 LINE",
"232 817 OFFCURVE",
"247 820 OFFCURVE",
"262 820 CURVE SMOOTH",
"284 820 OFFCURVE",
"295 809 OFFCURVE",
"295 793 CURVE SMOOTH",
"295 776 OFFCURVE",
"284 761 OFFCURVE",
"248 761 CURVE",
"248 697 LINE"
);
}
);
width = 670;
}
);
leftKerningGroup = O;
note = Ohookabove;
rightKerningGroup = O;
unicode = 1ECE;
},
{
glyphname = Ohorn;
lastChange = "2015-08-01 07:38:50 +0000";
layers = (
{
layerId = "933D8F18-C226-4057-AED3-19590AE810D9";
name = Bold;
paths = (
{
closed = 1;
nodes = (
"551 -15 OFFCURVE",
"655 96 OFFCURVE",
"655 321 CURVE SMOOTH",
"655 384 OFFCURVE",
"647 439 OFFCURVE",
"631 485 CURVE",
"726 511 OFFCURVE",
"759 569 OFFCURVE",
"759 647 CURVE SMOOTH",
"759 689 LINE",
"583 689 LINE",
"583 648 LINE SMOOTH",
"583 623 OFFCURVE",
"575 605 OFFCURVE",
"560 594 CURVE",
"508 639 OFFCURVE",
"434 662 OFFCURVE",
"335 662 CURVE SMOOTH",
"110 662 OFFCURVE",
"15 546 OFFCURVE",
"15 321 CURVE SMOOTH",
"15 96 OFFCURVE",
"118 -15 OFFCURVE",
"335 -15 CURVE SMOOTH"
);
},
{
closed = 1;
nodes = (
"234 102 OFFCURVE",
"198 161 OFFCURVE",
"198 321 CURVE SMOOTH",
"198 486 OFFCURVE",
"234 545 OFFCURVE",
"335 545 CURVE SMOOTH",
"436 545 OFFCURVE",
"472 486 OFFCURVE",
"472 321 CURVE SMOOTH",
"472 161 OFFCURVE",
"436 102 OFFCURVE",
"335 102 CURVE SMOOTH"
);
}
);
width = 739;
}
);
leftKerningGroup = O;
note = Ohorn;
rightKerningGroup = O;
unicode = 01A0;
},
{
glyphname = Ohornacute;
lastChange = "2015-08-01 07:38:51 +0000";
layers = (
{
layerId = "933D8F18-C226-4057-AED3-19590AE810D9";
name = Bold;
paths = (
{
closed = 1;
nodes = (
"551 -15 OFFCURVE",
"655 96 OFFCURVE",
"655 321 CURVE SMOOTH",
"655 384 OFFCURVE",
"647 439 OFFCURVE",
"631 485 CURVE",
"726 511 OFFCURVE",
"759 569 OFFCURVE",
"759 647 CURVE SMOOTH",
"759 689 LINE",
"583 689 LINE",
"583 648 LINE SMOOTH",
"583 623 OFFCURVE",
"575 605 OFFCURVE",
"560 594 CURVE",
"508 639 OFFCURVE",
"434 662 OFFCURVE",
"335 662 CURVE SMOOTH",
"110 662 OFFCURVE",
"15 546 OFFCURVE",
"15 321 CURVE SMOOTH",
"15 96 OFFCURVE",
"118 -15 OFFCURVE",
"335 -15 CURVE SMOOTH"
);
},
{
closed = 1;
nodes = (
"234 102 OFFCURVE",
"198 161 OFFCURVE",
"198 321 CURVE SMOOTH",
"198 486 OFFCURVE",
"234 545 OFFCURVE",
"335 545 CURVE SMOOTH",
"436 545 OFFCURVE",
"472 486 OFFCURVE",
"472 321 CURVE SMOOTH",
"472 161 OFFCURVE",
"436 102 OFFCURVE",
"335 102 CURVE SMOOTH"
);
},
{
closed = 1;
nodes = (
"406 697 LINE",
"518 879 LINE",
"322 879 LINE",
"251 697 LINE"
);
}
);
width = 739;
}
);
leftKerningGroup = O;
note = Ohornacute;
rightKerningGroup = O;
unicode = 1EDA;
},
{
glyphname = Ohorndotbelow;
lastChange = "2015-11-24 06:07:12 +0000";
layers = (
{
layerId = "933D8F18-C226-4057-AED3-19590AE810D9";
name = Bold;
paths = (
{
closed = 1;
nodes = (
"551 -15 OFFCURVE",
"655 96 OFFCURVE",
"655 321 CURVE SMOOTH",
"655 384 OFFCURVE",
"647 439 OFFCURVE",
"631 485 CURVE",
"726 511 OFFCURVE",
"759 569 OFFCURVE",
"759 647 CURVE SMOOTH",
"759 689 LINE",
"583 689 LINE",
"583 648 LINE SMOOTH",
"583 623 OFFCURVE",
"575 605 OFFCURVE",
"560 594 CURVE",
"508 639 OFFCURVE",
"434 662 OFFCURVE",
"335 662 CURVE SMOOTH",
"110 662 OFFCURVE",
"15 546 OFFCURVE",
"15 321 CURVE SMOOTH",
"15 96 OFFCURVE",
"118 -15 OFFCURVE",
"335 -15 CURVE SMOOTH"
);
},
{
closed = 1;
nodes = (
"234 102 OFFCURVE",
"198 161 OFFCURVE",
"198 321 CURVE SMOOTH",
"198 486 OFFCURVE",
"234 545 OFFCURVE",
"335 545 CURVE SMOOTH",
"436 545 OFFCURVE",
"472 486 OFFCURVE",
"472 321 CURVE SMOOTH",
"472 161 OFFCURVE",
"436 102 OFFCURVE",
"335 102 CURVE SMOOTH"
);
},
{
closed = 1;
nodes = (
"400 -197 LINE",
"400 -60 LINE",
"271 -60 LINE",
"271 -197 LINE"
);
}
);
width = 739;
}
);
leftKerningGroup = O;
note = Ohorndotbelow;
rightKerningGroup = O;
unicode = 1EE2;
},
{
glyphname = Ohorngrave;
lastChange = "2015-08-01 07:38:50 +0000";
layers = (
{
layerId = "933D8F18-C226-4057-AED3-19590AE810D9";
name = Bold;
paths = (
{
closed = 1;
nodes = (
"551 -15 OFFCURVE",
"655 96 OFFCURVE",
"655 321 CURVE SMOOTH",
"655 384 OFFCURVE",
"647 439 OFFCURVE",
"631 485 CURVE",
"726 511 OFFCURVE",
"759 569 OFFCURVE",
"759 647 CURVE SMOOTH",
"759 689 LINE",
"583 689 LINE",
"583 648 LINE SMOOTH",
"583 623 OFFCURVE",
"575 605 OFFCURVE",
"560 594 CURVE",
"508 639 OFFCURVE",
"434 662 OFFCURVE",
"335 662 CURVE SMOOTH",
"110 662 OFFCURVE",
"15 546 OFFCURVE",
"15 321 CURVE SMOOTH",
"15 96 OFFCURVE",
"118 -15 OFFCURVE",
"335 -15 CURVE SMOOTH"
);
},
{
closed = 1;
nodes = (
"234 102 OFFCURVE",
"198 161 OFFCURVE",
"198 321 CURVE SMOOTH",
"198 486 OFFCURVE",
"234 545 OFFCURVE",
"335 545 CURVE SMOOTH",
"436 545 OFFCURVE",
"472 486 OFFCURVE",
"472 321 CURVE SMOOTH",
"472 161 OFFCURVE",
"436 102 OFFCURVE",
"335 102 CURVE SMOOTH"
);
},
{
closed = 1;
nodes = (
"415 697 LINE",
"343 879 LINE",
"147 879 LINE",
"259 697 LINE"
);
}
);
width = 739;
}
);
leftKerningGroup = O;
note = Ohorngrave;
rightKerningGroup = O;
unicode = 1EDC;
},
{
glyphname = Ohornhookabove;
lastChange = "2015-08-01 07:38:50 +0000";
layers = (
{
layerId = "933D8F18-C226-4057-AED3-19590AE810D9";
name = Bold;
paths = (
{
closed = 1;
nodes = (
"551 -15 OFFCURVE",
"655 96 OFFCURVE",
"655 321 CURVE SMOOTH",
"655 384 OFFCURVE",
"647 439 OFFCURVE",
"631 485 CURVE",
"726 511 OFFCURVE",
"759 569 OFFCURVE",
"759 647 CURVE SMOOTH",
"759 689 LINE",
"583 689 LINE",
"583 648 LINE SMOOTH",
"583 623 OFFCURVE",
"575 605 OFFCURVE",
"560 594 CURVE",
"508 639 OFFCURVE",
"434 662 OFFCURVE",
"335 662 CURVE SMOOTH",
"110 662 OFFCURVE",
"15 546 OFFCURVE",
"15 321 CURVE SMOOTH",
"15 96 OFFCURVE",
"118 -15 OFFCURVE",
"335 -15 CURVE SMOOTH"
);
},
{
closed = 1;
nodes = (
"234 102 OFFCURVE",
"198 161 OFFCURVE",
"198 321 CURVE SMOOTH",
"198 486 OFFCURVE",
"234 545 OFFCURVE",
"335 545 CURVE SMOOTH",
"436 545 OFFCURVE",
"472 486 OFFCURVE",
"472 321 CURVE SMOOTH",
"472 161 OFFCURVE",
"436 102 OFFCURVE",
"335 102 CURVE SMOOTH"
);
},
{
closed = 1;
nodes = (
"423 697 LINE",
"423 740 LINE",
"461 756 OFFCURVE",
"478 782 OFFCURVE",
"478 822 CURVE SMOOTH",
"478 883 OFFCURVE",
"429 910 OFFCURVE",
"341 910 CURVE SMOOTH",
"299 910 OFFCURVE",
"266 904 OFFCURVE",
"244 897 CURVE",
"244 811 LINE",
"257 817 OFFCURVE",
"272 820 OFFCURVE",
"287 820 CURVE SMOOTH",
"309 820 OFFCURVE",
"320 809 OFFCURVE",
"320 793 CURVE SMOOTH",
"320 776 OFFCURVE",
"309 761 OFFCURVE",
"273 761 CURVE",
"273 697 LINE"
);
}
);
width = 739;
}
);
leftKerningGroup = O;
note = Ohornhookabove;
rightKerningGroup = O;
unicode = 1EDE;
},
{
glyphname = Ohorntilde;
lastChange = "2015-08-01 07:38:50 +0000";
layers = (
{
layerId = "933D8F18-C226-4057-AED3-19590AE810D9";
name = Bold;
paths = (
{
closed = 1;
nodes = (
"551 -15 OFFCURVE",
"655 96 OFFCURVE",
"655 321 CURVE SMOOTH",
"655 384 OFFCURVE",
"647 439 OFFCURVE",
"631 485 CURVE",
"726 511 OFFCURVE",
"759 569 OFFCURVE",
"759 647 CURVE SMOOTH",
"759 689 LINE",
"583 689 LINE",
"583 648 LINE SMOOTH",
"583 623 OFFCURVE",
"575 605 OFFCURVE",
"560 594 CURVE",
"508 639 OFFCURVE",
"434 662 OFFCURVE",
"335 662 CURVE SMOOTH",
"110 662 OFFCURVE",
"15 546 OFFCURVE",
"15 321 CURVE SMOOTH",
"15 96 OFFCURVE",
"118 -15 OFFCURVE",
"335 -15 CURVE SMOOTH"
);
},
{
closed = 1;
nodes = (
"234 102 OFFCURVE",
"198 161 OFFCURVE",
"198 321 CURVE SMOOTH",
"198 486 OFFCURVE",
"234 545 OFFCURVE",
"335 545 CURVE SMOOTH",
"436 545 OFFCURVE",
"472 486 OFFCURVE",
"472 321 CURVE SMOOTH",
"472 161 OFFCURVE",
"436 102 OFFCURVE",
"335 102 CURVE SMOOTH"
);
},
{
closed = 1;
nodes = (
"244 697 LINE",
"244 726 OFFCURVE",
"260 743 OFFCURVE",
"288 743 CURVE SMOOTH",
"330 743 OFFCURVE",
"361 697 OFFCURVE",
"439 697 CURVE SMOOTH",
"535 697 OFFCURVE",
"569 755 OFFCURVE",
"569 882 CURVE",
"444 882 LINE",
"444 854 OFFCURVE",
"431 836 OFFCURVE",
"401 836 CURVE SMOOTH",
"357 836 OFFCURVE",
"328 882 OFFCURVE",
"253 882 CURVE SMOOTH",
"157 882 OFFCURVE",
"119 821 OFFCURVE",
"119 697 CURVE"
);
}
);
width = 739;
}
);
leftKerningGroup = O;
note = Ohorntilde;
rightKerningGroup = O;
unicode = 1EE0;
},
{
glyphname = Ohungarumlaut;
lastChange = "2015-08-01 07:38:51 +0000";
layers = (
{
layerId = "933D8F18-C226-4057-AED3-19590AE810D9";
name = Bold;
paths = (
{
closed = 1;
nodes = (
"551 -15 OFFCURVE",
"655 96 OFFCURVE",
"655 321 CURVE SMOOTH",
"655 546 OFFCURVE",
"560 662 OFFCURVE",
"335 662 CURVE SMOOTH",
"110 662 OFFCURVE",
"15 546 OFFCURVE",
"15 321 CURVE SMOOTH",
"15 96 OFFCURVE",
"118 -15 OFFCURVE",
"335 -15 CURVE SMOOTH"
);
},
{
closed = 1;
nodes = (
"234 102 OFFCURVE",
"198 161 OFFCURVE",
"198 321 CURVE SMOOTH",
"198 486 OFFCURVE",
"234 545 OFFCURVE",
"335 545 CURVE SMOOTH",
"436 545 OFFCURVE",
"472 486 OFFCURVE",
"472 321 CURVE SMOOTH",
"472 161 OFFCURVE",
"436 102 OFFCURVE",
"335 102 CURVE SMOOTH"
);
},
{
closed = 1;
nodes = (
"269 697 LINE",
"397 899 LINE",
"195 899 LINE",
"105 697 LINE"
);
},
{
closed = 1;
nodes = (
"518 697 LINE",
"646 899 LINE",
"444 899 LINE",
"355 697 LINE"
);
}
);
width = 670;
}
);
leftKerningGroup = O;
note = Ohungarumlaut;
rightKerningGroup = O;
unicode = 0150;
},
{
glyphname = Omacron;
lastChange = "2015-08-01 07:38:50 +0000";
layers = (
{
layerId = "933D8F18-C226-4057-AED3-19590AE810D9";
name = Bold;
paths = (
{
closed = 1;
nodes = (
"551 -15 OFFCURVE",
"655 96 OFFCURVE",
"655 321 CURVE SMOOTH",
"655 546 OFFCURVE",
"560 662 OFFCURVE",
"335 662 CURVE SMOOTH",
"110 662 OFFCURVE",
"15 546 OFFCURVE",
"15 321 CURVE SMOOTH",
"15 96 OFFCURVE",
"118 -15 OFFCURVE",
"335 -15 CURVE SMOOTH"
);
},
{
closed = 1;
nodes = (
"234 102 OFFCURVE",
"198 161 OFFCURVE",
"198 321 CURVE SMOOTH",
"198 486 OFFCURVE",
"234 545 OFFCURVE",
"335 545 CURVE SMOOTH",
"436 545 OFFCURVE",
"472 486 OFFCURVE",
"472 321 CURVE SMOOTH",
"472 161 OFFCURVE",
"436 102 OFFCURVE",
"335 102 CURVE SMOOTH"
);
},
{
closed = 1;
nodes = (
"499 717 LINE",
"499 822 LINE",
"182 822 LINE",
"182 717 LINE"
);
}
);
width = 670;
}
);
leftKerningGroup = O;
note = Omacron;
rightKerningGroup = O;
unicode = 014C;
},
{
glyphname = Oslash;
lastChange = "2015-08-01 07:38:50 +0000";
layers = (
{
layerId = "933D8F18-C226-4057-AED3-19590AE810D9";
name = Bold;
paths = (
{
closed = 1;
nodes = (
"219 -43 LINE",
"233 -5 LINE",
"263 -12 OFFCURVE",
"297 -15 OFFCURVE",
"335 -15 CURVE SMOOTH",
"551 -15 OFFCURVE",
"655 96 OFFCURVE",
"655 321 CURVE SMOOTH",
"655 493 OFFCURVE",
"599 601 OFFCURVE",
"473 643 CURVE",
"490 689 LINE",
"433 689 LINE",
"420 655 LINE",
"394 659 OFFCURVE",
"366 662 OFFCURVE",
"335 662 CURVE SMOOTH",
"110 662 OFFCURVE",
"15 546 OFFCURVE",
"15 321 CURVE SMOOTH",
"15 158 OFFCURVE",
"69 55 OFFCURVE",
"181 10 CURVE",
"161 -43 LINE"
);
},
{
closed = 1;
nodes = (
"207 181 OFFCURVE",
"198 237 OFFCURVE",
"198 321 CURVE SMOOTH",
"198 486 OFFCURVE",
"234 545 OFFCURVE",
"335 545 CURVE SMOOTH",
"351 545 OFFCURVE",
"365 543 OFFCURVE",
"378 540 CURVE",
"231 147 LINE"
);
},
{
closed = 1;
nodes = (
"312 102 OFFCURVE",
"293 105 OFFCURVE",
"276 111 CURVE",
"425 515 LINE",
"459 482 OFFCURVE",
"472 421 OFFCURVE",
"472 321 CURVE SMOOTH",
"472 161 OFFCURVE",
"436 102 OFFCURVE",
"335 102 CURVE SMOOTH"
);
}
);
width = 670;
}
);
leftKerningGroup = O;
note = Oslash;
rightKerningGroup = O;
unicode = 00D8;
},
{
glyphname = Oslashacute;
lastChange = "2015-08-01 07:38:51 +0000";
layers = (
{
layerId = "933D8F18-C226-4057-AED3-19590AE810D9";
name = Bold;
paths = (
{
closed = 1;
nodes = (
"219 -43 LINE",
"233 -5 LINE",
"263 -12 OFFCURVE",
"297 -15 OFFCURVE",
"335 -15 CURVE SMOOTH",
"551 -15 OFFCURVE",
"655 96 OFFCURVE",
"655 321 CURVE SMOOTH",
"655 493 OFFCURVE",
"599 601 OFFCURVE",
"473 643 CURVE",
"490 689 LINE",
"433 689 LINE",
"420 655 LINE",
"394 659 OFFCURVE",
"366 662 OFFCURVE",
"335 662 CURVE SMOOTH",
"110 662 OFFCURVE",
"15 546 OFFCURVE",
"15 321 CURVE SMOOTH",
"15 158 OFFCURVE",
"69 55 OFFCURVE",
"181 10 CURVE",
"161 -43 LINE"
);
},
{
closed = 1;
nodes = (
"207 181 OFFCURVE",
"198 237 OFFCURVE",
"198 321 CURVE SMOOTH",
"198 486 OFFCURVE",
"234 545 OFFCURVE",
"335 545 CURVE SMOOTH",
"351 545 OFFCURVE",
"365 543 OFFCURVE",
"378 540 CURVE",
"231 147 LINE"
);
},
{
closed = 1;
nodes = (
"312 102 OFFCURVE",
"293 105 OFFCURVE",
"276 111 CURVE",
"425 515 LINE",
"459 482 OFFCURVE",
"472 421 OFFCURVE",
"472 321 CURVE SMOOTH",
"472 161 OFFCURVE",
"436 102 OFFCURVE",
"335 102 CURVE SMOOTH"
);
},
{
closed = 1;
nodes = (
"386 691 LINE",
"498 873 LINE",
"302 873 LINE",
"231 691 LINE"
);
}
);
width = 670;
}
);
leftKerningGroup = O;
note = Oslashacute;
rightKerningGroup = O;
unicode = 01FE;
},
{
glyphname = Otilde;
lastChange = "2015-08-01 07:38:51 +0000";
layers = (
{
layerId = "933D8F18-C226-4057-AED3-19590AE810D9";
name = Bold;
paths = (
{
closed = 1;
nodes = (
"551 -15 OFFCURVE",
"655 96 OFFCURVE",
"655 321 CURVE SMOOTH",
"655 546 OFFCURVE",
"560 662 OFFCURVE",
"335 662 CURVE SMOOTH",
"110 662 OFFCURVE",
"15 546 OFFCURVE",
"15 321 CURVE SMOOTH",
"15 96 OFFCURVE",
"118 -15 OFFCURVE",
"335 -15 CURVE SMOOTH"
);
},
{
closed = 1;
nodes = (
"234 102 OFFCURVE",
"198 161 OFFCURVE",
"198 321 CURVE SMOOTH",
"198 486 OFFCURVE",
"234 545 OFFCURVE",
"335 545 CURVE SMOOTH",
"436 545 OFFCURVE",
"472 486 OFFCURVE",
"472 321 CURVE SMOOTH",
"472 161 OFFCURVE",
"436 102 OFFCURVE",
"335 102 CURVE SMOOTH"
);
},
{
closed = 1;
nodes = (
"235 697 LINE",
"235 726 OFFCURVE",
"251 743 OFFCURVE",
"279 743 CURVE SMOOTH",
"321 743 OFFCURVE",
"352 697 OFFCURVE",
"430 697 CURVE SMOOTH",
"526 697 OFFCURVE",
"560 755 OFFCURVE",
"560 882 CURVE",
"435 882 LINE",
"435 854 OFFCURVE",
"422 836 OFFCURVE",
"392 836 CURVE SMOOTH",
"348 836 OFFCURVE",
"319 882 OFFCURVE",
"244 882 CURVE SMOOTH",
"148 882 OFFCURVE",
"110 821 OFFCURVE",
"110 697 CURVE"
);
}
);
width = 670;
}
);
leftKerningGroup = O;
note = Otilde;
rightKerningGroup = O;
unicode = 00D5;
},
{
glyphname = OE;
lastChange = "2015-08-01 07:38:51 +0000";
layers = (
{
layerId = "933D8F18-C226-4057-AED3-19590AE810D9";
name = Bold;
paths = (
{
closed = 1;
nodes = (
"783 0 LINE",
"783 168 LINE",
"615 168 LINE",
"615 156 LINE SMOOTH",
"615 129 OFFCURVE",
"602 116 OFFCURVE",
"574 116 CURVE SMOOTH",
"522 116 LINE",
"522 265 LINE",
"627 265 LINE",
"627 381 LINE",
"522 381 LINE",
"522 531 LINE",
"574 531 LINE SMOOTH",
"602 531 OFFCURVE",
"615 518 OFFCURVE",
"615 492 CURVE SMOOTH",
"615 479 LINE",
"783 479 LINE",
"783 647 LINE",
"360 647 LINE SMOOTH",
"133 647 OFFCURVE",
"15 547 OFFCURVE",
"15 322 CURVE SMOOTH",
"15 95 OFFCURVE",
"140 0 OFFCURVE",
"360 0 CURVE SMOOTH"
);
},
{
closed = 1;
nodes = (
"254 116 OFFCURVE",
"198 165 OFFCURVE",
"198 322 CURVE SMOOTH",
"198 481 OFFCURVE",
"253 529 OFFCURVE",
"337 533 CURVE",
"337 112 LINE"
);
}
);
width = 798;
}
);
leftKerningGroup = C;
note = OE;
unicode = 0152;
},
{
glyphname = P;
lastChange = "2015-07-31 14:10:15 +0000";
layers = (
{
layerId = "933D8F18-C226-4057-AED3-19590AE810D9";
name = Bold;
paths = (
{
closed = 1;
nodes = (
"322 0 LINE",
"322 116 LINE",
"302 116 LINE SMOOTH",
"273 116 OFFCURVE",
"261 130 OFFCURVE",
"261 153 CURVE SMOOTH",
"261 220 LINE",
"373 220 LINE SMOOTH",
"523 220 OFFCURVE",
"618 297 OFFCURVE",
"618 437 CURVE SMOOTH",
"618 579 OFFCURVE",
"523 647 OFFCURVE",
"374 647 CURVE SMOOTH",
"15 647 LINE",
"15 530 LINE",
"35 530 LINE SMOOTH",
"64 530 OFFCURVE",
"76 516 OFFCURVE",
"76 493 CURVE SMOOTH",
"76 153 LINE SMOOTH",
"76 130 OFFCURVE",
"64 116 OFFCURVE",
"35 116 CURVE SMOOTH",
"15 116 LINE",
"15 0 LINE"
);
},
{
closed = 1;
nodes = (
"261 530 LINE",
"348 530 LINE SMOOTH",
"409 530 OFFCURVE",
"435 507 OFFCURVE",
"435 437 CURVE SMOOTH",
"435 368 OFFCURVE",
"410 337 OFFCURVE",
"348 337 CURVE SMOOTH",
"261 337 LINE"
);
}
);
width = 633;
}
);
note = P;
unicode = 0050;
},
{
glyphname = Thorn;
lastChange = "2015-07-31 14:10:16 +0000";
layers = (
{
layerId = "933D8F18-C226-4057-AED3-19590AE810D9";
name = Bold;
paths = (
{
closed = 1;
nodes = (
"322 0 LINE",
"322 116 LINE",
"302 116 LINE SMOOTH",
"273 116 OFFCURVE",
"261 127 OFFCURVE",
"261 150 CURVE",
"373 150 LINE SMOOTH",
"523 150 OFFCURVE",
"618 227 OFFCURVE",
"618 367 CURVE SMOOTH",
"618 509 OFFCURVE",
"523 577 OFFCURVE",
"374 577 CURVE SMOOTH",
"261 577 LINE",
"261 647 LINE",
"15 647 LINE",
"15 531 LINE",
"35 531 LINE SMOOTH",
"64 531 OFFCURVE",
"76 517 OFFCURVE",
"76 494 CURVE SMOOTH",
"76 153 LINE SMOOTH",
"76 130 OFFCURVE",
"64 116 OFFCURVE",
"35 116 CURVE SMOOTH",
"15 116 LINE",
"15 0 LINE"
);
},
{
closed = 1;
nodes = (
"261 460 LINE",
"348 460 LINE SMOOTH",
"409 460 OFFCURVE",
"435 437 OFFCURVE",
"435 367 CURVE SMOOTH",
"435 298 OFFCURVE",
"410 267 OFFCURVE",
"348 267 CURVE SMOOTH",
"261 267 LINE"
);
}
);
width = 633;
}
);
note = Thorn;
unicode = 00DE;
},
{
glyphname = Q;
lastChange = "2015-08-01 07:38:51 +0000";
layers = (
{
layerId = "933D8F18-C226-4057-AED3-19590AE810D9";
name = Bold;
paths = (
{
closed = 1;
nodes = (
"545 -145 OFFCURVE",
"608 -121 OFFCURVE",
"643 -78 CURVE",
"643 -13 LINE",
"519 -13 LINE",
"519 -40 LINE",
"508 -49 OFFCURVE",
"496 -53 OFFCURVE",
"465 -53 CURVE SMOOTH",
"438 -53 OFFCURVE",
"410 -42 OFFCURVE",
"399 -12 CURVE",
"572 9 OFFCURVE",
"655 118 OFFCURVE",
"655 320 CURVE SMOOTH",
"655 545 OFFCURVE",
"560 660 OFFCURVE",
"335 660 CURVE SMOOTH",
"110 660 OFFCURVE",
"15 545 OFFCURVE",
"15 320 CURVE SMOOTH",
"15 120 OFFCURVE",
"96 10 OFFCURVE",
"267 -12 CURVE",
"288 -92 OFFCURVE",
"343 -145 OFFCURVE",
"461 -145 CURVE SMOOTH"
);
},
{
closed = 1;
nodes = (
"234 101 OFFCURVE",
"198 160 OFFCURVE",
"198 320 CURVE SMOOTH",
"198 485 OFFCURVE",
"234 543 OFFCURVE",
"335 543 CURVE SMOOTH",
"436 543 OFFCURVE",
"472 485 OFFCURVE",
"472 320 CURVE SMOOTH",
"472 160 OFFCURVE",
"436 101 OFFCURVE",
"335 101 CURVE SMOOTH"
);
}
);
width = 670;
}
);
leftKerningGroup = O;
note = Q;
rightKerningGroup = O;
unicode = 0051;
},
{
glyphname = R;
lastChange = "2015-08-01 07:38:51 +0000";
layers = (
{
layerId = "933D8F18-C226-4057-AED3-19590AE810D9";
name = Bold;
paths = (
{
closed = 1;
nodes = (
"304 0 LINE",
"304 116 LINE",
"292 116 LINE SMOOTH",
"269 116 OFFCURVE",
"262 125 OFFCURVE",
"262 148 CURVE SMOOTH",
"262 221 LINE",
"335 221 LINE",
"397 116 LINE",
"365 116 LINE",
"365 0 LINE",
"627 0 LINE",
"627 116 LINE",
"611 116 LINE SMOOTH",
"581 116 OFFCURVE",
"567 124 OFFCURVE",
"556 143 CURVE SMOOTH",
"496 244 LINE",
"578 284 OFFCURVE",
"619 349 OFFCURVE",
"619 437 CURVE SMOOTH",
"619 579 OFFCURVE",
"524 647 OFFCURVE",
"374 647 CURVE SMOOTH",
"15 647 LINE",
"15 530 LINE",
"36 530 LINE SMOOTH",
"64 530 OFFCURVE",
"77 516 OFFCURVE",
"77 493 CURVE SMOOTH",
"77 153 LINE SMOOTH",
"77 130 OFFCURVE",
"64 116 OFFCURVE",
"36 116 CURVE SMOOTH",
"15 116 LINE",
"15 0 LINE"
);
},
{
closed = 1;
nodes = (
"262 530 LINE",
"348 530 LINE SMOOTH",
"410 530 OFFCURVE",
"436 507 OFFCURVE",
"436 437 CURVE SMOOTH",
"436 368 OFFCURVE",
"411 337 OFFCURVE",
"348 337 CURVE SMOOTH",
"262 337 LINE"
);
}
);
width = 642;
}
);
note = R;
rightKerningGroup = R;
unicode = 0052;
},
{
glyphname = Racute;
lastChange = "2015-08-01 07:38:51 +0000";
layers = (
{
layerId = "933D8F18-C226-4057-AED3-19590AE810D9";
name = Bold;
paths = (
{
closed = 1;
nodes = (
"304 0 LINE",
"304 116 LINE",
"292 116 LINE SMOOTH",
"269 116 OFFCURVE",
"262 125 OFFCURVE",
"262 148 CURVE SMOOTH",
"262 221 LINE",
"335 221 LINE",
"397 116 LINE",
"365 116 LINE",
"365 0 LINE",
"627 0 LINE",
"627 116 LINE",
"611 116 LINE SMOOTH",
"581 116 OFFCURVE",
"567 124 OFFCURVE",
"556 143 CURVE SMOOTH",
"496 244 LINE",
"578 284 OFFCURVE",
"619 349 OFFCURVE",
"619 437 CURVE SMOOTH",
"619 579 OFFCURVE",
"524 647 OFFCURVE",
"374 647 CURVE SMOOTH",
"15 647 LINE",
"15 530 LINE",
"36 530 LINE SMOOTH",
"64 530 OFFCURVE",
"77 516 OFFCURVE",
"77 493 CURVE SMOOTH",
"77 153 LINE SMOOTH",
"77 130 OFFCURVE",
"64 116 OFFCURVE",
"36 116 CURVE SMOOTH",
"15 116 LINE",
"15 0 LINE"
);
},
{
closed = 1;
nodes = (
"262 530 LINE",
"348 530 LINE SMOOTH",
"410 530 OFFCURVE",
"436 507 OFFCURVE",
"436 437 CURVE SMOOTH",
"436 368 OFFCURVE",
"411 337 OFFCURVE",
"348 337 CURVE SMOOTH",
"262 337 LINE"
);
},
{
closed = 1;
nodes = (
"358 697 LINE",
"470 879 LINE",
"274 879 LINE",
"203 697 LINE"
);
}
);
width = 642;
}
);
note = Racute;
rightKerningGroup = R;
unicode = 0154;
},
{
glyphname = Rcaron;
lastChange = "2015-08-01 07:38:50 +0000";
layers = (
{
layerId = "933D8F18-C226-4057-AED3-19590AE810D9";
name = Bold;
paths = (
{
closed = 1;
nodes = (
"304 0 LINE",
"304 116 LINE",
"292 116 LINE SMOOTH",
"269 116 OFFCURVE",
"262 125 OFFCURVE",
"262 148 CURVE SMOOTH",
"262 221 LINE",
"335 221 LINE",
"397 116 LINE",
"365 116 LINE",
"365 0 LINE",
"627 0 LINE",
"627 116 LINE",
"611 116 LINE SMOOTH",
"581 116 OFFCURVE",
"567 124 OFFCURVE",
"556 143 CURVE SMOOTH",
"496 244 LINE",
"578 284 OFFCURVE",
"619 349 OFFCURVE",
"619 437 CURVE SMOOTH",
"619 579 OFFCURVE",
"524 647 OFFCURVE",
"374 647 CURVE SMOOTH",
"15 647 LINE",
"15 530 LINE",
"36 530 LINE SMOOTH",
"64 530 OFFCURVE",
"77 516 OFFCURVE",
"77 493 CURVE SMOOTH",
"77 153 LINE SMOOTH",
"77 130 OFFCURVE",
"64 116 OFFCURVE",
"36 116 CURVE SMOOTH",
"15 116 LINE",
"15 0 LINE"
);
},
{
closed = 1;
nodes = (
"262 530 LINE",
"348 530 LINE SMOOTH",
"410 530 OFFCURVE",
"436 507 OFFCURVE",
"436 437 CURVE SMOOTH",
"436 368 OFFCURVE",
"411 337 OFFCURVE",
"348 337 CURVE SMOOTH",
"262 337 LINE"
);
},
{
closed = 1;
nodes = (
"379 697 LINE",
"519 901 LINE",
"356 901 LINE",
"301 793 LINE",
"244 901 LINE",
"84 901 LINE",
"225 697 LINE"
);
}
);
width = 642;
}
);
note = Rcaron;
rightKerningGroup = R;
unicode = 0158;
},
{
glyphname = Rcommaaccent;
lastChange = "2015-11-24 06:07:29 +0000";
layers = (
{
layerId = "933D8F18-C226-4057-AED3-19590AE810D9";
name = Bold;
paths = (
{
closed = 1;
nodes = (
"304 0 LINE",
"304 116 LINE",
"292 116 LINE SMOOTH",
"269 116 OFFCURVE",
"262 125 OFFCURVE",
"262 148 CURVE SMOOTH",
"262 221 LINE",
"335 221 LINE",
"397 116 LINE",
"365 116 LINE",
"365 0 LINE",
"627 0 LINE",
"627 116 LINE",
"611 116 LINE SMOOTH",
"581 116 OFFCURVE",
"567 124 OFFCURVE",
"556 143 CURVE SMOOTH",
"496 244 LINE",
"578 284 OFFCURVE",
"619 349 OFFCURVE",
"619 437 CURVE SMOOTH",
"619 579 OFFCURVE",
"524 647 OFFCURVE",
"374 647 CURVE SMOOTH",
"15 647 LINE",
"15 530 LINE",
"36 530 LINE SMOOTH",
"64 530 OFFCURVE",
"77 516 OFFCURVE",
"77 493 CURVE SMOOTH",
"77 153 LINE SMOOTH",
"77 130 OFFCURVE",
"64 116 OFFCURVE",
"36 116 CURVE SMOOTH",
"15 116 LINE",
"15 0 LINE"
);
},
{
closed = 1;
nodes = (
"262 530 LINE",
"348 530 LINE SMOOTH",
"410 530 OFFCURVE",
"436 507 OFFCURVE",
"436 437 CURVE SMOOTH",
"436 368 OFFCURVE",
"411 337 OFFCURVE",
"348 337 CURVE SMOOTH",
"262 337 LINE"
);
},
{
closed = 1;
nodes = (
"342 -282 LINE",
"413 -49 LINE",
"224 -49 LINE",
"189 -282 LINE"
);
}
);
width = 642;
}
);
note = Rcommaaccent;
rightKerningGroup = R;
unicode = 0156;
},
{
glyphname = Rdotbelow;
lastChange = "2015-11-24 06:07:58 +0000";
layers = (
{
layerId = "933D8F18-C226-4057-AED3-19590AE810D9";
name = Bold;
paths = (
{
closed = 1;
nodes = (
"304 0 LINE",
"304 116 LINE",
"292 116 LINE SMOOTH",
"269 116 OFFCURVE",
"262 125 OFFCURVE",
"262 148 CURVE SMOOTH",
"262 221 LINE",
"335 221 LINE",
"397 116 LINE",
"365 116 LINE",
"365 0 LINE",
"627 0 LINE",
"627 116 LINE",
"611 116 LINE SMOOTH",
"581 116 OFFCURVE",
"567 124 OFFCURVE",
"556 143 CURVE SMOOTH",
"496 244 LINE",
"578 284 OFFCURVE",
"619 349 OFFCURVE",
"619 437 CURVE SMOOTH",
"619 579 OFFCURVE",
"524 647 OFFCURVE",
"374 647 CURVE SMOOTH",
"15 647 LINE",
"15 530 LINE",
"36 530 LINE SMOOTH",
"64 530 OFFCURVE",
"77 516 OFFCURVE",
"77 493 CURVE SMOOTH",
"77 153 LINE SMOOTH",
"77 130 OFFCURVE",
"64 116 OFFCURVE",
"36 116 CURVE SMOOTH",
"15 116 LINE",
"15 0 LINE"
);
},
{
closed = 1;
nodes = (
"262 530 LINE",
"348 530 LINE SMOOTH",
"410 530 OFFCURVE",
"436 507 OFFCURVE",
"436 437 CURVE SMOOTH",
"436 368 OFFCURVE",
"411 337 OFFCURVE",
"348 337 CURVE SMOOTH",
"262 337 LINE"
);
},
{
closed = 1;
nodes = (
"379 -197 LINE",
"379 -60 LINE",
"250 -60 LINE",
"250 -197 LINE"
);
}
);
width = 642;
}
);
note = Rdotbelow;
rightKerningGroup = R;
unicode = 1E5A;
},
{
glyphname = Rdotbelowmacron;
lastChange = "2015-11-24 06:08:05 +0000";
layers = (
{
layerId = "933D8F18-C226-4057-AED3-19590AE810D9";
name = Bold;
paths = (
{
closed = 1;
nodes = (
"304 0 LINE",
"304 116 LINE",
"292 116 LINE SMOOTH",
"269 116 OFFCURVE",
"262 125 OFFCURVE",
"262 148 CURVE SMOOTH",
"262 221 LINE",
"335 221 LINE",
"397 116 LINE",
"365 116 LINE",
"365 0 LINE",
"627 0 LINE",
"627 116 LINE",
"611 116 LINE SMOOTH",
"581 116 OFFCURVE",
"567 124 OFFCURVE",
"556 143 CURVE SMOOTH",
"496 244 LINE",
"578 284 OFFCURVE",
"619 349 OFFCURVE",
"619 437 CURVE SMOOTH",
"619 579 OFFCURVE",
"524 647 OFFCURVE",
"374 647 CURVE SMOOTH",
"15 647 LINE",
"15 530 LINE",
"36 530 LINE SMOOTH",
"64 530 OFFCURVE",
"77 516 OFFCURVE",
"77 493 CURVE SMOOTH",
"77 153 LINE SMOOTH",
"77 130 OFFCURVE",
"64 116 OFFCURVE",
"36 116 CURVE SMOOTH",
"15 116 LINE",
"15 0 LINE"
);
},
{
closed = 1;
nodes = (
"262 530 LINE",
"348 530 LINE SMOOTH",
"410 530 OFFCURVE",
"436 507 OFFCURVE",
"436 437 CURVE SMOOTH",
"436 368 OFFCURVE",
"411 337 OFFCURVE",
"348 337 CURVE SMOOTH",
"262 337 LINE"
);
},
{
closed = 1;
nodes = (
"379 -197 LINE",
"379 -60 LINE",
"250 -60 LINE",
"250 -197 LINE"
);
},
{
closed = 1;
nodes = (
"452 717 LINE",
"452 822 LINE",
"135 822 LINE",
"135 717 LINE"
);
}
);
width = 642;
}
);
note = Rdotbelowmacron;
rightKerningGroup = R;
unicode = 1E5C;
},
{
glyphname = Rlinebelow;
lastChange = "2015-11-24 06:08:10 +0000";
layers = (
{
layerId = "933D8F18-C226-4057-AED3-19590AE810D9";
name = Bold;
paths = (
{
closed = 1;
nodes = (
"304 0 LINE",
"304 116 LINE",
"292 116 LINE SMOOTH",
"269 116 OFFCURVE",
"262 125 OFFCURVE",
"262 148 CURVE SMOOTH",
"262 221 LINE",
"335 221 LINE",
"397 116 LINE",
"365 116 LINE",
"365 0 LINE",
"627 0 LINE",
"627 116 LINE",
"611 116 LINE SMOOTH",
"581 116 OFFCURVE",
"567 124 OFFCURVE",
"556 143 CURVE SMOOTH",
"496 244 LINE",
"578 284 OFFCURVE",
"619 349 OFFCURVE",
"619 437 CURVE SMOOTH",
"619 579 OFFCURVE",
"524 647 OFFCURVE",
"374 647 CURVE SMOOTH",
"15 647 LINE",
"15 530 LINE",
"36 530 LINE SMOOTH",
"64 530 OFFCURVE",
"77 516 OFFCURVE",
"77 493 CURVE SMOOTH",
"77 153 LINE SMOOTH",
"77 130 OFFCURVE",
"64 116 OFFCURVE",
"36 116 CURVE SMOOTH",
"15 116 LINE",
"15 0 LINE"
);
},
{
closed = 1;
nodes = (
"262 530 LINE",
"348 530 LINE SMOOTH",
"410 530 OFFCURVE",
"436 507 OFFCURVE",
"436 437 CURVE SMOOTH",
"436 368 OFFCURVE",
"411 337 OFFCURVE",
"348 337 CURVE SMOOTH",
"262 337 LINE"
);
},
{
closed = 1;
nodes = (
"449 -149 LINE",
"449 -44 LINE",
"132 -44 LINE",
"132 -149 LINE"
);
}
);
width = 642;
}
);
note = Rlinebelow;
rightKerningGroup = R;
unicode = 1E5E;
},
{
glyphname = S;
lastChange = "2015-08-01 07:38:51 +0000";
layers = (
{
layerId = "933D8F18-C226-4057-AED3-19590AE810D9";
name = Bold;
paths = (
{
closed = 1;
nodes = (
"452 -15 OFFCURVE",
"541 67 OFFCURVE",
"541 173 CURVE SMOOTH",
"541 293 OFFCURVE",
"473 323 OFFCURVE",
"322 385 CURVE SMOOTH",
"271 406 OFFCURVE",
"203 430 OFFCURVE",
"203 485 CURVE SMOOTH",
"203 530 OFFCURVE",
"232 545 OFFCURVE",
"275 545 CURVE SMOOTH",
"301 545 OFFCURVE",
"322 541 OFFCURVE",
"344 528 CURVE",
"344 460 LINE",
"530 460 LINE",
"530 572 LINE",
"477 620 OFFCURVE",
"408 662 OFFCURVE",
"285 662 CURVE SMOOTH",
"141 662 OFFCURVE",
"20 604 OFFCURVE",
"20 478 CURVE SMOOTH",
"20 369 OFFCURVE",
"96 320 OFFCURVE",
"229 262 CURVE SMOOTH",
"314 225 OFFCURVE",
"358 208 OFFCURVE",
"358 163 CURVE SMOOTH",
"358 119 OFFCURVE",
"333 102 OFFCURVE",
"285 102 CURVE SMOOTH",
"250 102 OFFCURVE",
"225 107 OFFCURVE",
"201 120 CURVE",
"201 197 LINE",
"15 197 LINE",
"15 72 LINE",
"79 19 OFFCURVE",
"166 -15 OFFCURVE",
"285 -15 CURVE SMOOTH"
);
}
);
width = 556;
}
);
leftKerningGroup = dollar;
note = S;
rightKerningGroup = dollar;
unicode = 0053;
},
{
glyphname = Sacute;
lastChange = "2015-08-01 07:38:50 +0000";
layers = (
{
layerId = "933D8F18-C226-4057-AED3-19590AE810D9";
name = Bold;
paths = (
{
closed = 1;
nodes = (
"452 -15 OFFCURVE",
"541 67 OFFCURVE",
"541 173 CURVE SMOOTH",
"541 293 OFFCURVE",
"473 323 OFFCURVE",
"322 385 CURVE SMOOTH",
"271 406 OFFCURVE",
"203 430 OFFCURVE",
"203 485 CURVE SMOOTH",
"203 530 OFFCURVE",
"232 545 OFFCURVE",
"275 545 CURVE SMOOTH",
"301 545 OFFCURVE",
"322 541 OFFCURVE",
"344 528 CURVE",
"344 460 LINE",
"530 460 LINE",
"530 572 LINE",
"477 620 OFFCURVE",
"408 662 OFFCURVE",
"285 662 CURVE SMOOTH",
"141 662 OFFCURVE",
"20 604 OFFCURVE",
"20 478 CURVE SMOOTH",
"20 369 OFFCURVE",
"96 320 OFFCURVE",
"229 262 CURVE SMOOTH",
"314 225 OFFCURVE",
"358 208 OFFCURVE",
"358 163 CURVE SMOOTH",
"358 119 OFFCURVE",
"333 102 OFFCURVE",
"285 102 CURVE SMOOTH",
"250 102 OFFCURVE",
"225 107 OFFCURVE",
"201 120 CURVE",
"201 197 LINE",
"15 197 LINE",
"15 72 LINE",
"79 19 OFFCURVE",
"166 -15 OFFCURVE",
"285 -15 CURVE SMOOTH"
);
},
{
closed = 1;
nodes = (
"344 697 LINE",
"456 879 LINE",
"260 879 LINE",
"189 697 LINE"
);
}
);
width = 556;
}
);
leftKerningGroup = dollar;
note = Sacute;
rightKerningGroup = dollar;
unicode = 015A;
},
{
glyphname = Scaron;
lastChange = "2015-08-01 07:38:51 +0000";
layers = (
{
layerId = "933D8F18-C226-4057-AED3-19590AE810D9";
name = Bold;
paths = (
{
closed = 1;
nodes = (
"452 -15 OFFCURVE",
"541 67 OFFCURVE",
"541 173 CURVE SMOOTH",
"541 293 OFFCURVE",
"473 323 OFFCURVE",
"322 385 CURVE SMOOTH",
"271 406 OFFCURVE",
"203 430 OFFCURVE",
"203 485 CURVE SMOOTH",
"203 530 OFFCURVE",
"232 545 OFFCURVE",
"275 545 CURVE SMOOTH",
"301 545 OFFCURVE",
"322 541 OFFCURVE",
"344 528 CURVE",
"344 460 LINE",
"530 460 LINE",
"530 572 LINE",
"477 620 OFFCURVE",
"408 662 OFFCURVE",
"285 662 CURVE SMOOTH",
"141 662 OFFCURVE",
"20 604 OFFCURVE",
"20 478 CURVE SMOOTH",
"20 369 OFFCURVE",
"96 320 OFFCURVE",
"229 262 CURVE SMOOTH",
"314 225 OFFCURVE",
"358 208 OFFCURVE",
"358 163 CURVE SMOOTH",
"358 119 OFFCURVE",
"333 102 OFFCURVE",
"285 102 CURVE SMOOTH",
"250 102 OFFCURVE",
"225 107 OFFCURVE",
"201 120 CURVE",
"201 197 LINE",
"15 197 LINE",
"15 72 LINE",
"79 19 OFFCURVE",
"166 -15 OFFCURVE",
"285 -15 CURVE SMOOTH"
);
},
{
closed = 1;
nodes = (
"362 697 LINE",
"502 901 LINE",
"339 901 LINE",
"284 793 LINE",
"227 901 LINE",
"67 901 LINE",
"208 697 LINE"
);
}
);
width = 556;
}
);
leftKerningGroup = dollar;
note = Scaron;
rightKerningGroup = dollar;
unicode = 0160;
},
{
glyphname = Scedilla;
lastChange = "2015-08-01 07:38:51 +0000";
layers = (
{
layerId = "933D8F18-C226-4057-AED3-19590AE810D9";
name = Bold;
paths = (
{
closed = 1;
nodes = (
"452 -15 OFFCURVE",
"541 67 OFFCURVE",
"541 173 CURVE SMOOTH",
"541 293 OFFCURVE",
"473 323 OFFCURVE",
"322 385 CURVE SMOOTH",
"271 406 OFFCURVE",
"203 430 OFFCURVE",
"203 485 CURVE SMOOTH",
"203 530 OFFCURVE",
"232 545 OFFCURVE",
"275 545 CURVE SMOOTH",
"301 545 OFFCURVE",
"322 541 OFFCURVE",
"344 528 CURVE",
"344 460 LINE",
"530 460 LINE",
"530 572 LINE",
"477 620 OFFCURVE",
"408 662 OFFCURVE",
"285 662 CURVE SMOOTH",
"141 662 OFFCURVE",
"20 604 OFFCURVE",
"20 478 CURVE SMOOTH",
"20 369 OFFCURVE",
"96 320 OFFCURVE",
"229 262 CURVE SMOOTH",
"314 225 OFFCURVE",
"358 208 OFFCURVE",
"358 163 CURVE SMOOTH",
"358 119 OFFCURVE",
"333 102 OFFCURVE",
"285 102 CURVE SMOOTH",
"250 102 OFFCURVE",
"225 107 OFFCURVE",
"201 120 CURVE",
"201 197 LINE",
"15 197 LINE",
"15 72 LINE",
"79 19 OFFCURVE",
"166 -15 OFFCURVE",
"285 -15 CURVE SMOOTH"
);
},
{
closed = 1;
nodes = (
"385 -228 OFFCURVE",
"431 -187 OFFCURVE",
"431 -123 CURVE SMOOTH",
"431 -75 OFFCURVE",
"407 -47 OFFCURVE",
"357 -36 CURVE",
"363 0 LINE",
"193 0 LINE",
"182 -77 LINE",
"256 -77 OFFCURVE",
"273 -90 OFFCURVE",
"273 -114 CURVE SMOOTH",
"273 -125 OFFCURVE",
"266 -133 OFFCURVE",
"242 -133 CURVE SMOOTH",
"222 -133 OFFCURVE",
"188 -129 OFFCURVE",
"158 -113 CURVE",
"158 -208 LINE",
"193 -224 OFFCURVE",
"223 -228 OFFCURVE",
"265 -228 CURVE SMOOTH"
);
}
);
width = 556;
}
);
leftKerningGroup = dollar;
note = Scedilla;
rightKerningGroup = dollar;
unicode = 015E;
},
{
glyphname = Scircumflex;
lastChange = "2015-08-01 07:38:50 +0000";
layers = (
{
layerId = "933D8F18-C226-4057-AED3-19590AE810D9";
name = Bold;
paths = (
{
closed = 1;
nodes = (
"452 -15 OFFCURVE",
"541 67 OFFCURVE",
"541 173 CURVE SMOOTH",
"541 293 OFFCURVE",
"473 323 OFFCURVE",
"322 385 CURVE SMOOTH",
"271 406 OFFCURVE",
"203 430 OFFCURVE",
"203 485 CURVE SMOOTH",
"203 530 OFFCURVE",
"232 545 OFFCURVE",
"275 545 CURVE SMOOTH",
"301 545 OFFCURVE",
"322 541 OFFCURVE",
"344 528 CURVE",
"344 460 LINE",
"530 460 LINE",
"530 572 LINE",
"477 620 OFFCURVE",
"408 662 OFFCURVE",
"285 662 CURVE SMOOTH",
"141 662 OFFCURVE",
"20 604 OFFCURVE",
"20 478 CURVE SMOOTH",
"20 369 OFFCURVE",
"96 320 OFFCURVE",
"229 262 CURVE SMOOTH",
"314 225 OFFCURVE",
"358 208 OFFCURVE",
"358 163 CURVE SMOOTH",
"358 119 OFFCURVE",
"333 102 OFFCURVE",
"285 102 CURVE SMOOTH",
"250 102 OFFCURVE",
"225 107 OFFCURVE",
"201 120 CURVE",
"201 197 LINE",
"15 197 LINE",
"15 72 LINE",
"79 19 OFFCURVE",
"166 -15 OFFCURVE",
"285 -15 CURVE SMOOTH"
);
},
{
closed = 1;
nodes = (
"226 697 LINE",
"283 804 LINE",
"338 697 LINE",
"501 697 LINE",
"361 900 LINE",
"207 900 LINE",
"66 697 LINE"
);
}
);
width = 556;
}
);
leftKerningGroup = dollar;
note = Scircumflex;
rightKerningGroup = dollar;
unicode = 015C;
},
{
glyphname = Scommaaccent;
lastChange = "2015-08-01 07:38:50 +0000";
layers = (
{
layerId = "933D8F18-C226-4057-AED3-19590AE810D9";
name = Bold;
paths = (
{
closed = 1;
nodes = (
"452 -15 OFFCURVE",
"541 67 OFFCURVE",
"541 173 CURVE SMOOTH",
"541 293 OFFCURVE",
"473 323 OFFCURVE",
"322 385 CURVE SMOOTH",
"271 406 OFFCURVE",
"203 430 OFFCURVE",
"203 485 CURVE SMOOTH",
"203 530 OFFCURVE",
"232 545 OFFCURVE",
"275 545 CURVE SMOOTH",
"301 545 OFFCURVE",
"322 541 OFFCURVE",
"344 528 CURVE",
"344 460 LINE",
"530 460 LINE",
"530 572 LINE",
"477 620 OFFCURVE",
"408 662 OFFCURVE",
"285 662 CURVE SMOOTH",
"141 662 OFFCURVE",
"20 604 OFFCURVE",
"20 478 CURVE SMOOTH",
"20 369 OFFCURVE",
"96 320 OFFCURVE",
"229 262 CURVE SMOOTH",
"314 225 OFFCURVE",
"358 208 OFFCURVE",
"358 163 CURVE SMOOTH",
"358 119 OFFCURVE",
"333 102 OFFCURVE",
"285 102 CURVE SMOOTH",
"250 102 OFFCURVE",
"225 107 OFFCURVE",
"201 120 CURVE",
"201 197 LINE",
"15 197 LINE",
"15 72 LINE",
"79 19 OFFCURVE",
"166 -15 OFFCURVE",
"285 -15 CURVE SMOOTH"
);
},
{
closed = 1;
nodes = (
"311 -270 LINE",
"419 -49 LINE",
"205 -49 LINE",
"137 -270 LINE"
);
}
);
width = 556;
}
);
leftKerningGroup = dollar;
note = Scommaaccent;
rightKerningGroup = dollar;
unicode = 0218;
},
{
glyphname = Sdotaccent;
lastChange = "2015-08-01 07:38:50 +0000";
layers = (
{
layerId = "933D8F18-C226-4057-AED3-19590AE810D9";
name = Bold;
paths = (
{
closed = 1;
nodes = (
"452 -15 OFFCURVE",
"541 67 OFFCURVE",
"541 173 CURVE SMOOTH",
"541 293 OFFCURVE",
"473 323 OFFCURVE",
"322 385 CURVE SMOOTH",
"271 406 OFFCURVE",
"203 430 OFFCURVE",
"203 485 CURVE SMOOTH",
"203 530 OFFCURVE",
"232 545 OFFCURVE",
"275 545 CURVE SMOOTH",
"301 545 OFFCURVE",
"322 541 OFFCURVE",
"344 528 CURVE",
"344 460 LINE",
"530 460 LINE",
"530 572 LINE",
"477 620 OFFCURVE",
"408 662 OFFCURVE",
"285 662 CURVE SMOOTH",
"141 662 OFFCURVE",
"20 604 OFFCURVE",
"20 478 CURVE SMOOTH",
"20 369 OFFCURVE",
"96 320 OFFCURVE",
"229 262 CURVE SMOOTH",
"314 225 OFFCURVE",
"358 208 OFFCURVE",
"358 163 CURVE SMOOTH",
"358 119 OFFCURVE",
"333 102 OFFCURVE",
"285 102 CURVE SMOOTH",
"250 102 OFFCURVE",
"225 107 OFFCURVE",
"201 120 CURVE",
"201 197 LINE",
"15 197 LINE",
"15 72 LINE",
"79 19 OFFCURVE",
"166 -15 OFFCURVE",
"285 -15 CURVE SMOOTH"
);
},
{
closed = 1;
nodes = (
"346 717 LINE",
"346 854 LINE",
"216 854 LINE",
"216 717 LINE"
);
}
);
width = 556;
}
);
leftKerningGroup = dollar;
note = Sdotaccent;
rightKerningGroup = dollar;
unicode = 1E60;
},
{
glyphname = Sdotbelow;
lastChange = "2015-08-01 07:38:50 +0000";
layers = (
{
layerId = "933D8F18-C226-4057-AED3-19590AE810D9";
name = Bold;
paths = (
{
closed = 1;
nodes = (
"452 -15 OFFCURVE",
"541 67 OFFCURVE",
"541 173 CURVE SMOOTH",
"541 293 OFFCURVE",
"473 323 OFFCURVE",
"322 385 CURVE SMOOTH",
"271 406 OFFCURVE",
"203 430 OFFCURVE",
"203 485 CURVE SMOOTH",
"203 530 OFFCURVE",
"232 545 OFFCURVE",
"275 545 CURVE SMOOTH",
"301 545 OFFCURVE",
"322 541 OFFCURVE",
"344 528 CURVE",
"344 460 LINE",
"530 460 LINE",
"530 572 LINE",
"477 620 OFFCURVE",
"408 662 OFFCURVE",
"285 662 CURVE SMOOTH",
"141 662 OFFCURVE",
"20 604 OFFCURVE",
"20 478 CURVE SMOOTH",
"20 369 OFFCURVE",
"96 320 OFFCURVE",
"229 262 CURVE SMOOTH",
"314 225 OFFCURVE",
"358 208 OFFCURVE",
"358 163 CURVE SMOOTH",
"358 119 OFFCURVE",
"333 102 OFFCURVE",
"285 102 CURVE SMOOTH",
"250 102 OFFCURVE",
"225 107 OFFCURVE",
"201 120 CURVE",
"201 197 LINE",
"15 197 LINE",
"15 72 LINE",
"79 19 OFFCURVE",
"166 -15 OFFCURVE",
"285 -15 CURVE SMOOTH"
);
},
{
closed = 1;
nodes = (
"337 -197 LINE",
"337 -60 LINE",
"208 -60 LINE",
"208 -197 LINE"
);
}
);
width = 556;
}
);
leftKerningGroup = dollar;
note = Sdotbelow;
rightKerningGroup = dollar;
unicode = 1E62;
},
{
glyphname = Germandbls;
lastChange = "2015-07-31 14:10:13 +0000";
layers = (
{
layerId = "933D8F18-C226-4057-AED3-19590AE810D9";
name = Bold;
paths = (
{
closed = 1;
nodes = (
"593 -15 OFFCURVE",
"660 72 OFFCURVE",
"660 195 CURVE SMOOTH",
"660 313 OFFCURVE",
"618 380 OFFCURVE",
"506 395 CURVE",
"601 507 LINE",
"601 596 OFFCURVE",
"520 690 OFFCURVE",
"350 690 CURVE SMOOTH",
"146 690 OFFCURVE",
"64 593 OFFCURVE",
"64 456 CURVE SMOOTH",
"64 152 LINE SMOOTH",
"64 125 OFFCURVE",
"55 116 OFFCURVE",
"30 116 CURVE SMOOTH",
"5 116 LINE",
"5 0 LINE",
"254 0 LINE",
"254 464 LINE SMOOTH",
"254 541 OFFCURVE",
"283 573 OFFCURVE",
"348 573 CURVE SMOOTH",
"391 573 OFFCURVE",
"418 555 OFFCURVE",
"418 530 CURVE",
"288 365 LINE",
"288 284 LINE",
"389 284 LINE SMOOTH",
"454 284 OFFCURVE",
"477 254 OFFCURVE",
"477 193 CURVE SMOOTH",
"477 118 OFFCURVE",
"458 95 OFFCURVE",
"421 95 CURVE SMOOTH",
"397 95 OFFCURVE",
"380 100 OFFCURVE",
"362 112 CURVE",
"305 18 LINE",
"342 -4 OFFCURVE",
"390 -15 OFFCURVE",
"437 -15 CURVE SMOOTH"
);
}
);
width = 675;
}
);
note = uni1E9E;
unicode = 1E9E;
},
{
glyphname = Schwa;
lastChange = "2015-07-31 14:10:16 +0000";
layers = (
{
layerId = "933D8F18-C226-4057-AED3-19590AE810D9";
name = Bold;
paths = (
{
closed = 1;
nodes = (
"565 -15 OFFCURVE",
"671 106 OFFCURVE",
"671 335 CURVE SMOOTH",
"671 564 OFFCURVE",
"526 662 OFFCURVE",
"333 662 CURVE SMOOTH",
"216 662 OFFCURVE",
"119 635 OFFCURVE",
"35 572 CURVE",
"35 455 LINE",
"224 455 LINE",
"224 529 LINE",
"253 539 OFFCURVE",
"288 545 OFFCURVE",
"333 545 CURVE SMOOTH",
"430 545 OFFCURVE",
"488 489 OFFCURVE",
"488 387 CURVE",
"15 387 LINE",
"15 303 LINE SMOOTH",
"15 126 OFFCURVE",
"118 -15 OFFCURVE",
"347 -15 CURVE SMOOTH"
);
},
{
closed = 1;
nodes = (
"256 102 OFFCURVE",
"206 165 OFFCURVE",
"206 267 CURVE",
"488 267 LINE",
"488 174 OFFCURVE",
"454 102 OFFCURVE",
"347 102 CURVE SMOOTH"
);
}
);
width = 686;
}
);
note = uni018F;
unicode = 018F;
},
{
glyphname = T;
lastChange = "2015-08-01 07:38:50 +0000";
layers = (
{
layerId = "933D8F18-C226-4057-AED3-19590AE810D9";
name = Bold;
paths = (
{
closed = 1;
nodes = (
"471 0 LINE",
"471 117 LINE",
"450 117 LINE SMOOTH",
"422 117 OFFCURVE",
"409 132 OFFCURVE",
"409 154 CURVE SMOOTH",
"409 528 LINE",
"461 528 LINE SMOOTH",
"489 528 OFFCURVE",
"502 515 OFFCURVE",
"502 489 CURVE SMOOTH",
"502 445 LINE",
"628 445 LINE",
"628 644 LINE",
"5 644 LINE",
"5 445 LINE",
"131 445 LINE",
"131 489 LINE SMOOTH",
"131 515 OFFCURVE",
"144 528 OFFCURVE",
"172 528 CURVE SMOOTH",
"224 528 LINE",
"224 154 LINE SMOOTH",
"224 132 OFFCURVE",
"212 117 OFFCURVE",
"184 117 CURVE SMOOTH",
"163 117 LINE",
"163 0 LINE"
);
}
);
width = 633;
}
);
leftKerningGroup = T;
note = T;
rightKerningGroup = T;
unicode = 0054;
},
{
glyphname = Tbar;
lastChange = "2015-08-01 07:38:50 +0000";
layers = (
{
layerId = "933D8F18-C226-4057-AED3-19590AE810D9";
name = Bold;
paths = (
{
closed = 1;
nodes = (
"471 0 LINE",
"471 117 LINE",
"450 117 LINE SMOOTH",
"422 117 OFFCURVE",
"409 132 OFFCURVE",
"409 154 CURVE SMOOTH",
"409 528 LINE",
"461 528 LINE SMOOTH",
"489 528 OFFCURVE",
"502 515 OFFCURVE",
"502 489 CURVE SMOOTH",
"502 445 LINE",
"628 445 LINE",
"628 644 LINE",
"5 644 LINE",
"5 445 LINE",
"131 445 LINE",
"131 489 LINE SMOOTH",
"131 515 OFFCURVE",
"144 528 OFFCURVE",
"172 528 CURVE SMOOTH",
"224 528 LINE",
"224 154 LINE SMOOTH",
"224 132 OFFCURVE",
"212 117 OFFCURVE",
"184 117 CURVE SMOOTH",
"163 117 LINE",
"163 0 LINE"
);
},
{
closed = 1;
nodes = (
"524 250 LINE",
"524 355 LINE",
"151 355 LINE",
"151 250 LINE"
);
}
);
width = 633;
}
);
leftKerningGroup = T;
note = Tbar;
rightKerningGroup = T;
unicode = 0166;
},
{
glyphname = Tcaron;
lastChange = "2015-08-01 07:38:51 +0000";
layers = (
{
layerId = "933D8F18-C226-4057-AED3-19590AE810D9";
name = Bold;
paths = (
{
closed = 1;
nodes = (
"471 0 LINE",
"471 117 LINE",
"450 117 LINE SMOOTH",
"422 117 OFFCURVE",
"409 132 OFFCURVE",
"409 154 CURVE SMOOTH",
"409 528 LINE",
"461 528 LINE SMOOTH",
"489 528 OFFCURVE",
"502 515 OFFCURVE",
"502 489 CURVE SMOOTH",
"502 445 LINE",
"628 445 LINE",
"628 644 LINE",
"5 644 LINE",
"5 445 LINE",
"131 445 LINE",
"131 489 LINE SMOOTH",
"131 515 OFFCURVE",
"144 528 OFFCURVE",
"172 528 CURVE SMOOTH",
"224 528 LINE",
"224 154 LINE SMOOTH",
"224 132 OFFCURVE",
"212 117 OFFCURVE",
"184 117 CURVE SMOOTH",
"163 117 LINE",
"163 0 LINE"
);
},
{
closed = 1;
nodes = (
"395 697 LINE",
"535 901 LINE",
"372 901 LINE",
"317 793 LINE",
"260 901 LINE",
"100 901 LINE",
"241 697 LINE"
);
}
);
width = 633;
}
);
leftKerningGroup = T;
note = Tcaron;
rightKerningGroup = T;
unicode = 0164;
},
{
glyphname = Tcedilla;
lastChange = "2015-08-01 07:38:50 +0000";
layers = (
{
layerId = "933D8F18-C226-4057-AED3-19590AE810D9";
name = Bold;
paths = (
{
closed = 1;
nodes = (
"471 0 LINE",
"471 117 LINE",
"450 117 LINE SMOOTH",
"422 117 OFFCURVE",
"409 132 OFFCURVE",
"409 154 CURVE SMOOTH",
"409 528 LINE",
"461 528 LINE SMOOTH",
"489 528 OFFCURVE",
"502 515 OFFCURVE",
"502 489 CURVE SMOOTH",
"502 445 LINE",
"628 445 LINE",
"628 644 LINE",
"5 644 LINE",
"5 445 LINE",
"131 445 LINE",
"131 489 LINE SMOOTH",
"131 515 OFFCURVE",
"144 528 OFFCURVE",
"172 528 CURVE SMOOTH",
"224 528 LINE",
"224 154 LINE SMOOTH",
"224 132 OFFCURVE",
"212 117 OFFCURVE",
"184 117 CURVE SMOOTH",
"163 117 LINE",
"163 0 LINE"
);
},
{
closed = 1;
nodes = (
"409 -228 OFFCURVE",
"455 -187 OFFCURVE",
"455 -123 CURVE SMOOTH",
"455 -75 OFFCURVE",
"431 -47 OFFCURVE",
"381 -36 CURVE",
"387 0 LINE",
"217 0 LINE",
"206 -77 LINE",
"280 -77 OFFCURVE",
"297 -90 OFFCURVE",
"297 -114 CURVE SMOOTH",
"297 -125 OFFCURVE",
"290 -133 OFFCURVE",
"266 -133 CURVE SMOOTH",
"246 -133 OFFCURVE",
"212 -129 OFFCURVE",
"182 -113 CURVE",
"182 -208 LINE",
"217 -224 OFFCURVE",
"247 -228 OFFCURVE",
"289 -228 CURVE SMOOTH"
);
}
);
width = 633;
}
);
leftKerningGroup = T;
note = Tcedilla;
rightKerningGroup = T;
unicode = 0162;
},
{
glyphname = Tcommaaccent;
lastChange = "2015-11-24 06:08:39 +0000";
layers = (
{
layerId = "933D8F18-C226-4057-AED3-19590AE810D9";
name = Bold;
paths = (
{
closed = 1;
nodes = (
"471 0 LINE",
"471 117 LINE",
"450 117 LINE SMOOTH",
"422 117 OFFCURVE",
"409 132 OFFCURVE",
"409 154 CURVE SMOOTH",
"409 528 LINE",
"461 528 LINE SMOOTH",
"489 528 OFFCURVE",
"502 515 OFFCURVE",
"502 489 CURVE SMOOTH",
"502 445 LINE",
"628 445 LINE",
"628 644 LINE",
"5 644 LINE",
"5 445 LINE",
"131 445 LINE",
"131 489 LINE SMOOTH",
"131 515 OFFCURVE",
"144 528 OFFCURVE",
"172 528 CURVE SMOOTH",
"224 528 LINE",
"224 154 LINE SMOOTH",
"224 132 OFFCURVE",
"212 117 OFFCURVE",
"184 117 CURVE SMOOTH",
"163 117 LINE",
"163 0 LINE"
);
},
{
closed = 1;
nodes = (
"341 -282 LINE",
"412 -49 LINE",
"223 -49 LINE",
"188 -282 LINE"
);
}
);
width = 633;
}
);
leftKerningGroup = T;
note = Tcommaaccent;
rightKerningGroup = T;
unicode = 021A;
},
{
glyphname = Tdotbelow;
lastChange = "2015-08-01 07:38:50 +0000";
layers = (
{
layerId = "933D8F18-C226-4057-AED3-19590AE810D9";
name = Bold;
paths = (
{
closed = 1;
nodes = (
"471 0 LINE",
"471 117 LINE",
"450 117 LINE SMOOTH",
"422 117 OFFCURVE",
"409 132 OFFCURVE",
"409 154 CURVE SMOOTH",
"409 528 LINE",
"461 528 LINE SMOOTH",
"489 528 OFFCURVE",
"502 515 OFFCURVE",
"502 489 CURVE SMOOTH",
"502 445 LINE",
"628 445 LINE",
"628 644 LINE",
"5 644 LINE",
"5 445 LINE",
"131 445 LINE",
"131 489 LINE SMOOTH",
"131 515 OFFCURVE",
"144 528 OFFCURVE",
"172 528 CURVE SMOOTH",
"224 528 LINE",
"224 154 LINE SMOOTH",
"224 132 OFFCURVE",
"212 117 OFFCURVE",
"184 117 CURVE SMOOTH",
"163 117 LINE",
"163 0 LINE"
);
},
{
closed = 1;
nodes = (
"383 -197 LINE",
"383 -60 LINE",
"254 -60 LINE",
"254 -197 LINE"
);
}
);
width = 633;
}
);
leftKerningGroup = T;
note = Tdotbelow;
rightKerningGroup = T;
unicode = 1E6C;
},
{
glyphname = Tlinebelow;
lastChange = "2015-08-01 07:38:50 +0000";
layers = (
{
layerId = "933D8F18-C226-4057-AED3-19590AE810D9";
name = Bold;
paths = (
{
closed = 1;
nodes = (
"471 0 LINE",
"471 117 LINE",
"450 117 LINE SMOOTH",
"422 117 OFFCURVE",
"409 132 OFFCURVE",
"409 154 CURVE SMOOTH",
"409 528 LINE",
"461 528 LINE SMOOTH",
"489 528 OFFCURVE",
"502 515 OFFCURVE",
"502 489 CURVE SMOOTH",
"502 445 LINE",
"628 445 LINE",
"628 644 LINE",
"5 644 LINE",
"5 445 LINE",
"131 445 LINE",
"131 489 LINE SMOOTH",
"131 515 OFFCURVE",
"144 528 OFFCURVE",
"172 528 CURVE SMOOTH",
"224 528 LINE",
"224 154 LINE SMOOTH",
"224 132 OFFCURVE",
"212 117 OFFCURVE",
"184 117 CURVE SMOOTH",
"163 117 LINE",
"163 0 LINE"
);
},
{
closed = 1;
nodes = (
"481 -149 LINE",
"481 -44 LINE",
"164 -44 LINE",
"164 -149 LINE"
);
}
);
width = 633;
}
);
leftKerningGroup = T;
note = Tlinebelow;
rightKerningGroup = T;
unicode = 1E6E;
},
{
glyphname = U;
lastChange = "2015-08-01 07:38:51 +0000";
layers = (
{
layerId = "933D8F18-C226-4057-AED3-19590AE810D9";
name = Bold;
paths = (
{
closed = 1;
nodes = (
"527 -15 OFFCURVE",
"613 67 OFFCURVE",
"613 190 CURVE SMOOTH",
"613 493 LINE SMOOTH",
"613 516 OFFCURVE",
"626 530 OFFCURVE",
"654 530 CURVE SMOOTH",
"675 530 LINE",
"675 647 LINE",
"377 647 LINE",
"377 530 LINE",
"388 530 LINE SMOOTH",
"416 530 OFFCURVE",
"428 517 OFFCURVE",
"428 490 CURVE SMOOTH",
"428 184 LINE SMOOTH",
"428 124 OFFCURVE",
"398 102 OFFCURVE",
"340 102 CURVE SMOOTH",
"281 102 OFFCURVE",
"251 124 OFFCURVE",
"251 184 CURVE SMOOTH",
"251 490 LINE SMOOTH",
"251 517 OFFCURVE",
"263 530 OFFCURVE",
"292 530 CURVE SMOOTH",
"302 530 LINE",
"302 647 LINE",
"5 647 LINE",
"5 530 LINE",
"25 530 LINE SMOOTH",
"54 530 OFFCURVE",
"66 516 OFFCURVE",
"66 493 CURVE SMOOTH",
"66 190 LINE SMOOTH",
"66 67 OFFCURVE",
"152 -15 OFFCURVE",
"340 -15 CURVE SMOOTH"
);
}
);
width = 680;
}
);
leftKerningGroup = U;
note = U;
rightKerningGroup = U;
unicode = 0055;
},
{
glyphname = Uacute;
lastChange = "2015-08-01 07:38:51 +0000";
layers = (
{
layerId = "933D8F18-C226-4057-AED3-19590AE810D9";
name = Bold;
paths = (
{
closed = 1;
nodes = (
"527 -15 OFFCURVE",
"613 67 OFFCURVE",
"613 190 CURVE SMOOTH",
"613 493 LINE SMOOTH",
"613 516 OFFCURVE",
"626 530 OFFCURVE",
"654 530 CURVE SMOOTH",
"675 530 LINE",
"675 647 LINE",
"377 647 LINE",
"377 530 LINE",
"388 530 LINE SMOOTH",
"416 530 OFFCURVE",
"428 517 OFFCURVE",
"428 490 CURVE SMOOTH",
"428 184 LINE SMOOTH",
"428 124 OFFCURVE",
"398 102 OFFCURVE",
"340 102 CURVE SMOOTH",
"281 102 OFFCURVE",
"251 124 OFFCURVE",
"251 184 CURVE SMOOTH",
"251 490 LINE SMOOTH",
"251 517 OFFCURVE",
"263 530 OFFCURVE",
"292 530 CURVE SMOOTH",
"302 530 LINE",
"302 647 LINE",
"5 647 LINE",
"5 530 LINE",
"25 530 LINE SMOOTH",
"54 530 OFFCURVE",
"66 516 OFFCURVE",
"66 493 CURVE SMOOTH",
"66 190 LINE SMOOTH",
"66 67 OFFCURVE",
"152 -15 OFFCURVE",
"340 -15 CURVE SMOOTH"
);
},
{
closed = 1;
nodes = (
"406 697 LINE",
"518 879 LINE",
"322 879 LINE",
"251 697 LINE"
);
}
);
width = 680;
}
);
leftKerningGroup = U;
note = Uacute;
rightKerningGroup = U;
unicode = 00DA;
},
{
glyphname = Ubreve;
lastChange = "2015-08-01 07:38:52 +0000";
layers = (
{
layerId = "933D8F18-C226-4057-AED3-19590AE810D9";
name = Bold;
paths = (
{
closed = 1;
nodes = (
"527 -15 OFFCURVE",
"613 67 OFFCURVE",
"613 190 CURVE SMOOTH",
"613 493 LINE SMOOTH",
"613 516 OFFCURVE",
"626 530 OFFCURVE",
"654 530 CURVE SMOOTH",
"675 530 LINE",
"675 647 LINE",
"377 647 LINE",
"377 530 LINE",
"388 530 LINE SMOOTH",
"416 530 OFFCURVE",
"428 517 OFFCURVE",
"428 490 CURVE SMOOTH",
"428 184 LINE SMOOTH",
"428 124 OFFCURVE",
"398 102 OFFCURVE",
"340 102 CURVE SMOOTH",
"281 102 OFFCURVE",
"251 124 OFFCURVE",
"251 184 CURVE SMOOTH",
"251 490 LINE SMOOTH",
"251 517 OFFCURVE",
"263 530 OFFCURVE",
"292 530 CURVE SMOOTH",
"302 530 LINE",
"302 647 LINE",
"5 647 LINE",
"5 530 LINE",
"25 530 LINE SMOOTH",
"54 530 OFFCURVE",
"66 516 OFFCURVE",
"66 493 CURVE SMOOTH",
"66 190 LINE SMOOTH",
"66 67 OFFCURVE",
"152 -15 OFFCURVE",
"340 -15 CURVE SMOOTH"
);
},
{
closed = 1;
nodes = (
"462 697 OFFCURVE",
"527 763 OFFCURVE",
"527 860 CURVE",
"374 860 LINE",
"374 826 OFFCURVE",
"370 804 OFFCURVE",
"339 804 CURVE SMOOTH",
"312 804 OFFCURVE",
"304 826 OFFCURVE",
"304 860 CURVE",
"151 860 LINE",
"151 763 OFFCURVE",
"216 697 OFFCURVE",
"339 697 CURVE SMOOTH"
);
}
);
width = 680;
}
);
leftKerningGroup = U;
note = Ubreve;
rightKerningGroup = U;
unicode = 016C;
},
{
glyphname = Ucaron;
lastChange = "2015-08-01 07:38:51 +0000";
layers = (
{
layerId = "933D8F18-C226-4057-AED3-19590AE810D9";
name = Bold;
paths = (
{
closed = 1;
nodes = (
"527 -15 OFFCURVE",
"613 67 OFFCURVE",
"613 190 CURVE SMOOTH",
"613 493 LINE SMOOTH",
"613 516 OFFCURVE",
"626 530 OFFCURVE",
"654 530 CURVE SMOOTH",
"675 530 LINE",
"675 647 LINE",
"377 647 LINE",
"377 530 LINE",
"388 530 LINE SMOOTH",
"416 530 OFFCURVE",
"428 517 OFFCURVE",
"428 490 CURVE SMOOTH",
"428 184 LINE SMOOTH",
"428 124 OFFCURVE",
"398 102 OFFCURVE",
"340 102 CURVE SMOOTH",
"281 102 OFFCURVE",
"251 124 OFFCURVE",
"251 184 CURVE SMOOTH",
"251 490 LINE SMOOTH",
"251 517 OFFCURVE",
"263 530 OFFCURVE",
"292 530 CURVE SMOOTH",
"302 530 LINE",
"302 647 LINE",
"5 647 LINE",
"5 530 LINE",
"25 530 LINE SMOOTH",
"54 530 OFFCURVE",
"66 516 OFFCURVE",
"66 493 CURVE SMOOTH",
"66 190 LINE SMOOTH",
"66 67 OFFCURVE",
"152 -15 OFFCURVE",
"340 -15 CURVE SMOOTH"
);
},
{
closed = 1;
nodes = (
"416 697 LINE",
"556 901 LINE",
"393 901 LINE",
"338 793 LINE",
"281 901 LINE",
"121 901 LINE",
"262 697 LINE"
);
}
);
width = 680;
}
);
leftKerningGroup = U;
note = Ucaron;
rightKerningGroup = U;
unicode = 01D3;
},
{
glyphname = Ucircumflex;
lastChange = "2015-08-01 07:38:51 +0000";
layers = (
{
layerId = "933D8F18-C226-4057-AED3-19590AE810D9";
name = Bold;
paths = (
{
closed = 1;
nodes = (
"527 -15 OFFCURVE",
"613 67 OFFCURVE",
"613 190 CURVE SMOOTH",
"613 493 LINE SMOOTH",
"613 516 OFFCURVE",
"626 530 OFFCURVE",
"654 530 CURVE SMOOTH",
"675 530 LINE",
"675 647 LINE",
"377 647 LINE",
"377 530 LINE",
"388 530 LINE SMOOTH",
"416 530 OFFCURVE",
"428 517 OFFCURVE",
"428 490 CURVE SMOOTH",
"428 184 LINE SMOOTH",
"428 124 OFFCURVE",
"398 102 OFFCURVE",
"340 102 CURVE SMOOTH",
"281 102 OFFCURVE",
"251 124 OFFCURVE",
"251 184 CURVE SMOOTH",
"251 490 LINE SMOOTH",
"251 517 OFFCURVE",
"263 530 OFFCURVE",
"292 530 CURVE SMOOTH",
"302 530 LINE",
"302 647 LINE",
"5 647 LINE",
"5 530 LINE",
"25 530 LINE SMOOTH",
"54 530 OFFCURVE",
"66 516 OFFCURVE",
"66 493 CURVE SMOOTH",
"66 190 LINE SMOOTH",
"66 67 OFFCURVE",
"152 -15 OFFCURVE",
"340 -15 CURVE SMOOTH"
);
},
{
closed = 1;
nodes = (
"282 697 LINE",
"339 804 LINE",
"394 697 LINE",
"557 697 LINE",
"417 900 LINE",
"263 900 LINE",
"122 697 LINE"
);
}
);
width = 680;
}
);
leftKerningGroup = U;
note = Ucircumflex;
rightKerningGroup = U;
unicode = 00DB;
},
{
glyphname = Udieresis;
lastChange = "2015-11-24 06:08:51 +0000";
layers = (
{
layerId = "933D8F18-C226-4057-AED3-19590AE810D9";
name = Bold;
paths = (
{
closed = 1;
nodes = (
"527 -15 OFFCURVE",
"613 67 OFFCURVE",
"613 190 CURVE SMOOTH",
"613 493 LINE SMOOTH",
"613 516 OFFCURVE",
"626 530 OFFCURVE",
"654 530 CURVE SMOOTH",
"675 530 LINE",
"675 647 LINE",
"377 647 LINE",
"377 530 LINE",
"388 530 LINE SMOOTH",
"416 530 OFFCURVE",
"428 517 OFFCURVE",
"428 490 CURVE SMOOTH",
"428 184 LINE SMOOTH",
"428 124 OFFCURVE",
"398 102 OFFCURVE",
"340 102 CURVE SMOOTH",
"281 102 OFFCURVE",
"251 124 OFFCURVE",
"251 184 CURVE SMOOTH",
"251 490 LINE SMOOTH",
"251 517 OFFCURVE",
"263 530 OFFCURVE",
"292 530 CURVE SMOOTH",
"302 530 LINE",
"302 647 LINE",
"5 647 LINE",
"5 530 LINE",
"25 530 LINE SMOOTH",
"54 530 OFFCURVE",
"66 516 OFFCURVE",
"66 493 CURVE SMOOTH",
"66 190 LINE SMOOTH",
"66 67 OFFCURVE",
"152 -15 OFFCURVE",
"340 -15 CURVE SMOOTH"
);
},
{
closed = 1;
nodes = (
"279 717 LINE",
"279 854 LINE",
"151 854 LINE",
"151 717 LINE"
);
},
{
closed = 1;
nodes = (
"530 717 LINE",
"530 854 LINE",
"401 854 LINE",
"401 717 LINE"
);
}
);
width = 680;
}
);
leftKerningGroup = U;
note = Udieresis;
rightKerningGroup = U;
unicode = 00DC;
},
{
glyphname = Udieresisacute;
lastChange = "2015-08-01 07:38:51 +0000";
layers = (
{
layerId = "933D8F18-C226-4057-AED3-19590AE810D9";
name = Bold;
paths = (
{
closed = 1;
nodes = (
"527 -15 OFFCURVE",
"613 67 OFFCURVE",
"613 190 CURVE SMOOTH",
"613 493 LINE SMOOTH",
"613 516 OFFCURVE",
"626 530 OFFCURVE",
"654 530 CURVE SMOOTH",
"675 530 LINE",
"675 647 LINE",
"377 647 LINE",
"377 530 LINE",
"388 530 LINE SMOOTH",
"416 530 OFFCURVE",
"428 517 OFFCURVE",
"428 490 CURVE SMOOTH",
"428 184 LINE SMOOTH",
"428 124 OFFCURVE",
"398 102 OFFCURVE",
"340 102 CURVE SMOOTH",
"281 102 OFFCURVE",
"251 124 OFFCURVE",
"251 184 CURVE SMOOTH",
"251 490 LINE SMOOTH",
"251 517 OFFCURVE",
"263 530 OFFCURVE",
"292 530 CURVE SMOOTH",
"302 530 LINE",
"302 647 LINE",
"5 647 LINE",
"5 530 LINE",
"25 530 LINE SMOOTH",
"54 530 OFFCURVE",
"66 516 OFFCURVE",
"66 493 CURVE SMOOTH",
"66 190 LINE SMOOTH",
"66 67 OFFCURVE",
"152 -15 OFFCURVE",
"340 -15 CURVE SMOOTH"
);
},
{
closed = 1;
nodes = (
"273 697 LINE",
"273 825 LINE",
"145 825 LINE",
"145 697 LINE"
);
},
{
closed = 1;
nodes = (
"524 697 LINE",
"524 825 LINE",
"395 825 LINE",
"395 697 LINE"
);
},
{
closed = 1;
nodes = (
"394 850 LINE",
"498 1001 LINE",
"323 1001 LINE",
"263 850 LINE"
);
}
);
width = 680;
}
);
leftKerningGroup = U;
note = Udieresisacute;
rightKerningGroup = U;
unicode = 01D7;
},
{
glyphname = Udieresiscaron;
lastChange = "2015-08-01 07:38:51 +0000";
layers = (
{
layerId = "933D8F18-C226-4057-AED3-19590AE810D9";
name = Bold;
paths = (
{
closed = 1;
nodes = (
"527 -15 OFFCURVE",
"613 67 OFFCURVE",
"613 190 CURVE SMOOTH",
"613 493 LINE SMOOTH",
"613 516 OFFCURVE",
"626 530 OFFCURVE",
"654 530 CURVE SMOOTH",
"675 530 LINE",
"675 647 LINE",
"377 647 LINE",
"377 530 LINE",
"388 530 LINE SMOOTH",
"416 530 OFFCURVE",
"428 517 OFFCURVE",
"428 490 CURVE SMOOTH",
"428 184 LINE SMOOTH",
"428 124 OFFCURVE",
"398 102 OFFCURVE",
"340 102 CURVE SMOOTH",
"281 102 OFFCURVE",
"251 124 OFFCURVE",
"251 184 CURVE SMOOTH",
"251 490 LINE SMOOTH",
"251 517 OFFCURVE",
"263 530 OFFCURVE",
"292 530 CURVE SMOOTH",
"302 530 LINE",
"302 647 LINE",
"5 647 LINE",
"5 530 LINE",
"25 530 LINE SMOOTH",
"54 530 OFFCURVE",
"66 516 OFFCURVE",
"66 493 CURVE SMOOTH",
"66 190 LINE SMOOTH",
"66 67 OFFCURVE",
"152 -15 OFFCURVE",
"340 -15 CURVE SMOOTH"
);
},
{
closed = 1;
nodes = (
"278 696 LINE",
"278 824 LINE",
"149 824 LINE",
"149 696 LINE"
);
},
{
closed = 1;
nodes = (
"528 696 LINE",
"528 824 LINE",
"400 824 LINE",
"400 696 LINE"
);
},
{
closed = 1;
nodes = (
"413 844 LINE",
"530 995 LINE",
"380 995 LINE",
"340 926 LINE",
"295 995 LINE",
"148 995 LINE",
"266 844 LINE"
);
}
);
width = 680;
}
);
leftKerningGroup = U;
note = Udieresiscaron;
rightKerningGroup = U;
unicode = 01D9;
},
{
glyphname = Udieresisgrave;
lastChange = "2015-08-01 07:38:50 +0000";
layers = (
{
layerId = "933D8F18-C226-4057-AED3-19590AE810D9";
name = Bold;
paths = (
{
closed = 1;
nodes = (
"527 -15 OFFCURVE",
"613 67 OFFCURVE",
"613 190 CURVE SMOOTH",
"613 493 LINE SMOOTH",
"613 516 OFFCURVE",
"626 530 OFFCURVE",
"654 530 CURVE SMOOTH",
"675 530 LINE",
"675 647 LINE",
"377 647 LINE",
"377 530 LINE",
"388 530 LINE SMOOTH",
"416 530 OFFCURVE",
"428 517 OFFCURVE",
"428 490 CURVE SMOOTH",
"428 184 LINE SMOOTH",
"428 124 OFFCURVE",
"398 102 OFFCURVE",
"340 102 CURVE SMOOTH",
"281 102 OFFCURVE",
"251 124 OFFCURVE",
"251 184 CURVE SMOOTH",
"251 490 LINE SMOOTH",
"251 517 OFFCURVE",
"263 530 OFFCURVE",
"292 530 CURVE SMOOTH",
"302 530 LINE",
"302 647 LINE",
"5 647 LINE",
"5 530 LINE",
"25 530 LINE SMOOTH",
"54 530 OFFCURVE",
"66 516 OFFCURVE",
"66 493 CURVE SMOOTH",
"66 190 LINE SMOOTH",
"66 67 OFFCURVE",
"152 -15 OFFCURVE",
"340 -15 CURVE SMOOTH"
);
},
{
closed = 1;
nodes = (
"279 697 LINE",
"279 825 LINE",
"150 825 LINE",
"150 697 LINE"
);
},
{
closed = 1;
nodes = (
"411 850 LINE",
"351 1001 LINE",
"176 1001 LINE",
"280 850 LINE"
);
},
{
closed = 1;
nodes = (
"529 697 LINE",
"529 825 LINE",
"401 825 LINE",
"401 697 LINE"
);
}
);
width = 680;
}
);
leftKerningGroup = U;
note = Udieresisgrave;
rightKerningGroup = U;
unicode = 01DB;
},
{
glyphname = Udieresismacron;
lastChange = "2015-08-01 07:38:51 +0000";
layers = (
{
layerId = "933D8F18-C226-4057-AED3-19590AE810D9";
name = Bold;
paths = (
{
closed = 1;
nodes = (
"527 -15 OFFCURVE",
"613 67 OFFCURVE",
"613 190 CURVE SMOOTH",
"613 493 LINE SMOOTH",
"613 516 OFFCURVE",
"626 530 OFFCURVE",
"654 530 CURVE SMOOTH",
"675 530 LINE",
"675 647 LINE",
"377 647 LINE",
"377 530 LINE",
"388 530 LINE SMOOTH",
"416 530 OFFCURVE",
"428 517 OFFCURVE",
"428 490 CURVE SMOOTH",
"428 184 LINE SMOOTH",
"428 124 OFFCURVE",
"398 102 OFFCURVE",
"340 102 CURVE SMOOTH",
"281 102 OFFCURVE",
"251 124 OFFCURVE",
"251 184 CURVE SMOOTH",
"251 490 LINE SMOOTH",
"251 517 OFFCURVE",
"263 530 OFFCURVE",
"292 530 CURVE SMOOTH",
"302 530 LINE",
"302 647 LINE",
"5 647 LINE",
"5 530 LINE",
"25 530 LINE SMOOTH",
"54 530 OFFCURVE",
"66 516 OFFCURVE",
"66 493 CURVE SMOOTH",
"66 190 LINE SMOOTH",
"66 67 OFFCURVE",
"152 -15 OFFCURVE",
"340 -15 CURVE SMOOTH"
);
},
{
closed = 1;
nodes = (
"278 697 LINE",
"278 834 LINE",
"150 834 LINE",
"150 697 LINE"
);
},
{
closed = 1;
nodes = (
"529 697 LINE",
"529 834 LINE",
"400 834 LINE",
"400 697 LINE"
);
},
{
closed = 1;
nodes = (
"499 867 LINE",
"499 972 LINE",
"182 972 LINE",
"182 867 LINE"
);
}
);
width = 680;
}
);
leftKerningGroup = U;
note = Udieresismacron;
rightKerningGroup = U;
unicode = 01D5;
},
{
glyphname = Udotbelow;
lastChange = "2015-08-01 07:38:51 +0000";
layers = (
{
layerId = "933D8F18-C226-4057-AED3-19590AE810D9";
name = Bold;
paths = (
{
closed = 1;
nodes = (
"527 -15 OFFCURVE",
"613 67 OFFCURVE",
"613 190 CURVE SMOOTH",
"613 493 LINE SMOOTH",
"613 516 OFFCURVE",
"626 530 OFFCURVE",
"654 530 CURVE SMOOTH",
"675 530 LINE",
"675 647 LINE",
"377 647 LINE",
"377 530 LINE",
"388 530 LINE SMOOTH",
"416 530 OFFCURVE",
"428 517 OFFCURVE",
"428 490 CURVE SMOOTH",
"428 184 LINE SMOOTH",
"428 124 OFFCURVE",
"398 102 OFFCURVE",
"340 102 CURVE SMOOTH",
"281 102 OFFCURVE",
"251 124 OFFCURVE",
"251 184 CURVE SMOOTH",
"251 490 LINE SMOOTH",
"251 517 OFFCURVE",
"263 530 OFFCURVE",
"292 530 CURVE SMOOTH",
"302 530 LINE",
"302 647 LINE",
"5 647 LINE",
"5 530 LINE",
"25 530 LINE SMOOTH",
"54 530 OFFCURVE",
"66 516 OFFCURVE",
"66 493 CURVE SMOOTH",
"66 190 LINE SMOOTH",
"66 67 OFFCURVE",
"152 -15 OFFCURVE",
"340 -15 CURVE SMOOTH"
);
},
{
closed = 1;
nodes = (
"405 -197 LINE",
"405 -60 LINE",
"276 -60 LINE",
"276 -197 LINE"
);
}
);
width = 680;
}
);
leftKerningGroup = U;
note = Udotbelow;
rightKerningGroup = U;
unicode = 1EE4;
},
{
glyphname = Ugrave;
lastChange = "2015-08-01 07:38:51 +0000";
layers = (
{
layerId = "933D8F18-C226-4057-AED3-19590AE810D9";
name = Bold;
paths = (
{
closed = 1;
nodes = (
"527 -15 OFFCURVE",
"613 67 OFFCURVE",
"613 190 CURVE SMOOTH",
"613 493 LINE SMOOTH",
"613 516 OFFCURVE",
"626 530 OFFCURVE",
"654 530 CURVE SMOOTH",
"675 530 LINE",
"675 647 LINE",
"377 647 LINE",
"377 530 LINE",
"388 530 LINE SMOOTH",
"416 530 OFFCURVE",
"428 517 OFFCURVE",
"428 490 CURVE SMOOTH",
"428 184 LINE SMOOTH",
"428 124 OFFCURVE",
"398 102 OFFCURVE",
"340 102 CURVE SMOOTH",
"281 102 OFFCURVE",
"251 124 OFFCURVE",
"251 184 CURVE SMOOTH",
"251 490 LINE SMOOTH",
"251 517 OFFCURVE",
"263 530 OFFCURVE",
"292 530 CURVE SMOOTH",
"302 530 LINE",
"302 647 LINE",
"5 647 LINE",
"5 530 LINE",
"25 530 LINE SMOOTH",
"54 530 OFFCURVE",
"66 516 OFFCURVE",
"66 493 CURVE SMOOTH",
"66 190 LINE SMOOTH",
"66 67 OFFCURVE",
"152 -15 OFFCURVE",
"340 -15 CURVE SMOOTH"
);
},
{
closed = 1;
nodes = (
"402 697 LINE",
"330 879 LINE",
"134 879 LINE",
"246 697 LINE"
);
}
);
width = 680;
}
);
leftKerningGroup = U;
note = Ugrave;
rightKerningGroup = U;
unicode = 00D9;
},
{
glyphname = Uhookabove;
lastChange = "2015-08-01 07:38:50 +0000";
layers = (
{
layerId = "933D8F18-C226-4057-AED3-19590AE810D9";
name = Bold;
paths = (
{
closed = 1;
nodes = (
"527 -15 OFFCURVE",
"613 67 OFFCURVE",
"613 190 CURVE SMOOTH",
"613 493 LINE SMOOTH",
"613 516 OFFCURVE",
"626 530 OFFCURVE",
"654 530 CURVE SMOOTH",
"675 530 LINE",
"675 647 LINE",
"377 647 LINE",
"377 530 LINE",
"388 530 LINE SMOOTH",
"416 530 OFFCURVE",
"428 517 OFFCURVE",
"428 490 CURVE SMOOTH",
"428 184 LINE SMOOTH",
"428 124 OFFCURVE",
"398 102 OFFCURVE",
"340 102 CURVE SMOOTH",
"281 102 OFFCURVE",
"251 124 OFFCURVE",
"251 184 CURVE SMOOTH",
"251 490 LINE SMOOTH",
"251 517 OFFCURVE",
"263 530 OFFCURVE",
"292 530 CURVE SMOOTH",
"302 530 LINE",
"302 647 LINE",
"5 647 LINE",
"5 530 LINE",
"25 530 LINE SMOOTH",
"54 530 OFFCURVE",
"66 516 OFFCURVE",
"66 493 CURVE SMOOTH",
"66 190 LINE SMOOTH",
"66 67 OFFCURVE",
"152 -15 OFFCURVE",
"340 -15 CURVE SMOOTH"
);
},
{
closed = 1;
nodes = (
"395 697 LINE",
"395 740 LINE",
"433 756 OFFCURVE",
"450 782 OFFCURVE",
"450 822 CURVE SMOOTH",
"450 883 OFFCURVE",
"401 910 OFFCURVE",
"313 910 CURVE SMOOTH",
"271 910 OFFCURVE",
"238 904 OFFCURVE",
"216 897 CURVE",
"216 811 LINE",
"229 817 OFFCURVE",
"244 820 OFFCURVE",
"259 820 CURVE SMOOTH",
"281 820 OFFCURVE",
"292 809 OFFCURVE",
"292 793 CURVE SMOOTH",
"292 776 OFFCURVE",
"281 761 OFFCURVE",
"245 761 CURVE",
"245 697 LINE"
);
}
);
width = 680;
}
);
leftKerningGroup = U;
note = Uhookabove;
rightKerningGroup = U;
unicode = 1EE6;
},
{
glyphname = Uhorn;
lastChange = "2015-08-01 07:40:08 +0000";
layers = (
{
layerId = "933D8F18-C226-4057-AED3-19590AE810D9";
name = Bold;
paths = (
{
closed = 1;
nodes = (
"527 -15 OFFCURVE",
"613 67 OFFCURVE",
"613 190 CURVE SMOOTH",
"613 472 LINE",
"768 484 OFFCURVE",
"819 550 OFFCURVE",
"819 647 CURVE SMOOTH",
"819 689 LINE",
"643 689 LINE",
"643 648 LINE SMOOTH",
"643 617 OFFCURVE",
"635 603 OFFCURVE",
"613 597 CURVE",
"613 647 LINE",
"377 647 LINE",
"377 530 LINE",
"388 530 LINE SMOOTH",
"416 530 OFFCURVE",
"428 517 OFFCURVE",
"428 490 CURVE SMOOTH",
"428 184 LINE SMOOTH",
"428 124 OFFCURVE",
"398 102 OFFCURVE",
"340 102 CURVE SMOOTH",
"281 102 OFFCURVE",
"251 124 OFFCURVE",
"251 184 CURVE SMOOTH",
"251 490 LINE SMOOTH",
"251 517 OFFCURVE",
"263 530 OFFCURVE",
"292 530 CURVE SMOOTH",
"302 530 LINE",
"302 647 LINE",
"5 647 LINE",
"5 530 LINE",
"25 530 LINE SMOOTH",
"54 530 OFFCURVE",
"66 516 OFFCURVE",
"66 493 CURVE SMOOTH",
"66 190 LINE SMOOTH",
"66 67 OFFCURVE",
"152 -15 OFFCURVE",
"340 -15 CURVE SMOOTH"
);
}
);
width = 799;
}
);
leftKerningGroup = U;
note = Uhorn;
rightKerningGroup = U;
unicode = 01AF;
},
{
glyphname = Uhornacute;
lastChange = "2015-08-01 07:38:51 +0000";
layers = (
{
layerId = "933D8F18-C226-4057-AED3-19590AE810D9";
name = Bold;
paths = (
{
closed = 1;
nodes = (
"527 -15 OFFCURVE",
"613 67 OFFCURVE",
"613 190 CURVE SMOOTH",
"613 472 LINE",
"768 484 OFFCURVE",
"819 550 OFFCURVE",
"819 647 CURVE SMOOTH",
"819 689 LINE",
"643 689 LINE",
"643 648 LINE SMOOTH",
"643 617 OFFCURVE",
"635 603 OFFCURVE",
"613 597 CURVE",
"613 647 LINE",
"377 647 LINE",
"377 530 LINE",
"388 530 LINE SMOOTH",
"416 530 OFFCURVE",
"428 517 OFFCURVE",
"428 490 CURVE SMOOTH",
"428 184 LINE SMOOTH",
"428 124 OFFCURVE",
"398 102 OFFCURVE",
"340 102 CURVE SMOOTH",
"281 102 OFFCURVE",
"251 124 OFFCURVE",
"251 184 CURVE SMOOTH",
"251 490 LINE SMOOTH",
"251 517 OFFCURVE",
"263 530 OFFCURVE",
"292 530 CURVE SMOOTH",
"302 530 LINE",
"302 647 LINE",
"5 647 LINE",
"5 530 LINE",
"25 530 LINE SMOOTH",
"54 530 OFFCURVE",
"66 516 OFFCURVE",
"66 493 CURVE SMOOTH",
"66 190 LINE SMOOTH",
"66 67 OFFCURVE",
"152 -15 OFFCURVE",
"340 -15 CURVE SMOOTH"
);
},
{
closed = 1;
nodes = (
"405 697 LINE",
"517 879 LINE",
"321 879 LINE",
"250 697 LINE"
);
}
);
width = 799;
}
);
leftKerningGroup = U;
note = Uhornacute;
rightKerningGroup = U;
unicode = 1EE8;
},
{
glyphname = Uhorndotbelow;
lastChange = "2015-08-01 07:38:52 +0000";
layers = (
{
layerId = "933D8F18-C226-4057-AED3-19590AE810D9";
name = Bold;
paths = (
{
closed = 1;
nodes = (
"527 -15 OFFCURVE",
"613 67 OFFCURVE",
"613 190 CURVE SMOOTH",
"613 472 LINE",
"768 484 OFFCURVE",
"819 550 OFFCURVE",
"819 647 CURVE SMOOTH",
"819 689 LINE",
"643 689 LINE",
"643 648 LINE SMOOTH",
"643 617 OFFCURVE",
"635 603 OFFCURVE",
"613 597 CURVE",
"613 647 LINE",
"377 647 LINE",
"377 530 LINE",
"388 530 LINE SMOOTH",
"416 530 OFFCURVE",
"428 517 OFFCURVE",
"428 490 CURVE SMOOTH",
"428 184 LINE SMOOTH",
"428 124 OFFCURVE",
"398 102 OFFCURVE",
"340 102 CURVE SMOOTH",
"281 102 OFFCURVE",
"251 124 OFFCURVE",
"251 184 CURVE SMOOTH",
"251 490 LINE SMOOTH",
"251 517 OFFCURVE",
"263 530 OFFCURVE",
"292 530 CURVE SMOOTH",
"302 530 LINE",
"302 647 LINE",
"5 647 LINE",
"5 530 LINE",
"25 530 LINE SMOOTH",
"54 530 OFFCURVE",
"66 516 OFFCURVE",
"66 493 CURVE SMOOTH",
"66 190 LINE SMOOTH",
"66 67 OFFCURVE",
"152 -15 OFFCURVE",
"340 -15 CURVE SMOOTH"
);
},
{
closed = 1;
nodes = (
"406 -197 LINE",
"406 -60 LINE",
"277 -60 LINE",
"277 -197 LINE"
);
}
);
width = 799;
}
);
leftKerningGroup = U;
note = Uhorndotbelow;
rightKerningGroup = U;
unicode = 1EF0;
},
{
glyphname = Uhorngrave;
lastChange = "2015-08-01 07:38:52 +0000";
layers = (
{
layerId = "933D8F18-C226-4057-AED3-19590AE810D9";
name = Bold;
paths = (
{
closed = 1;
nodes = (
"527 -15 OFFCURVE",
"613 67 OFFCURVE",
"613 190 CURVE SMOOTH",
"613 472 LINE",
"768 484 OFFCURVE",
"819 550 OFFCURVE",
"819 647 CURVE SMOOTH",
"819 689 LINE",
"643 689 LINE",
"643 648 LINE SMOOTH",
"643 617 OFFCURVE",
"635 603 OFFCURVE",
"613 597 CURVE",
"613 647 LINE",
"377 647 LINE",
"377 530 LINE",
"388 530 LINE SMOOTH",
"416 530 OFFCURVE",
"428 517 OFFCURVE",
"428 490 CURVE SMOOTH",
"428 184 LINE SMOOTH",
"428 124 OFFCURVE",
"398 102 OFFCURVE",
"340 102 CURVE SMOOTH",
"281 102 OFFCURVE",
"251 124 OFFCURVE",
"251 184 CURVE SMOOTH",
"251 490 LINE SMOOTH",
"251 517 OFFCURVE",
"263 530 OFFCURVE",
"292 530 CURVE SMOOTH",
"302 530 LINE",
"302 647 LINE",
"5 647 LINE",
"5 530 LINE",
"25 530 LINE SMOOTH",
"54 530 OFFCURVE",
"66 516 OFFCURVE",
"66 493 CURVE SMOOTH",
"66 190 LINE SMOOTH",
"66 67 OFFCURVE",
"152 -15 OFFCURVE",
"340 -15 CURVE SMOOTH"
);
},
{
closed = 1;
nodes = (
"406 697 LINE",
"334 879 LINE",
"138 879 LINE",
"250 697 LINE"
);
}
);
width = 799;
}
);
leftKerningGroup = U;
note = Uhorngrave;
rightKerningGroup = U;
unicode = 1EEA;
},
{
glyphname = Uhornhookabove;
lastChange = "2015-08-01 07:38:50 +0000";
layers = (
{
layerId = "933D8F18-C226-4057-AED3-19590AE810D9";
name = Bold;
paths = (
{
closed = 1;
nodes = (
"527 -15 OFFCURVE",
"613 67 OFFCURVE",
"613 190 CURVE SMOOTH",
"613 472 LINE",
"768 484 OFFCURVE",
"819 550 OFFCURVE",
"819 647 CURVE SMOOTH",
"819 689 LINE",
"643 689 LINE",
"643 648 LINE SMOOTH",
"643 617 OFFCURVE",
"635 603 OFFCURVE",
"613 597 CURVE",
"613 647 LINE",
"377 647 LINE",
"377 530 LINE",
"388 530 LINE SMOOTH",
"416 530 OFFCURVE",
"428 517 OFFCURVE",
"428 490 CURVE SMOOTH",
"428 184 LINE SMOOTH",
"428 124 OFFCURVE",
"398 102 OFFCURVE",
"340 102 CURVE SMOOTH",
"281 102 OFFCURVE",
"251 124 OFFCURVE",
"251 184 CURVE SMOOTH",
"251 490 LINE SMOOTH",
"251 517 OFFCURVE",
"263 530 OFFCURVE",
"292 530 CURVE SMOOTH",
"302 530 LINE",
"302 647 LINE",
"5 647 LINE",
"5 530 LINE",
"25 530 LINE SMOOTH",
"54 530 OFFCURVE",
"66 516 OFFCURVE",
"66 493 CURVE SMOOTH",
"66 190 LINE SMOOTH",
"66 67 OFFCURVE",
"152 -15 OFFCURVE",
"340 -15 CURVE SMOOTH"
);
},
{
closed = 1;
nodes = (
"411 697 LINE",
"411 740 LINE",
"449 756 OFFCURVE",
"466 782 OFFCURVE",
"466 822 CURVE SMOOTH",
"466 883 OFFCURVE",
"417 910 OFFCURVE",
"329 910 CURVE SMOOTH",
"287 910 OFFCURVE",
"254 904 OFFCURVE",
"232 897 CURVE",
"232 811 LINE",
"245 817 OFFCURVE",
"260 820 OFFCURVE",
"275 820 CURVE SMOOTH",
"297 820 OFFCURVE",
"308 809 OFFCURVE",
"308 793 CURVE SMOOTH",
"308 776 OFFCURVE",
"297 761 OFFCURVE",
"261 761 CURVE",
"261 697 LINE"
);
}
);
width = 799;
}
);
leftKerningGroup = U;
note = Uhornhookabove;
rightKerningGroup = U;
unicode = 1EEC;
},
{
glyphname = Uhorntilde;
lastChange = "2015-08-01 07:38:51 +0000";
layers = (
{
layerId = "933D8F18-C226-4057-AED3-19590AE810D9";
name = Bold;
paths = (
{
closed = 1;
nodes = (
"527 -15 OFFCURVE",
"613 67 OFFCURVE",
"613 190 CURVE SMOOTH",
"613 472 LINE",
"768 484 OFFCURVE",
"819 550 OFFCURVE",
"819 647 CURVE SMOOTH",
"819 689 LINE",
"643 689 LINE",
"643 648 LINE SMOOTH",
"643 617 OFFCURVE",
"635 603 OFFCURVE",
"613 597 CURVE",
"613 647 LINE",
"377 647 LINE",
"377 530 LINE",
"388 530 LINE SMOOTH",
"416 530 OFFCURVE",
"428 517 OFFCURVE",
"428 490 CURVE SMOOTH",
"428 184 LINE SMOOTH",
"428 124 OFFCURVE",
"398 102 OFFCURVE",
"340 102 CURVE SMOOTH",
"281 102 OFFCURVE",
"251 124 OFFCURVE",
"251 184 CURVE SMOOTH",
"251 490 LINE SMOOTH",
"251 517 OFFCURVE",
"263 530 OFFCURVE",
"292 530 CURVE SMOOTH",
"302 530 LINE",
"302 647 LINE",
"5 647 LINE",
"5 530 LINE",
"25 530 LINE SMOOTH",
"54 530 OFFCURVE",
"66 516 OFFCURVE",
"66 493 CURVE SMOOTH",
"66 190 LINE SMOOTH",
"66 67 OFFCURVE",
"152 -15 OFFCURVE",
"340 -15 CURVE SMOOTH"
);
},
{
closed = 1;
nodes = (
"243 697 LINE",
"243 726 OFFCURVE",
"259 743 OFFCURVE",
"287 743 CURVE SMOOTH",
"329 743 OFFCURVE",
"360 697 OFFCURVE",
"438 697 CURVE SMOOTH",
"534 697 OFFCURVE",
"568 755 OFFCURVE",
"568 882 CURVE",
"443 882 LINE",
"443 854 OFFCURVE",
"430 836 OFFCURVE",
"400 836 CURVE SMOOTH",
"356 836 OFFCURVE",
"327 882 OFFCURVE",
"252 882 CURVE SMOOTH",
"156 882 OFFCURVE",
"118 821 OFFCURVE",
"118 697 CURVE"
);
}
);
width = 799;
}
);
leftKerningGroup = U;
note = Uhorntilde;
rightKerningGroup = U;
unicode = 1EEE;
},
{
glyphname = Uhungarumlaut;
lastChange = "2015-08-01 07:38:50 +0000";
layers = (
{
layerId = "933D8F18-C226-4057-AED3-19590AE810D9";
name = Bold;
paths = (
{
closed = 1;
nodes = (
"527 -15 OFFCURVE",
"613 67 OFFCURVE",
"613 190 CURVE SMOOTH",
"613 493 LINE SMOOTH",
"613 516 OFFCURVE",
"626 530 OFFCURVE",
"654 530 CURVE SMOOTH",
"675 530 LINE",
"675 647 LINE",
"377 647 LINE",
"377 530 LINE",
"388 530 LINE SMOOTH",
"416 530 OFFCURVE",
"428 517 OFFCURVE",
"428 490 CURVE SMOOTH",
"428 184 LINE SMOOTH",
"428 124 OFFCURVE",
"398 102 OFFCURVE",
"340 102 CURVE SMOOTH",
"281 102 OFFCURVE",
"251 124 OFFCURVE",
"251 184 CURVE SMOOTH",
"251 490 LINE SMOOTH",
"251 517 OFFCURVE",
"263 530 OFFCURVE",
"292 530 CURVE SMOOTH",
"302 530 LINE",
"302 647 LINE",
"5 647 LINE",
"5 530 LINE",
"25 530 LINE SMOOTH",
"54 530 OFFCURVE",
"66 516 OFFCURVE",
"66 493 CURVE SMOOTH",
"66 190 LINE SMOOTH",
"66 67 OFFCURVE",
"152 -15 OFFCURVE",
"340 -15 CURVE SMOOTH"
);
},
{
closed = 1;
nodes = (
"261 697 LINE",
"389 899 LINE",
"187 899 LINE",
"97 697 LINE"
);
},
{
closed = 1;
nodes = (
"510 697 LINE",
"638 899 LINE",
"436 899 LINE",
"347 697 LINE"
);
}
);
width = 680;
}
);
leftKerningGroup = U;
note = Uhungarumlaut;
rightKerningGroup = U;
unicode = 0170;
},
{
glyphname = Umacron;
lastChange = "2015-08-01 07:38:50 +0000";
layers = (
{
layerId = "933D8F18-C226-4057-AED3-19590AE810D9";
name = Bold;
paths = (
{
closed = 1;
nodes = (
"527 -15 OFFCURVE",
"613 67 OFFCURVE",
"613 190 CURVE SMOOTH",
"613 493 LINE SMOOTH",
"613 516 OFFCURVE",
"626 530 OFFCURVE",
"654 530 CURVE SMOOTH",
"675 530 LINE",
"675 647 LINE",
"377 647 LINE",
"377 530 LINE",
"388 530 LINE SMOOTH",
"416 530 OFFCURVE",
"428 517 OFFCURVE",
"428 490 CURVE SMOOTH",
"428 184 LINE SMOOTH",
"428 124 OFFCURVE",
"398 102 OFFCURVE",
"340 102 CURVE SMOOTH",
"281 102 OFFCURVE",
"251 124 OFFCURVE",
"251 184 CURVE SMOOTH",
"251 490 LINE SMOOTH",
"251 517 OFFCURVE",
"263 530 OFFCURVE",
"292 530 CURVE SMOOTH",
"302 530 LINE",
"302 647 LINE",
"5 647 LINE",
"5 530 LINE",
"25 530 LINE SMOOTH",
"54 530 OFFCURVE",
"66 516 OFFCURVE",
"66 493 CURVE SMOOTH",
"66 190 LINE SMOOTH",
"66 67 OFFCURVE",
"152 -15 OFFCURVE",
"340 -15 CURVE SMOOTH"
);
},
{
closed = 1;
nodes = (
"480 717 LINE",
"480 822 LINE",
"163 822 LINE",
"163 717 LINE"
);
}
);
width = 680;
}
);
leftKerningGroup = U;
note = Umacron;
rightKerningGroup = U;
unicode = 016A;
},
{
glyphname = Uogonek;
lastChange = "2015-08-01 07:38:51 +0000";
layers = (
{
layerId = "933D8F18-C226-4057-AED3-19590AE810D9";
name = Bold;
paths = (
{
closed = 1;
nodes = (
"527 -15 OFFCURVE",
"613 67 OFFCURVE",
"613 190 CURVE SMOOTH",
"613 493 LINE SMOOTH",
"613 516 OFFCURVE",
"626 530 OFFCURVE",
"654 530 CURVE SMOOTH",
"675 530 LINE",
"675 647 LINE",
"377 647 LINE",
"377 530 LINE",
"388 530 LINE SMOOTH",
"416 530 OFFCURVE",
"428 517 OFFCURVE",
"428 490 CURVE SMOOTH",
"428 184 LINE SMOOTH",
"428 124 OFFCURVE",
"398 102 OFFCURVE",
"340 102 CURVE SMOOTH",
"281 102 OFFCURVE",
"251 124 OFFCURVE",
"251 184 CURVE SMOOTH",
"251 490 LINE SMOOTH",
"251 517 OFFCURVE",
"263 530 OFFCURVE",
"292 530 CURVE SMOOTH",
"302 530 LINE",
"302 647 LINE",
"5 647 LINE",
"5 530 LINE",
"25 530 LINE SMOOTH",
"54 530 OFFCURVE",
"66 516 OFFCURVE",
"66 493 CURVE SMOOTH",
"66 190 LINE SMOOTH",
"66 67 OFFCURVE",
"152 -15 OFFCURVE",
"340 -15 CURVE SMOOTH"
);
},
{
closed = 1;
nodes = (
"384 -221 OFFCURVE",
"414 -214 OFFCURVE",
"445 -190 CURVE",
"445 -92 LINE",
"436 -97 OFFCURVE",
"424 -100 OFFCURVE",
"413 -100 CURVE SMOOTH",
"394 -100 OFFCURVE",
"385 -86 OFFCURVE",
"385 -68 CURVE SMOOTH",
"385 -41 OFFCURVE",
"400 -23 OFFCURVE",
"433 0 CURVE",
"282 0 LINE",
"249 -23 OFFCURVE",
"227 -72 OFFCURVE",
"227 -118 CURVE SMOOTH",
"227 -192 OFFCURVE",
"281 -221 OFFCURVE",
"339 -221 CURVE SMOOTH"
);
}
);
width = 680;
}
);
leftKerningGroup = U;
note = Uogonek;
rightKerningGroup = U;
unicode = 0172;
},
